<svg xmlns="http://www.w3.org/2000/svg" xmlns:xlink="http://www.w3.org/1999/xlink" width="1240" height="554" viewBox="0 0 1240 554">
  <defs>
    <linearGradient id="linear-gradient" x1="-109.562" y1="21.728" x2="-109.517" y2="21.728" gradientUnits="objectBoundingBox">
      <stop offset="0" stop-color="#fff"/>
      <stop offset="1" stop-color="#d5d5d5"/>
    </linearGradient>
    <linearGradient id="linear-gradient-2" x1="-109.255" y1="28.6" x2="-109.21" y2="28.6" xlink:href="#linear-gradient"/>
    <linearGradient id="linear-gradient-3" x1="-74.762" y1="22.467" x2="-74.718" y2="22.467" xlink:href="#linear-gradient"/>
    <linearGradient id="linear-gradient-4" x1="-77.309" y1="19.807" x2="-77.266" y2="19.807" xlink:href="#linear-gradient"/>
    <linearGradient id="linear-gradient-5" x1="-74.97" y1="26.177" x2="-74.926" y2="26.177" xlink:href="#linear-gradient"/>
    <linearGradient id="linear-gradient-6" x1="-77.534" y1="28.512" x2="-77.491" y2="28.512" xlink:href="#linear-gradient"/>
    <linearGradient id="linear-gradient-7" x1="-90.599" y1="29.232" x2="-90.556" y2="29.232" xlink:href="#linear-gradient"/>
  </defs>
  <rect id="Rectángulo_14957" data-name="Rectángulo 14957" width="1240" height="554" fill="#f6f6f6"/>
  <g id="Grupo_84485" data-name="Grupo 84485" transform="translate(-1557.69 435.774)">
    <g id="Grupo_84566" data-name="Grupo 84566">
      <line id="Línea_231" data-name="Línea 231" x2="104.327" transform="translate(2256.495 -140.456)" fill="none" stroke="#cad3df" stroke-linecap="round" stroke-linejoin="round" stroke-width="9"/>
      <line id="Línea_232" data-name="Línea 232" x1="104.327" transform="translate(2042.624 -140.456)" fill="none" stroke="#cad3df" stroke-linecap="round" stroke-linejoin="round" stroke-width="9"/>
      <path id="Trazado_113361" data-name="Trazado 113361" d="M2494.21-219.752l32.9-58.805h52.8" fill="none" stroke="#b7c2c5" stroke-linecap="round" stroke-linejoin="round" stroke-width="2.812" stroke-dasharray="0 6.561"/>
      <g id="Grupo_84494" data-name="Grupo 84494">
        <path id="Rectángulo_15562" data-name="Rectángulo 15562" d="M2720.971-279.665v1.924c0,20.7-15.471,37.478-34.555,37.478H2577.852c-19.084,0-34.555-16.779-34.555-37.478v-1.924c0-20.7,15.471-37.478,34.555-37.478h108.564C2705.5-317.143,2720.971-300.364,2720.971-279.665Z" fill="#cad3df" opacity="0.37" style="isolation: isolate"/>
        <g id="Grupo_84493" data-name="Grupo 84493">
          <g id="Grupo_84489" data-name="Grupo 84489">
            <rect id="Rectángulo_14958" data-name="Rectángulo 14958" width="168.624" height="67.275" rx="31.435" transform="translate(2547.847 -312.195)" fill="#cad3df"/>
            <rect id="Rectángulo_14959" data-name="Rectángulo 14959" width="159.887" height="58.538" rx="27.248" transform="translate(2552.215 -307.826)" fill="#f6f6f6" stroke="#fff" stroke-miterlimit="10" stroke-width="0.407"/>
          </g>
          <g id="Grupo_84490" data-name="Grupo 84490">
            <g id="código_producto" data-name="código producto" style="isolation: isolate">
              <text id="código_producto-2" data-name="código_producto" transform="translate(2569.083 -274.648)" fill="#12263f" font-size="16" font-family="Roboto-Bold, Roboto" font-weight="700" style="isolation: isolate"><tspan x="0" y="0">código_producto</tspan></text>
            </g>
          </g>
        </g>
      </g>
      <path id="Trazado_113369" data-name="Trazado 113369" d="M2499.126-71.034,2530.138,5.6h49.772" fill="none" stroke="#b7c2c5" stroke-linecap="round" stroke-linejoin="round" stroke-width="2.812" stroke-dasharray="0 6.561"/>
      <g id="Grupo_84504" data-name="Grupo 84504">
        <g id="Grupo_84503" data-name="Grupo 84503">
          <path id="Rectángulo_15562-2" data-name="Rectángulo 15562" d="M2720.971,4.641V6.565c0,20.7-15.471,37.478-34.555,37.478H2577.852c-19.084,0-34.555-16.779-34.555-37.478V4.641c0-20.7,15.471-37.478,34.555-37.478h108.564C2705.5-32.837,2720.971-16.058,2720.971,4.641Z" fill="#cad3df" opacity="0.37" style="isolation: isolate"/>
          <g id="Grupo_84502" data-name="Grupo 84502">
            <g id="Grupo_84498" data-name="Grupo 84498">
              <rect id="Rectángulo_14960" data-name="Rectángulo 14960" width="168.624" height="67.275" rx="31.435" transform="translate(2547.847 -27.889)" fill="#cad3df"/>
              <rect id="Rectángulo_14961" data-name="Rectángulo 14961" width="159.887" height="58.538" rx="27.248" transform="translate(2552.215 -23.521)" fill="#f6f6f6" stroke="#fff" stroke-miterlimit="10" stroke-width="0.407"/>
            </g>
            <g id="Grupo_84499" data-name="Grupo 84499">
              <g id="producto" style="isolation: isolate">
                <text id="producto-2" data-name="producto" transform="translate(2598.266 9.658)" fill="#12263f" font-size="16" font-family="Roboto-Bold, Roboto" font-weight="700" style="isolation: isolate"><tspan x="0" y="0">producto</tspan></text>
              </g>
            </g>
          </g>
        </g>
      </g>
      <g id="Grupo_84514" data-name="Grupo 84514">
        <g id="Grupo_84512" data-name="Grupo 84512">
          <g id="Grupo_84505" data-name="Grupo 84505">
            <line id="Línea_233" data-name="Línea 233" x1="73.206" y2="74.982" transform="translate(2420.336 -219.752)" fill="none" stroke="#fef786" stroke-linecap="round" stroke-linejoin="round" stroke-width="9"/>
            <line id="Línea_234" data-name="Línea 234" x2="75.553" y2="77.769" transform="translate(2422.42 -146.854)" fill="none" stroke="#fef786" stroke-linecap="round" stroke-linejoin="round" stroke-width="9"/>
          </g>
          <g id="Grupo_84506" data-name="Grupo 84506">
            <path id="Trazado_113377" data-name="Trazado 113377" d="M2430.357-250.571a4.969,4.969,0,0,0-5.2,4.722c0,.078-.005.156-.005.233h0a4.934,4.934,0,0,0,4.677,4.946,99.4,99.4,0,0,1,61.66,25.138l7.64-6.464A109.287,109.287,0,0,0,2430.357-250.571Z" fill="#fef786"/>
            <path id="Trazado_113378" data-name="Trazado 113378" d="M2429.826-41.285a4.935,4.935,0,0,0-4.677,4.946,4.967,4.967,0,0,0,4.975,4.959c.077,0,.155,0,.233-.006a109.372,109.372,0,0,0,73.531-33.2l-7.56-6.448A99.486,99.486,0,0,1,2429.826-41.285Z" fill="#fef786"/>
            <path id="Trazado_113379" data-name="Trazado 113379" d="M2534.618-148.245h-9.932q.259,3.6.263,7.268a99.476,99.476,0,0,1-28.62,69.944l7.56,6.449a109.352,109.352,0,0,0,30.975-76.393C2534.863-143.421,2534.776-145.845,2534.618-148.245Z" fill="#fef786"/>
            <path id="Trazado_113380" data-name="Trazado 113380" d="M2499.126-222l-7.64,6.464a99.559,99.559,0,0,1,33.2,67.286h9.932A109.417,109.417,0,0,0,2499.126-222Z" fill="#fef786"/>
          </g>
          <g id="Grupo_84511" data-name="Grupo 84511">
            <g id="Grupo_84508" data-name="Grupo 84508">
              <g id="Grupo_84507" data-name="Grupo 84507">
                <circle id="Elipse_4469" data-name="Elipse 4469" cx="11.075" cy="11.075" r="11.075" transform="translate(2489.395 -78.411)" stroke="#fff" stroke-miterlimit="10" stroke-width="0.783" fill="url(#linear-gradient)"/>
                <circle id="Elipse_4470" data-name="Elipse 4470" cx="7.96" cy="7.96" r="7.96" transform="translate(2492.51 -75.296)" fill="#fef786"/>
              </g>
            </g>
            <g id="Grupo_84510" data-name="Grupo 84510">
              <g id="Grupo_84509" data-name="Grupo 84509">
                <circle id="Elipse_4471" data-name="Elipse 4471" cx="11.075" cy="11.075" r="11.075" transform="translate(2482.587 -230.614)" stroke="#fff" stroke-miterlimit="10" stroke-width="0.783" fill="url(#linear-gradient-2)"/>
                <circle id="Elipse_4472" data-name="Elipse 4472" cx="7.96" cy="7.96" r="7.96" transform="translate(2485.702 -227.499)" fill="#fef786"/>
              </g>
            </g>
          </g>
          <g id="Grupo_86425" data-name="Grupo 86425">
            <g id="Grupo_86424" data-name="Grupo 86424">
              <rect id="Rectángulo_15629" data-name="Rectángulo 15629" width="153.25" height="88.778" transform="translate(2343.748 -185.294)" fill="none" stroke="#b7c2c5" stroke-linecap="round" stroke-linejoin="round" stroke-width="2.812" stroke-dasharray="0 6.561"/>
              <rect id="Rectángulo_15630" data-name="Rectángulo 15630" width="137.343" height="75.238" transform="translate(2351.579 -178.335)" fill="#cad3df"/>
              <rect id="Rectángulo_15631" data-name="Rectángulo 15631" width="121.194" height="59.088" transform="translate(2359.654 -170.26)" fill="#f6f6f6" stroke="#fff" stroke-miterlimit="10" stroke-width="0.469"/>
            </g>
            <g id="Grupo_84513" data-name="Grupo 84513">
              <g id="PRODUCTO-2-2" data-name="PRODUCTO-2" style="isolation: isolate">
                <text id="PRODUCTO-3" data-name="PRODUCTO" transform="translate(2368.2 -135.06)" fill="#12263f" font-size="20" font-family="Roboto-Bold, Roboto" font-weight="700" style="isolation: isolate"><tspan x="0" y="0">PRODUCTO</tspan></text>
              </g>
            </g>
          </g>
        </g>
      </g>
      <g id="Grupo_84515" data-name="Grupo 84515">
        <path id="Trazado_113381" data-name="Trazado 113381" d="M1865.309-189.49l1.043-37.558H1753.024" fill="none" stroke="#b7c2c5" stroke-linecap="round" stroke-linejoin="round" stroke-width="2.812" stroke-dasharray="0 6.561"/>
      </g>
      <g id="Grupo_84516" data-name="Grupo 84516">
        <line id="Línea_235" data-name="Línea 235" x1="113.327" transform="translate(1753.026 -101.855)" fill="none" stroke="#b7c2c5" stroke-linecap="round" stroke-linejoin="round" stroke-width="2.812" stroke-dasharray="0 6.561"/>
      </g>
      <g id="Grupo_84525" data-name="Grupo 84525">
        <path id="Rectángulo_15562-3" data-name="Rectángulo 15562" d="M1812.364-228.01v1.924c0,20.7-15.471,37.478-34.555,37.478H1669.245c-19.084,0-34.555-16.779-34.555-37.478v-1.924c0-20.7,15.471-37.478,34.555-37.478h108.564C1796.893-265.488,1812.364-248.709,1812.364-228.01Z" fill="#cad3df" opacity="0.37" style="isolation: isolate"/>
        <g id="Grupo_84524" data-name="Grupo 84524">
          <g id="Grupo_84520" data-name="Grupo 84520">
            <rect id="Rectángulo_14962" data-name="Rectángulo 14962" width="168.624" height="67.275" rx="31.435" transform="translate(1639.189 -260.541)" fill="#cad3df"/>
            <rect id="Rectángulo_14963" data-name="Rectángulo 14963" width="159.887" height="58.538" rx="27.248" transform="translate(1643.557 -256.173)" fill="#f6f6f6" stroke="#fff" stroke-miterlimit="10" stroke-width="0.407"/>
          </g>
          <g id="Grupo_84521" data-name="Grupo 84521">
            <g id="nombres" style="isolation: isolate">
              <text id="nombres-2" data-name="nombres" transform="translate(1690.565 -222.994)" fill="#12263f" font-size="16" font-family="Roboto-Bold, Roboto" font-weight="700" style="isolation: isolate"><tspan x="0" y="0">nombres</tspan></text>
            </g>
          </g>
        </g>
      </g>
      <g id="Grupo_84534" data-name="Grupo 84534">
        <path id="Rectángulo_15562-4" data-name="Rectángulo 15562" d="M1812.364-102.476v1.924c0,20.7-15.471,37.478-34.555,37.478H1669.245c-19.084,0-34.555-16.779-34.555-37.478v-1.924c0-20.7,15.471-37.478,34.555-37.478h108.564C1796.893-139.954,1812.364-123.175,1812.364-102.476Z" fill="#cad3df" opacity="0.37" style="isolation: isolate"/>
        <g id="Grupo_84530" data-name="Grupo 84530">
          <g id="Grupo_84526" data-name="Grupo 84526">
            <rect id="Rectángulo_14964" data-name="Rectángulo 14964" width="168.624" height="67.275" rx="31.435" transform="translate(1639.189 -135.007)" fill="#cad3df"/>
            <rect id="Rectángulo_14965" data-name="Rectángulo 14965" width="159.887" height="58.538" rx="27.248" transform="translate(1643.557 -130.639)" fill="#f6f6f6" stroke="#fff" stroke-miterlimit="10" stroke-width="0.407"/>
          </g>
          <g id="Grupo_84527" data-name="Grupo 84527">
            <g id="correo" style="isolation: isolate">
              <text id="correo-2" data-name="correo" transform="translate(1699.236 -97.46)" fill="#12263f" font-size="16" font-family="Roboto-Bold, Roboto" font-weight="700" style="isolation: isolate"><tspan x="0" y="0">correo</tspan></text>
            </g>
          </g>
        </g>
      </g>
      <path id="Trazado_113393" data-name="Trazado 113393" d="M1923.08-242.7l-47.354-90.765h-52.8" fill="none" stroke="#b7c2c5" stroke-linecap="round" stroke-linejoin="round" stroke-width="2.812" stroke-dasharray="0 6.561"/>
      <path id="Trazado_113394" data-name="Trazado 113394" d="M1917.864-42.388l-33.613,57.38h-61.325" fill="none" stroke="#b7c2c5" stroke-linecap="round" stroke-linejoin="round" stroke-width="2.812" stroke-dasharray="0 6.561"/>
      <g id="Grupo_84543" data-name="Grupo 84543">
        <path id="Rectángulo_15562-5" data-name="Rectángulo 15562" d="M1863.086-334.3v1.924c0,20.7-15.471,37.478-34.555,37.478H1719.967c-19.084,0-34.555-16.779-34.555-37.478V-334.3c0-20.7,15.471-37.478,34.555-37.478h108.564C1847.615-371.774,1863.086-354.995,1863.086-334.3Z" fill="#cad3df" opacity="0.37" style="isolation: isolate"/>
        <g id="Grupo_84542" data-name="Grupo 84542">
          <g id="Grupo_84538" data-name="Grupo 84538">
            <rect id="Rectángulo_14966" data-name="Rectángulo 14966" width="168.624" height="67.275" rx="31.435" transform="translate(1689.911 -366.827)" fill="#cad3df"/>
            <rect id="Rectángulo_14967" data-name="Rectángulo 14967" width="159.887" height="58.538" rx="27.248" transform="translate(1694.279 -362.459)" fill="#f6f6f6" stroke="#fff" stroke-miterlimit="10" stroke-width="0.407"/>
          </g>
          <g id="Grupo_84539" data-name="Grupo 84539">
            <g id="nit_proveedor" data-name="nit proveedor" style="isolation: isolate">
              <text id="nit_proveedor-2" data-name="nit_proveedor" transform="translate(1722.708 -329.28)" fill="#12263f" font-size="16" font-family="Roboto-Bold, Roboto" font-weight="700" style="isolation: isolate"><tspan x="0" y="0">nit_proveedor</tspan></text>
            </g>
          </g>
        </g>
      </g>
      <g id="Grupo_84555" data-name="Grupo 84555">
        <g id="Grupo_84544" data-name="Grupo 84544">
          <line id="Línea_236" data-name="Línea 236" x1="45.161" y1="96.339" transform="translate(1924.93 -237.244)" fill="none" stroke="#2450e1" stroke-linecap="round" stroke-linejoin="round" stroke-width="9"/>
          <line id="Línea_237" data-name="Línea 237" x1="101.698" y1="49.667" transform="translate(1868.393 -190.572)" fill="none" stroke="#2450e1" stroke-linecap="round" stroke-linejoin="round" stroke-width="9"/>
          <line id="Línea_238" data-name="Línea 238" x1="104.001" y2="38.618" transform="translate(1866.09 -140.905)" fill="none" stroke="#2450e1" stroke-linecap="round" stroke-linejoin="round" stroke-width="9"/>
          <line id="Línea_239" data-name="Línea 239" x1="50.263" y2="96.195" transform="translate(1919.828 -140.905)" fill="none" stroke="#2450e1" stroke-linecap="round" stroke-linejoin="round" stroke-width="9"/>
        </g>
        <g id="Grupo_84545" data-name="Grupo 84545">
          <path id="Trazado_113402" data-name="Trazado 113402" d="M1960.44-254.893a5.165,5.165,0,0,1,5.408,4.908c0,.081.005.161.006.242h0a5.131,5.131,0,0,1-4.862,5.141,103.31,103.31,0,0,0-64.091,26.13l-7.941-6.72A113.6,113.6,0,0,1,1960.44-254.893Z" fill="#2450e1"/>
          <path id="Trazado_113403" data-name="Trazado 113403" d="M1960.991-37.353a5.132,5.132,0,0,1,4.862,5.142,5.163,5.163,0,0,1-5.171,5.155c-.081,0-.162,0-.242-.006a113.682,113.682,0,0,1-76.432-34.508l7.859-6.7A103.4,103.4,0,0,0,1960.991-37.353Z" fill="#2450e1"/>
          <path id="Trazado_113404" data-name="Trazado 113404" d="M1852.067-148.533h10.324q-.27,3.743-.274,7.555a103.4,103.4,0,0,0,29.749,72.7l-7.858,6.7a113.652,113.652,0,0,1-32.2-79.406Q1851.822-144.784,1852.067-148.533Z" fill="#2450e1"/>
          <path id="Trazado_113405" data-name="Trazado 113405" d="M1888.958-225.191l7.941,6.72a103.475,103.475,0,0,0-34.509,69.939h-10.324A113.734,113.734,0,0,1,1888.958-225.191Z" fill="#2450e1"/>
        </g>
        <g id="Grupo_84554" data-name="Grupo 84554">
          <g id="Grupo_84547" data-name="Grupo 84547">
            <g id="Grupo_84546" data-name="Grupo 84546">
              <circle id="Elipse_4482" data-name="Elipse 4482" cx="11.512" cy="11.512" r="11.512" transform="translate(1852.795 -114.933)" stroke="#fff" stroke-miterlimit="10" stroke-width="0.783" fill="url(#linear-gradient-3)"/>
              <circle id="Elipse_4483" data-name="Elipse 4483" cx="8.274" cy="8.274" r="8.274" transform="translate(1856.033 -111.695)" fill="#2450e1"/>
            </g>
          </g>
          <g id="Grupo_84549" data-name="Grupo 84549">
            <g id="Grupo_84548" data-name="Grupo 84548">
              <circle id="Elipse_4484" data-name="Elipse 4484" cx="11.512" cy="11.512" r="11.512" transform="translate(1906.758 -53.679)" stroke="#fff" stroke-miterlimit="10" stroke-width="0.783" fill="url(#linear-gradient-4)"/>
              <circle id="Elipse_4485" data-name="Elipse 4485" cx="8.271" cy="8.271" r="8.271" transform="translate(1909.995 -50.433)" fill="#2450e1"/>
            </g>
          </g>
          <g id="Grupo_84551" data-name="Grupo 84551">
            <g id="Grupo_84550" data-name="Grupo 84550">
              <circle id="Elipse_4486" data-name="Elipse 4486" cx="11.512" cy="11.512" r="11.512" transform="translate(1857.208 -200.361)" stroke="#fff" stroke-miterlimit="10" stroke-width="0.783" fill="url(#linear-gradient-5)"/>
              <circle id="Elipse_4487" data-name="Elipse 4487" cx="8.276" cy="8.276" r="8.276" transform="translate(1860.445 -197.122)" fill="#2450e1"/>
            </g>
          </g>
          <g id="Grupo_84553" data-name="Grupo 84553">
            <g id="Grupo_84552" data-name="Grupo 84552">
              <circle id="Elipse_4488" data-name="Elipse 4488" cx="11.512" cy="11.512" r="11.512" transform="translate(1911.531 -254.108)" stroke="#fff" stroke-miterlimit="10" stroke-width="0.783" fill="url(#linear-gradient-6)"/>
              <circle id="Elipse_4489" data-name="Elipse 4489" cx="8.274" cy="8.274" r="8.274" transform="translate(1914.769 -250.87)" fill="#2450e1"/>
            </g>
          </g>
        </g>
      </g>
      <g id="Grupo_84564" data-name="Grupo 84564">
        <path id="Rectángulo_15562-6" data-name="Rectángulo 15562" d="M1863.086,13.935v1.924c0,20.7-15.471,37.478-34.555,37.478H1719.967c-19.084,0-34.555-16.779-34.555-37.478V13.935c0-20.7,15.471-37.478,34.555-37.478h108.564C1847.615-23.543,1863.086-6.764,1863.086,13.935Z" fill="#cad3df" opacity="0.37" style="isolation: isolate"/>
        <g id="Grupo_84563" data-name="Grupo 84563">
          <g id="Grupo_84559" data-name="Grupo 84559">
            <rect id="Rectángulo_14968" data-name="Rectángulo 14968" width="168.624" height="67.275" rx="31.435" transform="translate(1689.911 -18.596)" fill="#cad3df"/>
            <rect id="Rectángulo_14969" data-name="Rectángulo 14969" width="159.887" height="58.538" rx="27.248" transform="translate(1694.279 -14.228)" fill="#f6f6f6" stroke="#fff" stroke-miterlimit="10" stroke-width="0.407"/>
          </g>
          <g id="Grupo_84560" data-name="Grupo 84560">
            <g id="teléfono" style="isolation: isolate">
              <text id="teléfono-2" data-name="teléfono" transform="translate(1743.206 18.951)" fill="#12263f" font-size="16" font-family="Roboto-Bold, Roboto" font-weight="700" style="isolation: isolate"><tspan x="0" y="0">teléfono</tspan></text>
            </g>
          </g>
        </g>
      </g>
      <g id="Grupo_86427" data-name="Grupo 86427">
        <g id="Grupo_86426" data-name="Grupo 86426">
          <rect id="Rectángulo_15632" data-name="Rectángulo 15632" width="171.258" height="88.778" transform="translate(1897.679 -182.636)" fill="none" stroke="#b7c2c5" stroke-linecap="round" stroke-linejoin="round" stroke-width="2.812" stroke-dasharray="0 6.561"/>
          <rect id="Rectángulo_15633" data-name="Rectángulo 15633" width="153.483" height="75.238" transform="translate(1906.43 -175.677)" fill="#cad3df"/>
          <rect id="Rectángulo_15634" data-name="Rectángulo 15634" width="135.435" height="59.088" transform="translate(1915.454 -167.602)" fill="#f6f6f6" stroke="#fff" stroke-miterlimit="10" stroke-width="0.469"/>
        </g>
      </g>
      <g id="Grupo_84565" data-name="Grupo 84565">
        <g id="PROVEEDOR" style="isolation: isolate">
          <text id="PROVEEDOR-2" data-name="PROVEEDOR" transform="translate(1926.105 -132.402)" fill="#12263f" font-size="20" font-family="Roboto-Bold, Roboto" font-weight="700" style="isolation: isolate"><tspan x="0" y="0">PROVEEDOR</tspan></text>
        </g>
      </g>
    </g>
    <g id="N" style="isolation: isolate">
      <text id="N-2" data-name="N" transform="translate(2080.469 -153.367)" fill="#12263f" font-size="20" font-family="Roboto-Bold, Roboto" font-weight="700" style="isolation: isolate"><tspan x="0" y="0">N</tspan></text>
    </g>
    <g id="N-2-2" data-name="N-2" style="isolation: isolate">
      <text id="N-3" data-name="N" transform="translate(2308.947 -153.367)" fill="#12263f" font-size="20" font-family="Roboto-Bold, Roboto" font-weight="700" style="isolation: isolate"><tspan x="0" y="0">N</tspan></text>
    </g>
    <g id="Grupo_84576" data-name="Grupo 84576">
      <line id="Línea_240" data-name="Línea 240" x2="0.306" y2="184.66" transform="translate(2200.615 -306.814)" fill="none" stroke="#b7c2c5" stroke-linecap="round" stroke-linejoin="round" stroke-width="2.812" stroke-dasharray="0 6.561"/>
      <g id="Grupo_84575" data-name="Grupo 84575">
        <path id="Rectángulo_15562-7" data-name="Rectángulo 15562" d="M2290.269-330.848v1.924c0,20.7-15.471,37.478-34.555,37.478H2147.151c-19.085,0-34.556-16.779-34.556-37.478v-1.924c0-20.7,15.471-37.478,34.556-37.478h108.563C2274.8-368.326,2290.269-351.547,2290.269-330.848Z" fill="#cad3df" opacity="0.37" style="isolation: isolate"/>
        <g id="Grupo_84574" data-name="Grupo 84574">
          <g id="Grupo_84570" data-name="Grupo 84570">
            <rect id="Rectángulo_14970" data-name="Rectángulo 14970" width="168.624" height="67.275" rx="31.435" transform="translate(2117.094 -363.378)" fill="#cad3df"/>
            <rect id="Rectángulo_14971" data-name="Rectángulo 14971" width="159.887" height="58.538" rx="27.248" transform="translate(2121.463 -359.01)" fill="#f6f6f6" stroke="#fff" stroke-miterlimit="10" stroke-width="0.407"/>
          </g>
          <g id="Grupo_84571" data-name="Grupo 84571">
            <g id="precio" style="isolation: isolate">
              <text id="precio-2" data-name="precio" transform="translate(2178.005 -325.83)" fill="#12263f" font-size="16" font-family="Roboto-Bold, Roboto" font-weight="700" style="isolation: isolate"><tspan x="0" y="0">precio</tspan></text>
            </g>
          </g>
        </g>
      </g>
    </g>
    <g id="Grupo_84578" data-name="Grupo 84578">
      <g id="Grupo_84577" data-name="Grupo 84577">
        <path id="Trazado_113412" data-name="Trazado 113412" d="M2197.2-163.52a4.679,4.679,0,0,1-.311-1.691l.046-98.555a4.7,4.7,0,0,1,4.7-4.69,4.694,4.694,0,0,1,4.688,4.7l-.047,98.555a4.7,4.7,0,0,1-4.7,4.69A4.7,4.7,0,0,1,2197.2-163.52Z" fill="#4de1aa"/>
      </g>
    </g>
    <g id="Grupo_84580" data-name="Grupo 84580">
      <g id="Grupo_84579" data-name="Grupo 84579">
        <circle id="Elipse_4500" data-name="Elipse 4500" cx="11.512" cy="11.512" r="11.512" transform="translate(2189.481 -269.607)" stroke="#fff" stroke-miterlimit="10" stroke-width="0.783" fill="url(#linear-gradient-7)"/>
        <circle id="Elipse_4501" data-name="Elipse 4501" cx="8.274" cy="8.274" r="8.274" transform="translate(2192.719 -266.369)" fill="#4de1aa"/>
      </g>
    </g>
    <g id="Grupo_84584" data-name="Grupo 84584">
      <g id="Grupo_86428" data-name="Grupo 86428">
        <rect id="Rectángulo_15635" data-name="Rectángulo 15635" width="135.013" height="135.013" transform="translate(2201.636 -235.925) rotate(45)" fill="none" stroke="#b7c2c5" stroke-linecap="round" stroke-linejoin="round" stroke-width="2.812" stroke-dasharray="0 6.561"/>
        <rect id="Rectángulo_15636" data-name="Rectángulo 15636" width="114.422" height="114.422" transform="translate(2201.636 -220.959) rotate(45)" fill="#cad3df"/>
        <rect id="Rectángulo_15637" data-name="Rectángulo 15637" width="89.861" height="89.861" transform="translate(2201.636 -203.592) rotate(45)" fill="#f6f6f6" stroke="#fff" stroke-miterlimit="10" stroke-width="0.469"/>
      </g>
      <g id="Grupo_84583" data-name="Grupo 84583">
        <g id="PROVEE" style="isolation: isolate">
          <text id="PROVEE-2" data-name="PROVEE" transform="translate(2161.407 -135.789)" fill="#12263f" font-size="20" font-family="Roboto-Bold, Roboto" font-weight="700" style="isolation: isolate"><tspan x="0" y="0">PROVEE</tspan></text>
        </g>
      </g>
    </g>
  </g>
  <path id="Trazado_116166" data-name="Trazado 116166" d="M-4213.056-7574.3h99.681" transform="translate(4377.375 7688)" fill="none" stroke="#13273e" stroke-width="1"/>
  <path id="Trazado_116167" data-name="Trazado 116167" d="M-4213.056-7574.3h120.915" transform="translate(5224.056 7744)" fill="none" stroke="#13273e" stroke-width="1"/>
</svg>
