<svg xmlns="http://www.w3.org/2000/svg" xmlns:xlink="http://www.w3.org/1999/xlink" width="820" height="726" viewBox="0 0 820 726">
  <defs>
    <linearGradient id="linear-gradient" x1="-45.573" y1="-23.99" x2="-45.528" y2="-23.99" gradientUnits="objectBoundingBox">
      <stop offset="0" stop-color="#fff"/>
      <stop offset="1" stop-color="#d5d5d5"/>
    </linearGradient>
    <linearGradient id="linear-gradient-2" x1="-47.388" y1="-26.197" x2="-47.343" y2="-26.197" xlink:href="#linear-gradient"/>
    <linearGradient id="linear-gradient-3" x1="-45.782" y1="-20.279" x2="-45.737" y2="-20.279" xlink:href="#linear-gradient"/>
    <linearGradient id="linear-gradient-4" x1="-47.763" y1="-18.307" x2="-47.717" y2="-18.307" xlink:href="#linear-gradient"/>
    <linearGradient id="linear-gradient-5" x1="-56.384" y1="-18.3" x2="-56.339" y2="-18.3" xlink:href="#linear-gradient"/>
    <linearGradient id="linear-gradient-6" x1="-50.399" y1="-27.138" x2="-50.353" y2="-27.138" xlink:href="#linear-gradient"/>
    <linearGradient id="linear-gradient-7" x1="-50.37" y1="-17.627" x2="-50.325" y2="-17.627" xlink:href="#linear-gradient"/>
  </defs>
  <g id="Grupo_86377" data-name="Grupo 86377" transform="translate(-390 -6385)">
    <rect id="Rectángulo_14855" data-name="Rectángulo 14855" width="820" height="726" transform="translate(390 6385)" fill="#f6f6f6"/>
    <g id="Grupo_83769" data-name="Grupo 83769" transform="translate(-203.185 5869.131)">
      <g id="Grupo_83690" data-name="Grupo 83690" transform="translate(806.915 805.688)">
        <path id="Trazado_112841" data-name="Trazado 112841" d="M912.972,823.713l1.1-39.57H794.67" transform="translate(-794.67 -784.143)" fill="none" stroke="#b7c2c5" stroke-linecap="round" stroke-linejoin="round" stroke-width="2.812" stroke-dasharray="0 6.561"/>
      </g>
      <g id="Grupo_83691" data-name="Grupo 83691" transform="translate(806.915 937.587)">
        <line id="Línea_188" data-name="Línea 188" x1="119.397" fill="none" stroke="#b7c2c5" stroke-linecap="round" stroke-linejoin="round" stroke-width="2.812" stroke-dasharray="0 6.561"/>
      </g>
      <g id="Grupo_83700" data-name="Grupo 83700" transform="translate(671.185 765.338)">
        <path id="Rectángulo_15562" data-name="Rectángulo 15562" d="M857.685,786.773v2.019c0,21.727-16.24,39.34-36.272,39.34H707.457c-20.032,0-36.272-17.613-36.272-39.34v-2.019c0-21.727,16.24-39.34,36.272-39.34H821.413C841.445,747.433,857.685,765.046,857.685,786.773Z" transform="translate(-671.185 -747.433)" fill="#cad3df" opacity="0.37" style="isolation: isolate"/>
        <g id="Grupo_83699" data-name="Grupo 83699" transform="translate(4.739 4.91)">
          <g id="Grupo_83695" data-name="Grupo 83695">
            <rect id="Rectángulo_14843" data-name="Rectángulo 14843" width="177.657" height="70.878" rx="31.435" fill="#cad3df"/>
            <rect id="Rectángulo_14844" data-name="Rectángulo 14844" width="168.452" height="61.674" rx="27.248" transform="translate(4.603 4.602)" fill="#f6f6f6" stroke="#fff" stroke-miterlimit="10" stroke-width="0.407"/>
          </g>
          <g id="Grupo_83696" data-name="Grupo 83696" transform="translate(63.284 21.648)">
            <g id="correo-2" style="isolation: isolate">
              <text id="correo" transform="translate(0 17)" fill="#12263f" font-size="16" font-family="Roboto-Bold, Roboto" font-weight="700" style="isolation: isolate"><tspan x="0" y="0">correo</tspan></text>
            </g>
          </g>
        </g>
      </g>
      <g id="Grupo_83709" data-name="Grupo 83709" transform="translate(671.185 897.859)">
        <path id="Rectángulo_15562-2" data-name="Rectángulo 15562" d="M857.685,907.339v2.019c0,21.727-16.24,39.34-36.272,39.34H707.457c-20.032,0-36.272-17.613-36.272-39.34v-2.019c0-21.727,16.24-39.34,36.272-39.34H821.413C841.445,868,857.685,885.612,857.685,907.339Z" transform="translate(-671.185 -867.999)" fill="#cad3df" opacity="0.37" style="isolation: isolate"/>
        <g id="Grupo_83705" data-name="Grupo 83705" transform="translate(4.739 4.91)">
          <g id="Grupo_83701" data-name="Grupo 83701">
            <rect id="Rectángulo_14845" data-name="Rectángulo 14845" width="177.657" height="70.878" rx="31.435" fill="#cad3df"/>
            <rect id="Rectángulo_14846" data-name="Rectángulo 14846" width="168.452" height="61.674" rx="27.248" transform="translate(4.603 4.602)" fill="#f6f6f6" stroke="#fff" stroke-miterlimit="10" stroke-width="0.407"/>
          </g>
          <g id="Grupo_83702" data-name="Grupo 83702" transform="translate(69.832 21.648)">
            <g id="edad-2" style="isolation: isolate">
              <text id="edad" transform="translate(0 17)" fill="#12263f" font-size="16" font-family="Roboto-Bold, Roboto" font-weight="700" style="isolation: isolate"><tspan x="0" y="0">edad</tspan></text>
            </g>
          </g>
        </g>
      </g>
      <path id="Trazado_112853" data-name="Trazado 112853" d="M953.922,785.541,917.3,682.143H861.67" transform="translate(18.888 11.431)" fill="none" stroke="#b7c2c5" stroke-linecap="round" stroke-linejoin="round" stroke-width="2.812" stroke-dasharray="0 6.561"/>
      <path id="Trazado_112854" data-name="Trazado 112854" d="M942.93,959.213l-16.65,62.575H861.67" transform="translate(18.888 38.905)" fill="none" stroke="#b7c2c5" stroke-linecap="round" stroke-linejoin="round" stroke-width="2.812" stroke-dasharray="0 6.561"/>
      <g id="Grupo_83718" data-name="Grupo 83718" transform="translate(738.697 653.358)">
        <path id="Rectángulo_15562-3" data-name="Rectángulo 15562" d="M919.1,684.9v2.019c0,21.727-16.239,39.34-36.272,39.34H768.877c-20.032,0-36.271-17.613-36.271-39.34V684.9c0-21.727,16.239-39.34,36.271-39.34H882.833C902.866,645.555,919.1,663.168,919.1,684.9Z" transform="translate(-732.606 -645.555)" fill="#cad3df" opacity="0.37" style="isolation: isolate"/>
        <g id="Grupo_83717" data-name="Grupo 83717" transform="translate(4.739 4.91)">
          <g id="Grupo_83713" data-name="Grupo 83713">
            <rect id="Rectángulo_14847" data-name="Rectángulo 14847" width="177.657" height="70.878" rx="31.435" fill="#cad3df"/>
            <rect id="Rectángulo_14848" data-name="Rectángulo 14848" width="168.452" height="61.674" rx="27.248" transform="translate(4.603 4.602)" fill="#f6f6f6" stroke="#fff" stroke-miterlimit="10" stroke-width="0.407"/>
          </g>
          <g id="Grupo_83714" data-name="Grupo 83714" transform="translate(53.135 21.648)">
            <g id="apellidos-2" style="isolation: isolate">
              <text id="apellidos" transform="translate(0 17)" fill="#12263f" font-size="16" font-family="Roboto-Bold, Roboto" font-weight="700" style="isolation: isolate"><tspan x="0" y="0">apellidos</tspan></text>
            </g>
          </g>
        </g>
      </g>
      <g id="Grupo_83736" data-name="Grupo 83736" transform="translate(910.993 653.358)">
        <g id="Grupo_83725" data-name="Grupo 83725" transform="translate(10.089 125.341)">
          <g id="Grupo_83719" data-name="Grupo 83719" transform="translate(49.693 17.842)">
            <path id="Trazado_112862" data-name="Trazado 112862" d="M1005.135,865.949a4.947,4.947,0,0,1-5.151-2.467L944.4,783.214a4.946,4.946,0,1,1,8.6-4.892l.04.07,55.588,80.269a4.945,4.945,0,0,1-3.486,7.287Z" transform="translate(-943.748 -775.821)" fill="#4dd0e1"/>
          </g>
          <g id="Grupo_83720" data-name="Grupo 83720" transform="translate(2.428 60.466)">
            <path id="Trazado_112863" data-name="Trazado 112863" d="M1006.354,864.717a4.937,4.937,0,0,1-1.782-.33L903.915,824.166a4.949,4.949,0,1,1,3.565-9.233l100.659,40.22a4.946,4.946,0,0,1-1.784,9.563Z" transform="translate(-900.747 -814.599)" fill="#4dd0e1"/>
          </g>
          <g id="Grupo_83721" data-name="Grupo 83721" transform="translate(0 126.341)">
            <path id="Trazado_112864" data-name="Trazado 112864" d="M903.492,911.571a4.946,4.946,0,0,1-1.9-9.514l104.087-27.143a4.947,4.947,0,1,1,3.8,9.133L905.392,911.189A4.971,4.971,0,0,1,903.492,911.571Z" transform="translate(-898.538 -874.532)" fill="#4dd0e1"/>
          </g>
          <g id="Grupo_83722" data-name="Grupo 83722" transform="translate(41.234 126.341)">
            <path id="Trazado_112865" data-name="Trazado 112865" d="M941,961.235a4.946,4.946,0,0,1-4.582-6.8l62.18-76.809a4.946,4.946,0,0,1,9.168,3.716h0l-62.18,76.809A4.948,4.948,0,0,1,941,961.235Z" transform="translate(-936.052 -874.532)" fill="#4dd0e1"/>
          </g>
          <g id="Grupo_83723" data-name="Grupo 83723" transform="translate(104.234 126.562)">
            <path id="Trazado_112866" data-name="Trazado 112866" d="M1002.869,978.673a4.946,4.946,0,0,1-9.5-1.969l1.382-97.061a4.946,4.946,0,1,1,9.893.071l-1.382,97.061A4.937,4.937,0,0,1,1002.869,978.673Z" transform="translate(-993.369 -874.732)" fill="#4dd0e1"/>
          </g>
          <g id="Grupo_83724" data-name="Grupo 83724" transform="translate(105.42)">
            <path id="Trazado_112867" data-name="Trazado 112867" d="M994.778,860.78a4.916,4.916,0,0,1-.33-1.782l.049-94.471a4.946,4.946,0,0,1,9.892.013l-.049,94.47a4.946,4.946,0,0,1-9.563,1.77Z" transform="translate(-994.448 -759.588)" fill="#4dd0e1"/>
          </g>
        </g>
        <g id="Grupo_83726" data-name="Grupo 83726" transform="translate(0 122.987)">
          <path id="Trazado_112868" data-name="Trazado 112868" d="M1000.274,757.454a5.439,5.439,0,0,1,5.7,5.17c0,.085.007.169.007.255h0a5.405,5.405,0,0,1-5.122,5.417,108.84,108.84,0,0,0-67.525,27.528l-8.367-7.079A119.671,119.671,0,0,1,1000.274,757.454Z" transform="translate(-885.829 -757.447)" fill="#4dd0e1"/>
          <path id="Trazado_112869" data-name="Trazado 112869" d="M1001.325,968.907a5.429,5.429,0,0,1-.58,10.842,119.777,119.777,0,0,1-80.527-36.357l8.279-7.062A108.944,108.944,0,0,0,1001.325,968.907Z" transform="translate(-886.299 -739.709)" fill="#4dd0e1"/>
          <path id="Trazado_112870" data-name="Trazado 112870" d="M889.623,859.4H900.5q-.284,3.944-.288,7.96a108.933,108.933,0,0,0,31.343,76.6l-8.279,7.062a119.753,119.753,0,0,1-33.921-83.659C889.357,864.69,889.452,862.034,889.623,859.4Z" transform="translate(-889.359 -747.337)" fill="#4dd0e1"/>
          <path id="Trazado_112871" data-name="Trazado 112871" d="M928.47,785.922,936.837,793a109.025,109.025,0,0,0-36.358,73.687H889.6A119.829,119.829,0,0,1,928.47,785.922Z" transform="translate(-889.335 -754.624)" fill="#4dd0e1"/>
        </g>
        <g id="Grupo_83735" data-name="Grupo 83735" transform="translate(1.034 132.612)">
          <g id="Grupo_83728" data-name="Grupo 83728" transform="translate(0 137.837)">
            <g id="Grupo_83727" data-name="Grupo 83727">
              <circle id="Elipse_4186" data-name="Elipse 4186" cx="12.128" cy="12.128" r="12.128" stroke="#fff" stroke-miterlimit="10" stroke-width="0.783" fill="url(#linear-gradient)"/>
              <circle id="Elipse_4187" data-name="Elipse 4187" cx="8.717" cy="8.717" r="8.717" transform="translate(3.411 3.412)" fill="#4dd0e1"/>
            </g>
          </g>
          <g id="Grupo_83730" data-name="Grupo 83730" transform="translate(40.366 191.38)">
            <g id="Grupo_83729" data-name="Grupo 83729">
              <circle id="Elipse_4188" data-name="Elipse 4188" cx="12.128" cy="12.128" r="12.128" stroke="#fff" stroke-miterlimit="10" stroke-width="0.783" fill="url(#linear-gradient-2)"/>
              <circle id="Elipse_4189" data-name="Elipse 4189" cx="8.714" cy="8.714" r="8.714" transform="translate(3.411 3.418)" fill="#4dd0e1"/>
            </g>
          </g>
          <g id="Grupo_83732" data-name="Grupo 83732" transform="translate(4.649 47.833)">
            <g id="Grupo_83731" data-name="Grupo 83731">
              <circle id="Elipse_4190" data-name="Elipse 4190" cx="12.128" cy="12.128" r="12.128" stroke="#fff" stroke-miterlimit="10" stroke-width="0.783" fill="url(#linear-gradient-3)"/>
              <circle id="Elipse_4191" data-name="Elipse 4191" cx="8.717" cy="8.717" r="8.717" transform="translate(3.411 3.412)" fill="#4dd0e1"/>
            </g>
          </g>
          <g id="Grupo_83734" data-name="Grupo 83734" transform="translate(48.692)">
            <g id="Grupo_83733" data-name="Grupo 83733">
              <circle id="Elipse_4192" data-name="Elipse 4192" cx="12.128" cy="12.128" r="12.128" stroke="#fff" stroke-miterlimit="10" stroke-width="0.783" fill="url(#linear-gradient-4)"/>
              <circle id="Elipse_4193" data-name="Elipse 4193" cx="8.717" cy="8.717" r="8.717" transform="translate(3.411 3.412)" fill="#4dd0e1"/>
            </g>
          </g>
        </g>
        <g id="Grupo_83867" data-name="Grupo 83867" transform="translate(119.69)">
          <g id="Grupo_83808" data-name="Grupo 83808" transform="translate(0 122.815)">
            <path id="Trazado_112913" data-name="Trazado 112913" d="M1003.955,757.3a5.441,5.441,0,0,0-5.7,5.17c0,.085-.005.17-.005.255h0a5.4,5.4,0,0,0,5.122,5.417,108.647,108.647,0,0,1,50.639,15.168c6.025,3.582,12.96-4.879,6.1-9.013A119.489,119.489,0,0,0,1003.955,757.3Z" transform="translate(-998.251 -757.29)" fill="#4dd0e1"/>
          </g>
          <g id="Grupo_83801" data-name="Grupo 83801" transform="translate(12.28 143.011)">
            <path id="Trazado_112903" data-name="Trazado 112903" d="M1013.539,852.933a4.946,4.946,0,0,0,5.149-2.466l38.173-67.409a4.946,4.946,0,0,0-8.6-4.891l-.038.069-38.173,67.41a4.946,4.946,0,0,0,3.488,7.287Z" transform="translate(-1009.423 -775.664)" fill="#4dd0e1"/>
          </g>
          <g id="Grupo_83866" data-name="Grupo 83866" transform="translate(46.164)">
            <path id="Trazado_112923" data-name="Trazado 112923" d="M1051.32,785.384l36.622-103.4h55.629" transform="translate(-1039.153 -641.943)" fill="none" stroke="#b7c2c5" stroke-linecap="round" stroke-linejoin="round" stroke-width="2.812" stroke-dasharray="0 6.561"/>
            <g id="Grupo_83861" data-name="Grupo 83861" transform="translate(72.726)">
              <path id="Rectángulo_15562-4" data-name="Rectángulo 15562" d="M1292.915,684.9v2.019c0,21.727-16.239,39.34-36.271,39.34H1142.688c-20.033,0-36.272-17.613-36.272-39.34V684.9c0-21.727,16.239-39.34,36.272-39.34h113.955C1276.676,645.555,1292.915,663.168,1292.915,684.9Z" transform="translate(-1106.416 -645.555)" fill="#cad3df" opacity="0.37" style="isolation: isolate"/>
              <g id="Grupo_83860" data-name="Grupo 83860" transform="translate(4.101 4.91)">
                <g id="Grupo_83856" data-name="Grupo 83856">
                  <rect id="Rectángulo_14868" data-name="Rectángulo 14868" width="177.657" height="70.878" rx="31.435" fill="#cad3df"/>
                  <rect id="Rectángulo_14869" data-name="Rectángulo 14869" width="168.452" height="61.674" rx="27.248" transform="translate(4.603 4.602)" fill="#f6f6f6" stroke="#fff" stroke-miterlimit="10" stroke-width="0.407"/>
                </g>
                <g id="Grupo_83857" data-name="Grupo 83857" transform="translate(38.402 21.648)">
                  <g id="id_personas" data-name="id  personas" style="isolation: isolate">
                    <text id="id__personas" data-name="id_ personas" transform="translate(0 17)" fill="#12263f" font-size="16" font-family="Roboto-Bold, Roboto" font-weight="700" style="isolation: isolate"><tspan x="0" y="0">id_ personas</tspan></text>
                  </g>
                </g>
              </g>
            </g>
            <g id="Grupo_83865" data-name="Grupo 83865" transform="translate(0 132.441)">
              <g id="Grupo_83864" data-name="Grupo 83864">
                <g id="Grupo_83863" data-name="Grupo 83863">
                  <g id="Grupo_83862" data-name="Grupo 83862">
                    <circle id="Elipse_4250" data-name="Elipse 4250" cx="12.128" cy="12.128" r="12.128" stroke="#fff" stroke-miterlimit="10" stroke-width="0.783" fill="url(#linear-gradient-5)"/>
                    <circle id="Elipse_4251" data-name="Elipse 4251" cx="8.717" cy="8.717" r="8.717" transform="translate(3.412 3.412)" fill="#4dd0e1"/>
                  </g>
                </g>
              </g>
            </g>
          </g>
        </g>
      </g>
      <g id="Grupo_83745" data-name="Grupo 83745" transform="translate(738.697 1020.477)">
        <path id="Rectángulo_15562-5" data-name="Rectángulo 15562" d="M919.1,1018.9v2.019c0,21.727-16.239,39.34-36.272,39.34H768.877c-20.032,0-36.271-17.613-36.271-39.34V1018.9c0-21.727,16.239-39.34,36.271-39.34H882.833C902.866,979.555,919.1,997.168,919.1,1018.9Z" transform="translate(-732.606 -979.555)" fill="#cad3df" opacity="0.37" style="isolation: isolate"/>
        <g id="Grupo_83744" data-name="Grupo 83744" transform="translate(4.739 4.91)">
          <g id="Grupo_83740" data-name="Grupo 83740">
            <rect id="Rectángulo_14849" data-name="Rectángulo 14849" width="177.657" height="70.878" rx="31.435" fill="#cad3df"/>
            <rect id="Rectángulo_14850" data-name="Rectángulo 14850" width="168.452" height="61.674" rx="27.248" transform="translate(4.603 4.602)" fill="#f6f6f6" stroke="#fff" stroke-miterlimit="10" stroke-width="0.407"/>
          </g>
          <g id="Grupo_83741" data-name="Grupo 83741" transform="translate(72.64 21.648)">
            <g id="pais-2" style="isolation: isolate">
              <text id="pais" transform="translate(0 17)" fill="#12263f" font-size="16" font-family="Roboto-Bold, Roboto" font-weight="700" style="isolation: isolate"><tspan x="0" y="0">pais</tspan></text>
            </g>
          </g>
        </g>
      </g>
      <line id="Línea_189" data-name="Línea 189" x2="0.322" y2="115.618" transform="translate(1031.065 1019.002)" fill="none" stroke="#b7c2c5" stroke-linecap="round" stroke-linejoin="round" stroke-width="2.812" stroke-dasharray="0 6.561"/>
      <line id="Línea_190" data-name="Línea 190" x2="0.322" y2="194.551" transform="translate(1031.065 587.032)" fill="none" stroke="#b7c2c5" stroke-linecap="round" stroke-linejoin="round" stroke-width="2.812" stroke-dasharray="0 6.561"/>
      <g id="Grupo_83755" data-name="Grupo 83755" transform="translate(937.977 1109.676)">
        <path id="Rectángulo_15562-6" data-name="Rectángulo 15562" d="M1100.407,1100.047v2.019c0,21.727-16.239,39.34-36.271,39.34H950.18c-20.033,0-36.272-17.613-36.272-39.34v-2.019c0-21.727,16.239-39.34,36.272-39.34h113.955C1084.168,1060.707,1100.407,1078.32,1100.407,1100.047Z" transform="translate(-913.908 -1060.707)" fill="#cad3df" opacity="0.37" style="isolation: isolate"/>
        <g id="Grupo_83754" data-name="Grupo 83754" transform="translate(4.739 4.91)">
          <g id="Grupo_83750" data-name="Grupo 83750">
            <rect id="Rectángulo_14851" data-name="Rectángulo 14851" width="177.657" height="70.878" rx="31.435" fill="#cad3df"/>
            <rect id="Rectángulo_14852" data-name="Rectángulo 14852" width="168.452" height="61.674" rx="27.248" transform="translate(4.603 4.602)" fill="#f6f6f6" stroke="#fff" stroke-miterlimit="10" stroke-width="0.407"/>
          </g>
          <g id="Grupo_83751" data-name="Grupo 83751" transform="translate(34.926 21.648)">
            <g id="identificación-2" style="isolation: isolate">
              <text id="identificación" transform="translate(0 17)" fill="#12263f" font-size="16" font-family="Roboto-Bold, Roboto" font-weight="700" style="isolation: isolate"><tspan x="0" y="0">identificación</tspan></text>
            </g>
          </g>
        </g>
      </g>
      <g id="Grupo_83757" data-name="Grupo 83757" transform="translate(1019.346 1000.16)">
        <g id="Grupo_83756" data-name="Grupo 83756">
          <circle id="Elipse_4204" data-name="Elipse 4204" cx="12.128" cy="12.128" r="12.128" stroke="#fff" stroke-miterlimit="10" stroke-width="0.783" fill="url(#linear-gradient-6)"/>
          <circle id="Elipse_4205" data-name="Elipse 4205" cx="8.717" cy="8.717" r="8.717" transform="translate(3.411 3.411)" fill="#4dd0e1"/>
        </g>
      </g>
      <g id="Grupo_83766" data-name="Grupo 83766" transform="translate(937.977 566.869)">
        <path id="Rectángulo_15562-7" data-name="Rectángulo 15562" d="M1100.407,606.209v2.019c0,21.727-16.239,39.34-36.271,39.34H950.18c-20.033,0-36.272-17.613-36.272-39.34v-2.019c0-21.727,16.239-39.34,36.272-39.34h113.955C1084.168,566.869,1100.407,584.482,1100.407,606.209Z" transform="translate(-913.908 -566.869)" fill="#cad3df" opacity="0.37" style="isolation: isolate"/>
        <g id="Grupo_83765" data-name="Grupo 83765" transform="translate(4.739 4.91)">
          <g id="Grupo_83761" data-name="Grupo 83761">
            <rect id="Rectángulo_14853" data-name="Rectángulo 14853" width="177.657" height="70.878" rx="31.435" fill="#cad3df"/>
            <rect id="Rectángulo_14854" data-name="Rectángulo 14854" width="168.452" height="61.674" rx="27.248" transform="translate(4.603 4.602)" fill="#f6f6f6" stroke="#fff" stroke-miterlimit="10" stroke-width="0.407"/>
          </g>
          <g id="Grupo_83762" data-name="Grupo 83762" transform="translate(54.135 21.648)">
            <g id="nombres-2" style="isolation: isolate">
              <text id="nombres" transform="translate(0 17)" fill="#12263f" font-size="16" font-family="Roboto-Bold, Roboto" font-weight="700" style="isolation: isolate"><tspan x="0" y="0">nombres</tspan></text>
            </g>
          </g>
        </g>
      </g>
      <g id="Grupo_83768" data-name="Grupo 83768" transform="translate(1018.706 769.467)">
        <g id="Grupo_83767" data-name="Grupo 83767">
          <circle id="Elipse_4211" data-name="Elipse 4211" cx="12.128" cy="12.128" r="12.128" stroke="#fff" stroke-miterlimit="10" stroke-width="0.783" fill="url(#linear-gradient-7)"/>
          <circle id="Elipse_4212" data-name="Elipse 4212" cx="8.717" cy="8.717" r="8.717" transform="translate(3.411 3.411)" fill="#4dd0e1"/>
        </g>
      </g>
      <g id="Grupo_86403" data-name="Grupo 86403" transform="translate(947.422 849.825)">
        <g id="Grupo_86402" data-name="Grupo 86402">
          <rect id="Rectángulo_15593" data-name="Rectángulo 15593" width="168.446" height="97.582" fill="none" stroke="#b7c2c5" stroke-linecap="round" stroke-linejoin="round" stroke-width="2.812" stroke-dasharray="0 6.561"/>
          <rect id="Rectángulo_15594" data-name="Rectángulo 15594" width="150.962" height="82.699" transform="translate(8.608 7.649)" fill="#cad3df"/>
          <rect id="Rectángulo_15595" data-name="Rectángulo 15595" width="133.211" height="64.948" transform="translate(17.484 16.524)" fill="#f6f6f6" stroke="#fff" stroke-miterlimit="10" stroke-width="0.469"/>
        </g>
        <g id="Grupo_86372" data-name="Grupo 86372" transform="translate(34.434 32.133)">
          <g id="PERSONA" style="isolation: isolate">
            <text id="PERSONA-2" data-name="PERSONA" transform="translate(0 21)" fill="#12263f" font-size="20" font-family="Roboto-Bold, Roboto" font-weight="700" style="isolation: isolate"><tspan x="0" y="0">PERSONA</tspan></text>
          </g>
        </g>
      </g>
    </g>
    <path id="Trazado_116160" data-name="Trazado 116160" d="M-4213.056-7574.3h91.51" transform="translate(5201 14149)" fill="none" stroke="#13273e" stroke-width="1"/>
  </g>
</svg>
