<svg xmlns="http://www.w3.org/2000/svg" xmlns:xlink="http://www.w3.org/1999/xlink" width="820" height="825" viewBox="0 0 820 825">
  <defs>
    <linearGradient id="linear-gradient" x1="-210.371" y1="21.846" x2="-210.306" y2="21.846" gradientUnits="objectBoundingBox">
      <stop offset="0" stop-color="#fff"/>
      <stop offset="1" stop-color="#d5d5d5"/>
    </linearGradient>
    <linearGradient id="linear-gradient-2" x1="-212.167" y1="17.008" x2="-212.102" y2="17.008" xlink:href="#linear-gradient"/>
    <linearGradient id="linear-gradient-3" x1="-210.503" y1="22.926" x2="-210.438" y2="22.926" xlink:href="#linear-gradient"/>
    <linearGradient id="linear-gradient-4" x1="-215.285" y1="16.068" x2="-215.22" y2="16.068" xlink:href="#linear-gradient"/>
    <linearGradient id="linear-gradient-5" x1="-191.168" y1="37.199" x2="-191.108" y2="37.199" xlink:href="#linear-gradient"/>
    <linearGradient id="linear-gradient-6" x1="-193.202" y1="39.171" x2="-193.142" y2="39.171" xlink:href="#linear-gradient"/>
    <linearGradient id="linear-gradient-7" x1="-195.879" y1="39.851" x2="-195.819" y2="39.851" xlink:href="#linear-gradient"/>
    <linearGradient id="linear-gradient-8" x1="-201.173" y1="39.171" x2="-201.113" y2="39.171" xlink:href="#linear-gradient"/>
    <linearGradient id="linear-gradient-9" x1="-228.215" y1="34.62" x2="-228.15" y2="34.62" xlink:href="#linear-gradient"/>
  </defs>
  <g id="Grupo_85595" data-name="Grupo 85595" transform="translate(-390 -8386)">
    <rect id="Rectángulo_15324" data-name="Rectángulo 15324" width="820" height="825" transform="translate(390 8386)" fill="#f6f6f6"/>
  </g>
  <g id="Grupo_85452" data-name="Grupo 85452" transform="translate(-2824.684 453.839)">
    <g id="Grupo_85518" data-name="Grupo 85518" transform="translate(3003.271 -117.314)">
      <g id="Grupo_85517" data-name="Grupo 85517">
        <g id="Grupo_85516" data-name="Grupo 85516">
          <line id="Línea_278" data-name="Línea 278" x1="78.649" transform="translate(352.699 125.281)" fill="none" stroke="#cad3df" stroke-linecap="round" stroke-linejoin="round" stroke-width="9"/>
          <line id="Línea_279" data-name="Línea 279" x1="35.523" y2="96.207" transform="translate(317.175 125.281)" fill="none" stroke="#cad3df" stroke-linecap="round" stroke-linejoin="round" stroke-width="9"/>
          <g id="Grupo_85452-2" data-name="Grupo 85452-2" transform="translate(224.748 106.556)">
            <line id="Línea_280" data-name="Línea 280" x2="54.789" y2="131.705" fill="none" stroke="#cad3df" stroke-linecap="round" stroke-linejoin="round" stroke-width="9"/>
          </g>
          <g id="Grupo_85510" data-name="Grupo 85510" transform="translate(0 144.164)">
            <g id="Grupo_85509" data-name="Grupo 85509" transform="translate(0 0)">
              <g id="Grupo_85453" data-name="Grupo 85453" transform="translate(97.616 28.297)">
                <path id="Trazado_115256" data-name="Trazado 115256" d="M3167.149,31.875l.789-28.313h-85.433" transform="translate(-3082.505 -3.562)" fill="none" stroke="#b7c2c5" stroke-linecap="round" stroke-linejoin="round" stroke-width="2.812" stroke-dasharray="0 6.561"/>
              </g>
              <g id="Grupo_85454" data-name="Grupo 85454" transform="translate(97.614 122.672)">
                <line id="Línea_281" data-name="Línea 281" x1="85.433" fill="none" stroke="#b7c2c5" stroke-linecap="round" stroke-linejoin="round" stroke-width="2.812" stroke-dasharray="0 6.561"/>
              </g>
              <g id="Grupo_85463" data-name="Grupo 85463">
                <path id="Rectángulo_15562" data-name="Rectángulo 15562" d="M3130.741,6.9V8.359c0,15.711-11.743,28.446-26.228,28.446h-82.4c-14.486,0-26.228-12.735-26.228-28.446V6.9c0-15.711,11.743-28.446,26.228-28.446h82.4C3119-21.548,3130.741-8.813,3130.741,6.9Z" transform="translate(-2995.884 21.548)" fill="#cad3df" opacity="0.37" style="isolation: isolate"/>
                <g id="Grupo_85462" data-name="Grupo 85462" transform="translate(3.393 4.119)">
                  <g id="Grupo_85458" data-name="Grupo 85458">
                    <path id="Rectángulo_15406" data-name="Rectángulo 15406" d="M3126.013,4.035V10.9a21.928,21.928,0,0,1-21.927,21.922h-83.266A21.928,21.928,0,0,1,2998.9,10.9V4.035a21.928,21.928,0,0,1,21.926-21.928h83.265a21.929,21.929,0,0,1,21.928,21.928Z" transform="translate(-2998.895 17.893)" fill="#cad3df"/>
                    <rect id="Rectángulo_15407" data-name="Rectángulo 15407" width="120.533" height="44.13" rx="16.931" transform="translate(3.291 3.293)" fill="#f6f6f6" stroke="#fff" stroke-miterlimit="10" stroke-width="0.407"/>
                  </g>
                  <g id="Grupo_85459" data-name="Grupo 85459" transform="translate(38.019 15.339)">
                    <g id="apellidos" transform="translate(0 0)" style="isolation: isolate">
                      <text id="apellidos-2" data-name="apellidos" transform="translate(0 13)" fill="#12263f" font-size="12" font-family="Roboto-Bold, Roboto" font-weight="700" style="isolation: isolate"><tspan x="0" y="0">apellidos</tspan></text>
                    </g>
                  </g>
                </g>
              </g>
              <g id="Grupo_85472" data-name="Grupo 85472" transform="translate(0 93.891)">
                <path id="Rectángulo_15562-2" data-name="Rectángulo 15562" d="M3130.741,90.214v1.461c0,15.711-11.743,28.446-26.228,28.446h-82.4c-14.486,0-26.228-12.735-26.228-28.446V90.214c0-15.711,11.743-28.446,26.228-28.446h82.4C3119,61.768,3130.741,74.5,3130.741,90.214Z" transform="translate(-2995.884 -61.768)" fill="#cad3df" opacity="0.37" style="isolation: isolate"/>
                <g id="Grupo_85468" data-name="Grupo 85468" transform="translate(3.393 4.12)">
                  <g id="Grupo_85464" data-name="Grupo 85464">
                    <path id="Rectángulo_15408" data-name="Rectángulo 15408" d="M3126.013,87.352v6.862a21.928,21.928,0,0,1-21.927,21.922h-83.266A21.928,21.928,0,0,1,2998.9,94.213V87.352a21.928,21.928,0,0,1,21.926-21.928h83.265a21.929,21.929,0,0,1,21.928,21.928Z" transform="translate(-2998.895 -65.424)" fill="#cad3df"/>
                    <rect id="Rectángulo_15409" data-name="Rectángulo 15409" width="120.533" height="44.13" rx="16.931" transform="translate(3.291 3.293)" fill="#f6f6f6" stroke="#fff" stroke-miterlimit="10" stroke-width="0.407"/>
                  </g>
                  <g id="Grupo_85465" data-name="Grupo 85465" transform="translate(45.281 15.338)">
                    <g id="correo" style="isolation: isolate">
                      <text id="correo-2" data-name="correo" transform="translate(0 13)" fill="#12263f" font-size="12" font-family="Roboto-Bold, Roboto" font-weight="700" style="isolation: isolate"><tspan x="0" y="0">correo</tspan></text>
                    </g>
                  </g>
                </g>
              </g>
              <path id="Trazado_115269" data-name="Trazado 115269" d="M3187.407,125.74l-11.914,44.774h-46.231" transform="translate(-2978.954 40.244)" fill="none" stroke="#b7c2c5" stroke-linecap="round" stroke-linejoin="round" stroke-width="2.812" stroke-dasharray="0 6.561"/>
              <g id="Grupo_85487" data-name="Grupo 85487" transform="translate(172.084 48.412)">
                <g id="Grupo_85477" data-name="Grupo 85477" transform="translate(7.226 3.84)">
                  <g id="Grupo_85473" data-name="Grupo 85473" transform="translate(1.73)">
                    <path id="Trazado_115270" data-name="Trazado 115270" d="M3233.731,77.918a3.5,3.5,0,0,1-1.274-.24L3158.8,31.66a3.539,3.539,0,1,1,2.55-6.6l73.66,46.019a3.54,3.54,0,0,1-1.278,6.842Z" transform="translate(-3156.532 -24.818)" fill="#4dd0e1"/>
                  </g>
                  <g id="Grupo_85474" data-name="Grupo 85474" transform="translate(0 45.648)">
                    <path id="Trazado_115271" data-name="Trazado 115271" d="M3158.537,93.31a3.54,3.54,0,0,1-1.362-6.807L3231.237,65.6a3.54,3.54,0,1,1,2.723,6.536L3159.9,93.04A3.521,3.521,0,0,1,3158.537,93.31Z" transform="translate(-3154.997 -65.325)" fill="#4dd0e1"/>
                  </g>
                  <g id="Grupo_85475" data-name="Grupo 85475" transform="translate(29.501 45.966)">
                    <path id="Trazado_115272" data-name="Trazado 115272" d="M3184.713,128.814a3.542,3.542,0,0,1-3.279-4.869l45.912-56.127a3.539,3.539,0,0,1,6.56,2.658L3187.993,126.6A3.539,3.539,0,0,1,3184.713,128.814Z" transform="translate(-3181.175 -65.607)" fill="#4dd0e1"/>
                  </g>
                  <g id="Grupo_85476" data-name="Grupo 85476" transform="translate(74.579 47.27)">
                    <path id="Trazado_115273" data-name="Trazado 115273" d="M3227.974,141.156a3.54,3.54,0,0,1-6.8-1.409l.573-69.469a3.54,3.54,0,1,1,7.079.051h0l-.574,69.469A3.532,3.532,0,0,1,3227.974,141.156Z" transform="translate(-3221.176 -66.764)" fill="#4dd0e1"/>
                  </g>
                </g>
                <g id="Grupo_85479" data-name="Grupo 85479" transform="translate(0 8.272)">
                  <path id="Trazado_115274" data-name="Trazado 115274" d="M3228.158,133.081a3.885,3.885,0,0,1-.415,7.758,85.7,85.7,0,0,1-57.62-26.015l5.924-5.053A77.952,77.952,0,0,0,3228.158,133.081Z" transform="translate(-3145.851 -18.467)" fill="#4dd0e1"/>
                  <path id="Trazado_115275" data-name="Trazado 115275" d="M3148.778,56.086h7.782q-.2,2.818-.206,5.694a77.947,77.947,0,0,0,22.426,54.808l-5.924,5.053a85.679,85.679,0,0,1-24.271-59.861C3148.586,59.862,3148.654,57.965,3148.778,56.086Z" transform="translate(-3148.585 -25.281)" fill="#4dd0e1"/>
                  <path id="Trazado_115277" data-name="Trazado 115277" d="M3156.683,28.751a85.465,85.465,0,0,0-7.927,30.8h7.782a77.679,77.679,0,0,1,8.843-30.8Z" transform="translate(-3148.563 -28.751)" fill="#4dd0e1"/>
                </g>
                <g id="Grupo_85486" data-name="Grupo 85486" transform="translate(0.741)">
                  <g id="Grupo_85481" data-name="Grupo 85481" transform="translate(0 64.401)">
                    <g id="Grupo_85480" data-name="Grupo 85480">
                      <circle id="Elipse_4715" data-name="Elipse 4715" cx="8.679" cy="8.679" r="8.679" stroke="#fff" stroke-miterlimit="10" stroke-width="0.783" fill="url(#linear-gradient)"/>
                      <circle id="Elipse_4716" data-name="Elipse 4716" cx="6.238" cy="6.238" r="6.238" transform="translate(2.441 2.44)" fill="#4dd0e1"/>
                    </g>
                  </g>
                  <g id="Grupo_85483" data-name="Grupo 85483" transform="translate(28.884 102.713)">
                    <g id="Grupo_85482" data-name="Grupo 85482">
                      <circle id="Elipse_4717" data-name="Elipse 4717" cx="8.679" cy="8.679" r="8.679" stroke="#fff" stroke-miterlimit="10" stroke-width="0.783" fill="url(#linear-gradient-2)"/>
                      <path id="Trazado_115278" data-name="Trazado 115278" d="M3185.292,115.055a6.238,6.238,0,1,0,3.888,7.919h0A6.238,6.238,0,0,0,3185.292,115.055Z" transform="translate(-3174.599 -112.28)" fill="#4dd0e1"/>
                    </g>
                  </g>
                  <g id="Grupo_85485" data-name="Grupo 85485" transform="translate(3.327)">
                    <g id="Grupo_85484" data-name="Grupo 85484">
                      <circle id="Elipse_4718" data-name="Elipse 4718" cx="8.679" cy="8.679" r="8.679" stroke="#fff" stroke-miterlimit="10" stroke-width="0.783" fill="url(#linear-gradient-3)"/>
                      <path id="Trazado_115279" data-name="Trazado 115279" d="M3154.362,29.815a6.237,6.237,0,1,0,6.238-6.238,6.237,6.237,0,0,0-6.238,6.238Z" transform="translate(-3151.92 -21.136)" fill="#4dd0e1"/>
                    </g>
                  </g>
                </g>
              </g>
              <g id="Grupo_85496" data-name="Grupo 85496" transform="translate(42.7 181.424)">
                <path id="Rectángulo_15562-3" data-name="Rectángulo 15562" d="M3168.63,167.887v1.46c0,15.711-11.742,28.446-26.227,28.446H3060c-14.484,0-26.227-12.735-26.227-28.446v-1.46c0-15.711,11.743-28.446,26.227-28.446h82.4C3156.888,139.441,3168.63,152.176,3168.63,167.887Z" transform="translate(-3033.775 -139.441)" fill="#cad3df" opacity="0.37" style="isolation: isolate"/>
                <g id="Grupo_85495" data-name="Grupo 85495" transform="translate(3.392 4.12)">
                  <g id="Grupo_85491" data-name="Grupo 85491">
                    <rect id="Rectángulo_15410" data-name="Rectángulo 15410" width="127.119" height="50.716" rx="19.458" fill="#cad3df"/>
                    <rect id="Rectángulo_15411" data-name="Rectángulo 15411" width="120.533" height="44.13" rx="16.931" transform="translate(3.293 3.293)" fill="#f6f6f6" stroke="#fff" stroke-miterlimit="10" stroke-width="0.407"/>
                  </g>
                  <g id="Grupo_85492" data-name="Grupo 85492" transform="translate(49.967 15.338)">
                    <g id="edad" style="isolation: isolate">
                      <text id="edad-2" data-name="edad" transform="translate(0 13)" fill="#12263f" font-size="12" font-family="Roboto-Bold, Roboto" font-weight="700" style="isolation: isolate"><tspan x="0" y="0">edad</tspan></text>
                    </g>
                  </g>
                </g>
              </g>
              <line id="Línea_282" data-name="Línea 282" x2="0.231" y2="82.729" transform="translate(258.001 180.927)" fill="none" stroke="#b7c2c5" stroke-linecap="round" stroke-linejoin="round" stroke-width="2.812" stroke-dasharray="0 6.561"/>
              <g id="Grupo_85506" data-name="Grupo 85506" transform="translate(190.615 235.215)">
                <path id="Rectángulo_15562-4" data-name="Rectángulo 15562" d="M3299.885,215.62v1.461c0,15.711-11.743,28.446-26.228,28.446h-82.4c-14.486,0-26.228-12.735-26.228-28.446V215.62c0-15.711,11.742-28.446,26.228-28.446h82.4C3288.143,187.174,3299.885,199.909,3299.885,215.62Z" transform="translate(-3165.029 -187.174)" fill="#cad3df" opacity="0.37" style="isolation: isolate"/>
                <g id="Grupo_85505" data-name="Grupo 85505" transform="translate(3.392 4.123)">
                  <g id="Grupo_85501" data-name="Grupo 85501">
                    <rect id="Rectángulo_15412" data-name="Rectángulo 15412" width="127.119" height="50.716" rx="19.458" fill="#cad3df"/>
                    <rect id="Rectángulo_15413" data-name="Rectángulo 15413" width="120.533" height="44.13" rx="16.931" transform="translate(3.293 3.294)" fill="#f6f6f6" stroke="#fff" stroke-miterlimit="10" stroke-width="0.407"/>
                  </g>
                  <g id="Grupo_85502" data-name="Grupo 85502" transform="translate(51.976 15.338)">
                    <g id="pais" style="isolation: isolate">
                      <text id="pais-2" data-name="pais" transform="translate(0 13)" fill="#12263f" font-size="12" font-family="Roboto-Bold, Roboto" font-weight="700" style="isolation: isolate"><tspan x="0" y="0">pais</tspan></text>
                    </g>
                  </g>
                </g>
              </g>
              <g id="Grupo_85508" data-name="Grupo 85508" transform="translate(249.616 167.445)">
                <g id="Grupo_85507" data-name="Grupo 85507">
                  <circle id="Elipse_4722" data-name="Elipse 4722" cx="8.679" cy="8.679" r="8.679" stroke="#fff" stroke-miterlimit="10" stroke-width="0.783" fill="url(#linear-gradient-4)"/>
                  <path id="Trazado_115293" data-name="Trazado 115293" d="M3227.8,129.537a6.238,6.238,0,1,0,3.889,7.918,6.238,6.238,0,0,0-3.889-7.918Z" transform="translate(-3217.11 -126.762)" fill="#4dd0e1"/>
                </g>
              </g>
              <g id="Grupo_86434" data-name="Grupo 86434" transform="translate(221.134 64.575)">
                <g id="Grupo_86433" data-name="Grupo 86433">
                  <rect id="Rectángulo_15644" data-name="Rectángulo 15644" width="124.538" height="72.145" fill="none" stroke="#b7c2c5" stroke-linecap="round" stroke-linejoin="round" stroke-width="2.812" stroke-dasharray="0 6.561"/>
                  <rect id="Rectángulo_15645" data-name="Rectángulo 15645" width="111.612" height="61.142" transform="translate(6.364 5.655)" fill="#cad3df"/>
                  <rect id="Rectángulo_15646" data-name="Rectángulo 15646" width="98.488" height="48.018" transform="translate(12.926 12.217)" fill="#f6f6f6" stroke="#fff" stroke-miterlimit="10" stroke-width="0.469"/>
                </g>
                <g id="Grupo_86372" data-name="Grupo 86372" transform="translate(25.457 23.918)">
                  <g id="PERSONA" style="isolation: isolate">
                    <text id="PERSONA-2" data-name="PERSONA" transform="translate(0 17)" fill="#12263f" font-size="16" font-family="Roboto-Bold, Roboto" font-weight="700" style="isolation: isolate"><tspan x="0" y="0">PERSONA</tspan></text>
                  </g>
                </g>
              </g>
            </g>
          </g>
          <g id="Grupo_85511" data-name="Grupo 85511" transform="translate(234.789)">
            <line id="Línea_283" data-name="Línea 283" x1="0.411" y2="102.401" fill="none" stroke="#cad3df" stroke-linecap="round" stroke-linejoin="round" stroke-width="9"/>
          </g>
        </g>
        <g id="_1-3" data-name=" 1-3" transform="translate(287.723 154.936)" style="isolation: isolate">
          <text id="_1" data-name="1" transform="translate(0 17)" fill="#12263f" font-size="16" font-family="Roboto-Bold, Roboto" font-weight="700" style="isolation: isolate"><tspan x="0" y="0">1</tspan></text>
        </g>
        <g id="_1-4" data-name=" 1-4" transform="translate(473.519 17.076)" style="isolation: isolate">
          <text id="_1-2" data-name="1" transform="translate(0 17)" fill="#12263f" font-size="16" font-family="Roboto-Bold, Roboto" font-weight="700" style="isolation: isolate"><tspan x="0" y="0">1</tspan></text>
        </g>
        <g id="_1-5" data-name=" 1-5" transform="translate(246.27 31.52)" style="isolation: isolate">
          <text id="_1-3-2" data-name="1" transform="translate(0 17)" fill="#12263f" font-size="16" font-family="Roboto-Bold, Roboto" font-weight="700" style="isolation: isolate"><tspan x="0" y="0">1</tspan></text>
        </g>
        <g id="_1-6" data-name=" 1-6" transform="translate(227.292 178.767)" style="isolation: isolate">
          <text id="_1-4-2" data-name="1" transform="translate(0 17)" fill="#12263f" font-size="16" font-family="Roboto-Bold, Roboto" font-weight="700" style="isolation: isolate"><tspan x="0" y="0">1</tspan></text>
        </g>
      </g>
    </g>
    <g id="Grupo_85578" data-name="Grupo 85578" transform="translate(2937.684 -402.839)">
      <g id="Grupo_85563" data-name="Grupo 85563">
        <g id="Grupo_85519" data-name="Grupo 85519" transform="translate(108.654 196.059)">
          <path id="Trazado_115294" data-name="Trazado 115294" d="M3125.7-198.223l.851-30.64H3034.1" transform="translate(-3034.1 228.863)" fill="none" stroke="#bfc3c5" stroke-linecap="round" stroke-linejoin="round" stroke-width="2.812" stroke-dasharray="0 6.561"/>
        </g>
        <g id="Grupo_85528" data-name="Grupo 85528" transform="translate(0 164.495)">
          <path id="Rectángulo_15562-5" data-name="Rectángulo 15562" d="M3083.58-226.1v1.58c0,17-12.7,30.775-28.375,30.775h-89.146c-15.671,0-28.375-13.779-28.375-30.775v-1.58c0-17,12.7-30.775,28.375-30.775h89.146C3070.876-256.872,3083.58-243.093,3083.58-226.1Z" transform="translate(-2937.684 256.872)" fill="#cad3df" opacity="0.37" style="isolation: isolate"/>
          <g id="Grupo_85527" data-name="Grupo 85527" transform="translate(3.669 4.446)">
            <g id="Grupo_85523" data-name="Grupo 85523">
              <rect id="Rectángulo_15414" data-name="Rectángulo 15414" width="137.567" height="54.884" rx="21.057" fill="#d5d9df"/>
              <rect id="Rectángulo_15415" data-name="Rectángulo 15415" width="130.439" height="47.756" rx="18.322" transform="translate(3.565 3.564)" fill="#f6f6f6" stroke="#fff" stroke-miterlimit="10" stroke-width="0.407"/>
            </g>
            <g id="Grupo_85524" data-name="Grupo 85524" transform="translate(27.044 16.583)">
              <g id="identificación" style="isolation: isolate">
                <text id="identificación-2" data-name="identificación" transform="translate(0 14)" fill="#2b343f" font-size="13" font-family="Roboto-Bold, Roboto" font-weight="700" style="isolation: isolate"><tspan x="0" y="0">identificación</tspan></text>
              </g>
            </g>
          </g>
        </g>
        <path id="Trazado_115300" data-name="Trazado 115300" d="M3156.137-225.837,3127.775-305.9H3084.7" transform="translate(-2919.023 415.143)" fill="none" stroke="#bfc3c5" stroke-linecap="round" stroke-linejoin="round" stroke-width="2.812" stroke-dasharray="0 6.561"/>
        <g id="Grupo_85537" data-name="Grupo 85537" transform="translate(46.99 78.104)">
          <path id="Rectángulo_15562-6" data-name="Rectángulo 15562" d="M3125.278-302.758v1.58c0,17-12.7,30.775-28.375,30.775h-89.147c-15.671,0-28.375-13.779-28.375-30.775v-1.58c0-17,12.7-30.774,28.375-30.774H3096.9C3112.574-333.532,3125.278-319.754,3125.278-302.758Z" transform="translate(-2979.381 333.532)" fill="#cad3df" opacity="0.37" style="isolation: isolate"/>
          <g id="Grupo_85536" data-name="Grupo 85536" transform="translate(3.67 4.44)">
            <g id="Grupo_85532" data-name="Grupo 85532">
              <rect id="Rectángulo_15416" data-name="Rectángulo 15416" width="137.567" height="54.884" rx="21.057" fill="#d5d9df"/>
              <rect id="Rectángulo_15417" data-name="Rectángulo 15417" width="130.439" height="47.756" rx="18.322" transform="translate(3.564 3.564)" fill="#f6f6f6" stroke="#fff" stroke-miterlimit="10" stroke-width="0.407"/>
            </g>
            <g id="Grupo_85533" data-name="Grupo 85533" transform="translate(43.478 16.584)">
              <g id="teléfono" style="isolation: isolate">
                <text id="teléfono-2" data-name="teléfono" transform="translate(0 14)" fill="#2b343f" font-size="13" font-family="Roboto-Bold, Roboto" font-weight="700" style="isolation: isolate"><tspan x="0" y="0">teléfono</tspan></text>
              </g>
            </g>
          </g>
        </g>
        <g id="Grupo_85550" data-name="Grupo 85550" transform="translate(193.648 173.334)">
          <g id="Grupo_85542" data-name="Grupo 85542" transform="translate(5.178 1.825)">
            <g id="Grupo_85538" data-name="Grupo 85538" transform="translate(36.667 13.732)">
              <path id="Trazado_115308" data-name="Trazado 115308" d="M3194.813-163.465a3.829,3.829,0,0,1-3.988-1.91L3147.2-229.42a3.832,3.832,0,0,1,1.314-5.257,3.832,3.832,0,0,1,5.257,1.314c.04.07.08.14.117.211l43.626,64.041a3.833,3.833,0,0,1-1.481,5.213,3.847,3.847,0,0,1-1.224.43Z" transform="translate(-3146.653 235.224)" fill="#8dd4e1"/>
            </g>
            <g id="Grupo_85539" data-name="Grupo 85539" transform="translate(97.962 13.734)">
              <path id="Trazado_115309" data-name="Trazado 115309" d="M3204.232-164.259a3.829,3.829,0,0,0,3.985-1.91l24.063-63.249a3.831,3.831,0,0,0-1.315-5.257,3.831,3.831,0,0,0-5.256,1.314c-.042.07-.081.14-.117.211L3201.53-169.9a3.831,3.831,0,0,0,1.481,5.212,3.819,3.819,0,0,0,1.224.432Z" transform="translate(-3201.044 235.222)" fill="#8dd4e1"/>
            </g>
            <g id="Grupo_85540" data-name="Grupo 85540" transform="translate(0 46.778)">
              <path id="Trazado_115310" data-name="Trazado 115310" d="M3198.939-167.19a3.8,3.8,0,0,1-1.379-.259l-80.877-31a3.831,3.831,0,0,1-2.35-4.883,3.831,3.831,0,0,1,4.882-2.35c.077.027.152.056.228.088l80.879,31a3.832,3.832,0,0,1,2.186,4.957A3.829,3.829,0,0,1,3198.939-167.19Z" transform="translate(-3114.116 205.9)" fill="#8dd4e1"/>
            </g>
            <g id="Grupo_85541" data-name="Grupo 85541" transform="translate(79.866)">
              <path id="Trazado_115311" data-name="Trazado 115311" d="M3185.24-166.2a3.79,3.79,0,0,1-.253-1.379l.037-76.007a3.831,3.831,0,0,1,3.836-3.827,3.833,3.833,0,0,1,3.827,3.837h0l-.039,76.007a3.833,3.833,0,0,1-3.845,3.819,3.832,3.832,0,0,1-3.56-2.45Z" transform="translate(-3184.986 247.409)" fill="#8dd4e1"/>
            </g>
          </g>
          <g id="Grupo_85544" data-name="Grupo 85544" transform="translate(3.992)">
            <path id="Trazado_115312" data-name="Trazado 115312" d="M3190.822-249.023a4.213,4.213,0,0,1,4.411,4c0,.065,0,.132.005.2h0a4.185,4.185,0,0,1-3.967,4.194,84.278,84.278,0,0,0-52.29,21.317l-6.48-5.483A92.679,92.679,0,0,1,3190.822-249.023Z" transform="translate(-3110.595 249.028)" fill="#8dd4e1"/>
            <g id="Grupo_85543" data-name="Grupo 85543" transform="translate(84.144)">
              <path id="Trazado_115313" data-name="Trazado 115313" d="M3192.144-249.023a4.211,4.211,0,0,0-4.411,4c0,.065,0,.132,0,.2h0a4.185,4.185,0,0,0,3.966,4.194,84.118,84.118,0,0,1,39.211,11.742c4.667,2.775,10.036-3.777,4.724-6.975A92.508,92.508,0,0,0,3192.144-249.023Z" transform="translate(-3187.729 249.028)" fill="#8dd4e1"/>
            </g>
            <path id="Trazado_115314" data-name="Trazado 115314" d="M3122.41-197.472a84.925,84.925,0,0,1,19.045-24.567l-6.48-5.483a93.282,93.282,0,0,0-21.912,30.051Z" transform="translate(-3113.063 251.758)" fill="#8dd4e1"/>
          </g>
          <g id="Grupo_85549" data-name="Grupo 85549" transform="translate(0 7.453)">
            <g id="Grupo_85546" data-name="Grupo 85546" transform="translate(0 37.04)">
              <g id="Grupo_85545" data-name="Grupo 85545">
                <circle id="Elipse_4733" data-name="Elipse 4733" cx="9.392" cy="9.392" r="9.392" stroke="#fff" stroke-miterlimit="10" stroke-width="0.783" fill="url(#linear-gradient-5)"/>
                <path id="Trazado_115315" data-name="Trazado 115315" d="M3111.864-200.453a6.75,6.75,0,0,0,6.75,6.75,6.751,6.751,0,0,0,6.75-6.75,6.751,6.751,0,0,0-6.75-6.75h0A6.75,6.75,0,0,0,3111.864-200.453Z" transform="translate(-3109.223 209.844)" fill="#8dd4e1"/>
              </g>
            </g>
            <g id="Grupo_85548" data-name="Grupo 85548" transform="translate(34.103)">
              <g id="Grupo_85547" data-name="Grupo 85547">
                <circle id="Elipse_4734" data-name="Elipse 4734" cx="9.392" cy="9.392" r="9.392" stroke="#fff" stroke-miterlimit="10" stroke-width="0.783" fill="url(#linear-gradient-6)"/>
                <path id="Trazado_115316" data-name="Trazado 115316" d="M3142.123-233.321a6.75,6.75,0,0,0,6.75,6.75,6.751,6.751,0,0,0,6.75-6.75,6.751,6.751,0,0,0-6.75-6.75h0A6.75,6.75,0,0,0,3142.123-233.321Z" transform="translate(-3139.486 242.712)" fill="#8dd4e1"/>
              </g>
            </g>
          </g>
        </g>
        <line id="Línea_284" data-name="Línea 284" x2="0.249" y2="150.649" transform="translate(282.224 26.741)" fill="none" stroke="#bfc3c5" stroke-linecap="round" stroke-linejoin="round" stroke-width="2.812" stroke-dasharray="0 6.561"/>
        <g id="Grupo_85560" data-name="Grupo 85560" transform="translate(209.594)">
          <path id="Rectángulo_15562-7" data-name="Rectángulo 15562" d="M3269.567-372.065v1.58c0,17-12.7,30.775-28.375,30.775h-89.146c-15.671,0-28.375-13.778-28.375-30.775v-1.58c0-17,12.7-30.774,28.375-30.774h89.146C3256.863-402.839,3269.567-389.061,3269.567-372.065Z" transform="translate(-3123.671 402.839)" fill="#cad3df" opacity="0.37" style="isolation: isolate"/>
          <g id="Grupo_85559" data-name="Grupo 85559" transform="translate(3.67 4.446)">
            <g id="Grupo_85555" data-name="Grupo 85555">
              <rect id="Rectángulo_15418" data-name="Rectángulo 15418" width="137.567" height="54.884" rx="21.057" fill="#d5d9df"/>
              <rect id="Rectángulo_15419" data-name="Rectángulo 15419" width="130.439" height="47.756" rx="18.322" transform="translate(3.563 3.564)" fill="#f6f6f6" stroke="#fff" stroke-miterlimit="10" stroke-width="0.407"/>
            </g>
            <g id="Grupo_85556" data-name="Grupo 85556" transform="translate(40.456 16.584)">
              <g id="dirección" style="isolation: isolate">
                <text id="dirección-2" data-name="dirección" transform="translate(0 14)" fill="#2b343f" font-size="13" font-family="Roboto-Bold, Roboto" font-weight="700" style="isolation: isolate"><tspan x="0" y="0">dirección</tspan></text>
              </g>
            </g>
          </g>
        </g>
        <g id="Grupo_85562" data-name="Grupo 85562" transform="translate(272.654 168.009)">
          <g id="Grupo_85561" data-name="Grupo 85561">
            <circle id="Elipse_4739" data-name="Elipse 4739" cx="9.392" cy="9.392" r="9.392" stroke="#fff" stroke-miterlimit="10" stroke-width="0.783" fill="url(#linear-gradient-7)"/>
            <path id="Trazado_115321" data-name="Trazado 115321" d="M3181.972-244.66a6.75,6.75,0,0,0,6.75,6.75,6.751,6.751,0,0,0,6.75-6.75,6.751,6.751,0,0,0-6.75-6.75h0a6.749,6.749,0,0,0-6.749,6.749Z" transform="translate(-3179.33 254.051)" fill="#8dd4e1"/>
          </g>
        </g>
        <g id="Grupo_86436" data-name="Grupo 86436" transform="translate(234.312 220.835)">
          <g id="Grupo_86435" data-name="Grupo 86435">
            <rect id="Rectángulo_15647" data-name="Rectángulo 15647" width="132.128" height="72.145" fill="none" stroke="#b7c2c5" stroke-linecap="round" stroke-linejoin="round" stroke-width="2.812" stroke-dasharray="0 6.561"/>
            <rect id="Rectángulo_15648" data-name="Rectángulo 15648" width="118.414" height="61.142" transform="translate(6.752 5.655)" fill="#cad3df"/>
            <rect id="Rectángulo_15649" data-name="Rectángulo 15649" width="104.49" height="48.018" transform="translate(13.714 12.217)" fill="#f6f6f6" stroke="#fff" stroke-miterlimit="10" stroke-width="0.469"/>
          </g>
        </g>
        <g id="Grupo_85551" data-name="Grupo 85551" transform="translate(254.755 245.607)">
          <g id="ESTUDIANTE" style="isolation: isolate">
            <text id="ESTUDIANTE-2" data-name="ESTUDIANTE" transform="translate(0 16)" fill="#2b343f" font-size="15" font-family="Roboto-Bold, Roboto" font-weight="700" style="isolation: isolate"><tspan x="0" y="0">ESTUDIANTE</tspan></text>
          </g>
        </g>
        <g id="Grupo_85577" data-name="Grupo 85577" transform="translate(317.531 77.78)">
          <path id="Trazado_115322" data-name="Trazado 115322" d="M3227.81-225.837l28.359-80.066h43.076" transform="translate(-3218.389 337.364)" fill="none" stroke="#bfc3c5" stroke-linecap="round" stroke-linejoin="round" stroke-width="2.812" stroke-dasharray="0 6.561"/>
          <g id="Grupo_85572" data-name="Grupo 85572" transform="translate(63.301)">
            <path id="Rectángulo_15562-8" data-name="Rectángulo 15562" d="M3421.518-303.045v1.58c0,17-12.7,30.775-28.375,30.775H3304c-15.671,0-28.375-13.779-28.375-30.775v-1.58c0-17,12.7-30.775,28.375-30.775h89.147C3408.814-333.82,3421.518-320.041,3421.518-303.045Z" transform="translate(-3275.621 333.82)" fill="#cad3df" opacity="0.37" style="isolation: isolate"/>
            <g id="Grupo_85571" data-name="Grupo 85571" transform="translate(4.661 4.447)">
              <g id="Grupo_85567" data-name="Grupo 85567">
                <rect id="Rectángulo_15420" data-name="Rectángulo 15420" width="137.567" height="54.884" rx="21.057" fill="#d5d9df"/>
                <rect id="Rectángulo_15421" data-name="Rectángulo 15421" width="130.439" height="47.756" rx="18.322" transform="translate(3.563 3.564)" fill="#f6f6f6" stroke="#fff" stroke-miterlimit="10" stroke-width="0.407"/>
              </g>
              <g id="Grupo_85568" data-name="Grupo 85568" transform="translate(25.221 16.584)">
                <g id="grado_escolar" data-name="grado escolar" style="isolation: isolate">
                  <text id="grado_escolar-2" data-name="grado_escolar" transform="translate(0 14)" fill="#2b343f" font-size="13" font-family="Roboto-Bold, Roboto" font-weight="700" style="isolation: isolate"><tspan x="0" y="0">grado_escolar</tspan></text>
                </g>
              </g>
            </g>
          </g>
          <g id="Grupo_85576" data-name="Grupo 85576" transform="translate(0 103.007)">
            <g id="Grupo_85575" data-name="Grupo 85575">
              <g id="Grupo_85574" data-name="Grupo 85574">
                <g id="Grupo_85573" data-name="Grupo 85573">
                  <circle id="Elipse_4741" data-name="Elipse 4741" cx="9.392" cy="9.392" r="9.392" stroke="#fff" stroke-miterlimit="10" stroke-width="0.783" fill="url(#linear-gradient-8)"/>
                  <circle id="Elipse_4742" data-name="Elipse 4742" cx="6.75" cy="6.75" r="6.75" transform="translate(2.642 2.642)" fill="#8dd4e1"/>
                </g>
              </g>
            </g>
          </g>
        </g>
      </g>
    </g>
    <g id="Grupo_85579" data-name="Grupo 85579" transform="translate(3461.726 -73.753)">
      <path id="Trazado_115330" data-name="Trazado 115330" d="M3402.936-52.888a3.541,3.541,0,0,1-.234-1.275l.035-53.059a3.54,3.54,0,0,1,3.481-3.6,3.54,3.54,0,0,1,3.6,3.481c0,.042,0,.083,0,.125l-.036,53.059a3.538,3.538,0,0,1-3.546,3.533,3.541,3.541,0,0,1-3.3-2.267Z" transform="translate(-3402.701 110.819)" fill="#4de160"/>
    </g>
    <line id="Línea_285" data-name="Línea 285" x1="0.205" y1="66.846" transform="translate(3464.948 -129.655)" fill="none" stroke="#b7c5ba" stroke-linecap="round" stroke-linejoin="round" stroke-width="2.812" stroke-dasharray="0 6.561"/>
    <g id="Grupo_85588" data-name="Grupo 85588" transform="translate(3397.622 -159.424)">
      <path id="Rectángulo_15562-9" data-name="Rectángulo 15562" d="M3480.673-158.395v1.461c0,15.711-11.742,28.446-26.228,28.446h-82.4c-14.486,0-26.229-12.735-26.229-28.446v-1.461c0-15.711,11.743-28.446,26.229-28.446h82.4C3468.931-186.841,3480.673-174.106,3480.673-158.395Z" transform="translate(-3345.817 186.841)" fill="#cad3df" opacity="0.37" style="isolation: isolate"/>
      <g id="Grupo_85587" data-name="Grupo 85587" transform="translate(4.346 4.117)">
        <g id="Grupo_85583" data-name="Grupo 85583">
          <rect id="Rectángulo_15422" data-name="Rectángulo 15422" width="127.119" height="50.716" rx="19.458" fill="#cadfd6"/>
          <rect id="Rectángulo_15423" data-name="Rectángulo 15423" width="120.533" height="44.13" rx="16.931" transform="translate(3.293 3.294)" fill="#f6f6f6" stroke="#fff" stroke-miterlimit="10" stroke-width="0.407"/>
        </g>
        <g id="Grupo_85584" data-name="Grupo 85584" transform="translate(48.436 15.34)">
          <g id="autor" style="isolation: isolate">
            <text id="autor-2" data-name="autor" transform="translate(0 13)" fill="#123f2b" font-size="12" font-family="Roboto-Bold, Roboto" font-weight="700" style="isolation: isolate"><tspan x="0" y="0">autor</tspan></text>
          </g>
        </g>
      </g>
    </g>
    <g id="Grupo_85590" data-name="Grupo 85590" transform="translate(3456.147 -82.432)">
      <g id="Grupo_85589" data-name="Grupo 85589">
        <circle id="Elipse_4745" data-name="Elipse 4745" cx="8.679" cy="8.679" r="8.679" stroke="#fff" stroke-miterlimit="10" stroke-width="0.783" fill="url(#linear-gradient-9)"/>
        <path id="Trazado_115337" data-name="Trazado 115337" d="M3399.916-110.117a6.237,6.237,0,0,0,6.238,6.238,6.237,6.237,0,0,0,6.237-6.238,6.237,6.237,0,0,0-6.237-6.238,6.237,6.237,0,0,0-6.238,6.238Z" transform="translate(-3397.475 118.795)" fill="#4de160"/>
      </g>
    </g>
    <g id="Grupo_84584" data-name="Grupo 84584" transform="translate(3403.118 -54.442)">
      <g id="Grupo_86437" data-name="Grupo 86437">
        <rect id="Rectángulo_15650" data-name="Rectángulo 15650" width="88.259" height="88.259" transform="translate(62.409 0) rotate(45)" fill="none" stroke="#b7c2c5" stroke-linecap="round" stroke-linejoin="round" stroke-width="2.812" stroke-dasharray="0 6.561"/>
        <rect id="Rectángulo_15651" data-name="Rectángulo 15651" width="74.798" height="74.798" transform="translate(62.409 9.783) rotate(45)" fill="#cad3df"/>
        <rect id="Rectángulo_15652" data-name="Rectángulo 15652" width="58.743" height="58.743" transform="translate(62.409 21.136) rotate(45)" fill="#f6f6f6" stroke="#fff" stroke-miterlimit="10" stroke-width="0.469"/>
      </g>
      <g id="Grupo_85515" data-name="Grupo 85515" transform="translate(41.033 51.109)">
        <g id="Grupo_85514" data-name="Grupo 85514">
          <g id="ES_UN" data-name="ES UN" style="isolation: isolate">
            <text id="ES_UN-2" data-name="ES UN" transform="translate(0 16)" fill="#12263f" font-size="15" font-family="Roboto-Bold, Roboto" font-weight="700" style="isolation: isolate"><tspan x="0" y="0">ES UN</tspan></text>
          </g>
        </g>
      </g>
    </g>
  </g>
</svg>
