<svg xmlns="http://www.w3.org/2000/svg" xmlns:xlink="http://www.w3.org/1999/xlink" width="1240" height="726" viewBox="0 0 1240 726">
  <defs>
    <linearGradient id="linear-gradient" x1="-22.179" y1="-23.99" x2="-22.134" y2="-23.99" gradientUnits="objectBoundingBox">
      <stop offset="0" stop-color="#fff"/>
      <stop offset="1" stop-color="#d5d5d5"/>
    </linearGradient>
    <linearGradient id="linear-gradient-2" x1="-23.994" y1="-26.197" x2="-23.948" y2="-26.197" xlink:href="#linear-gradient"/>
    <linearGradient id="linear-gradient-3" x1="-22.388" y1="-20.279" x2="-22.343" y2="-20.279" xlink:href="#linear-gradient"/>
    <linearGradient id="linear-gradient-4" x1="-24.368" y1="-18.307" x2="-24.323" y2="-18.307" xlink:href="#linear-gradient"/>
    <linearGradient id="linear-gradient-5" x1="-27.004" y1="-27.138" x2="-26.959" y2="-27.138" xlink:href="#linear-gradient"/>
    <linearGradient id="linear-gradient-6" x1="-26.975" y1="-17.627" x2="-26.93" y2="-17.627" xlink:href="#linear-gradient"/>
    <linearGradient id="linear-gradient-7" x1="-45.573" y1="-23.99" x2="-45.528" y2="-23.99" xlink:href="#linear-gradient"/>
    <linearGradient id="linear-gradient-8" x1="-47.388" y1="-26.197" x2="-47.343" y2="-26.197" xlink:href="#linear-gradient"/>
    <linearGradient id="linear-gradient-9" x1="-45.782" y1="-20.279" x2="-45.737" y2="-20.279" xlink:href="#linear-gradient"/>
    <linearGradient id="linear-gradient-10" x1="-47.763" y1="-18.307" x2="-47.717" y2="-18.307" xlink:href="#linear-gradient"/>
    <linearGradient id="linear-gradient-11" x1="-50.399" y1="-27.138" x2="-50.353" y2="-27.138" xlink:href="#linear-gradient"/>
    <linearGradient id="linear-gradient-12" x1="-50.37" y1="-17.627" x2="-50.325" y2="-17.627" xlink:href="#linear-gradient"/>
  </defs>
  <rect id="Rectángulo_14830" data-name="Rectángulo 14830" width="1240" height="726" fill="#f6f6f6"/>
  <g id="Grupo_83609" data-name="Grupo 83609" transform="translate(-9.41 -500.869)">
    <g id="Grupo_83770" data-name="Grupo 83770" transform="translate(130.41 566.869)">
      <g id="Grupo_83769" data-name="Grupo 83769">
        <g id="Grupo_83690" data-name="Grupo 83690" transform="translate(129.414 227.707)">
          <path id="Trazado_112841" data-name="Trazado 112841" d="M366.691,821.872l1.048-37.729H253.894" transform="translate(-253.894 -784.143)" fill="none" stroke="#b7c2c5" stroke-linecap="round" stroke-linejoin="round" stroke-width="2.812" stroke-dasharray="0 6.561"/>
        </g>
        <g id="Grupo_83691" data-name="Grupo 83691" transform="translate(129.414 353.469)">
          <line id="Línea_188" data-name="Línea 188" x1="113.842" fill="none" stroke="#b7c2c5" stroke-linecap="round" stroke-linejoin="round" stroke-width="2.812" stroke-dasharray="0 6.561"/>
        </g>
        <g id="Grupo_83700" data-name="Grupo 83700" transform="translate(0 189.234)">
          <path id="Rectángulo_15562" data-name="Rectángulo 15562" d="M308.232,784.943v1.925c0,20.716-15.483,37.51-34.584,37.51H164.995c-19.1,0-34.585-16.793-34.585-37.51v-1.925c0-20.716,15.483-37.51,34.585-37.51H273.648C292.748,747.433,308.232,764.226,308.232,784.943Z" transform="translate(-130.41 -747.433)" fill="#cad3df" opacity="0.37" style="isolation: isolate"/>
          <g id="Grupo_83699" data-name="Grupo 83699" transform="translate(4.519 4.682)">
            <g id="Grupo_83695" data-name="Grupo 83695">
              <rect id="Rectángulo_14843" data-name="Rectángulo 14843" width="169.391" height="67.58" rx="31.435" fill="#cad3df"/>
              <rect id="Rectángulo_14844" data-name="Rectángulo 14844" width="160.614" height="58.804" rx="27.248" transform="translate(4.389 4.388)" fill="#f6f6f6" stroke="#fff" stroke-miterlimit="10" stroke-width="0.407"/>
            </g>
            <g id="Grupo_83696" data-name="Grupo 83696" transform="translate(60.34 20.641)">
              <g id="correo-2" style="isolation: isolate">
                <text id="correo" transform="translate(0 17)" fill="#12263f" font-size="16" font-family="Roboto-Bold, Roboto" font-weight="700" style="isolation: isolate"><tspan x="0" y="0">correo</tspan></text>
              </g>
            </g>
          </g>
        </g>
        <g id="Grupo_83709" data-name="Grupo 83709" transform="translate(0 315.59)">
          <path id="Rectángulo_15562-2" data-name="Rectángulo 15562" d="M308.232,905.509v1.925c0,20.716-15.483,37.51-34.584,37.51H164.995c-19.1,0-34.585-16.794-34.585-37.51v-1.925c0-20.716,15.483-37.51,34.585-37.51H273.648C292.748,868,308.232,884.792,308.232,905.509Z" transform="translate(-130.41 -867.999)" fill="#cad3df" opacity="0.37" style="isolation: isolate"/>
          <g id="Grupo_83705" data-name="Grupo 83705" transform="translate(4.519 4.682)">
            <g id="Grupo_83701" data-name="Grupo 83701">
              <rect id="Rectángulo_14845" data-name="Rectángulo 14845" width="169.391" height="67.58" rx="31.435" fill="#cad3df"/>
              <rect id="Rectángulo_14846" data-name="Rectángulo 14846" width="160.614" height="58.804" rx="27.248" transform="translate(4.389 4.388)" fill="#f6f6f6" stroke="#fff" stroke-miterlimit="10" stroke-width="0.407"/>
            </g>
            <g id="Grupo_83702" data-name="Grupo 83702" transform="translate(66.583 20.641)">
              <g id="edad-2" style="isolation: isolate">
                <text id="edad" transform="translate(0 17)" fill="#12263f" font-size="16" font-family="Roboto-Bold, Roboto" font-weight="700" style="isolation: isolate"><tspan x="0" y="0">edad</tspan></text>
              </g>
            </g>
          </g>
        </g>
        <path id="Trazado_112853" data-name="Trazado 112853" d="M408.853,780.73l-34.919-98.587h-53.04" transform="translate(-121.263 -561.334)" fill="none" stroke="#b7c2c5" stroke-linecap="round" stroke-linejoin="round" stroke-width="2.812" stroke-dasharray="0 6.561"/>
        <path id="Trazado_112854" data-name="Trazado 112854" d="M398.373,959.213,382.5,1018.877h-61.6" transform="translate(-121.263 -548.029)" fill="none" stroke="#b7c2c5" stroke-linecap="round" stroke-linejoin="round" stroke-width="2.812" stroke-dasharray="0 6.561"/>
        <g id="Grupo_83718" data-name="Grupo 83718" transform="translate(64.369 82.464)">
          <path id="Rectángulo_15562-3" data-name="Rectángulo 15562" d="M369.653,683.065v1.925c0,20.716-15.484,37.51-34.585,37.51H226.415c-19.1,0-34.585-16.793-34.585-37.51v-1.925c0-20.716,15.484-37.51,34.585-37.51H335.068C354.168,645.555,369.653,662.348,369.653,683.065Z" transform="translate(-191.83 -645.555)" fill="#cad3df" opacity="0.37" style="isolation: isolate"/>
          <g id="Grupo_83717" data-name="Grupo 83717" transform="translate(4.519 4.682)">
            <g id="Grupo_83713" data-name="Grupo 83713">
              <rect id="Rectángulo_14847" data-name="Rectángulo 14847" width="169.391" height="67.58" rx="31.435" fill="#cad3df"/>
              <rect id="Rectángulo_14848" data-name="Rectángulo 14848" width="160.614" height="58.804" rx="27.248" transform="translate(4.389 4.388)" fill="#f6f6f6" stroke="#fff" stroke-miterlimit="10" stroke-width="0.407"/>
            </g>
            <g id="Grupo_83714" data-name="Grupo 83714" transform="translate(50.662 20.641)">
              <g id="apellidos-2" style="isolation: isolate">
                <text id="apellidos" transform="translate(0 17)" fill="#12263f" font-size="16" font-family="Roboto-Bold, Roboto" font-weight="700" style="isolation: isolate"><tspan x="0" y="0">apellidos</tspan></text>
              </g>
            </g>
          </g>
        </g>
        <g id="Grupo_83736" data-name="Grupo 83736" transform="translate(228.65 199.73)">
          <g id="Grupo_83725" data-name="Grupo 83725" transform="translate(9.62 2.244)">
            <g id="Grupo_83719" data-name="Grupo 83719" transform="translate(47.38 17.012)">
              <path id="Trazado_112862" data-name="Trazado 112862" d="M461.5,861.755a4.716,4.716,0,0,1-4.91-2.352l-53-76.534a4.716,4.716,0,1,1,8.2-4.665l.037.067,53,76.535a4.716,4.716,0,0,1-3.325,6.948Z" transform="translate(-402.973 -775.821)" fill="#4dd0e1"/>
            </g>
            <g id="Grupo_83720" data-name="Grupo 83720" transform="translate(2.315 57.653)">
              <path id="Trazado_112863" data-name="Trazado 112863" d="M460.666,862.385a4.7,4.7,0,0,1-1.7-.314l-95.976-38.35a4.718,4.718,0,0,1,3.4-8.8l95.977,38.349a4.716,4.716,0,0,1-1.7,9.118Z" transform="translate(-359.971 -814.599)" fill="#4dd0e1"/>
            </g>
            <g id="Grupo_83721" data-name="Grupo 83721" transform="translate(0 120.463)">
              <path id="Trazado_112864" data-name="Trazado 112864" d="M362.485,909.847a4.716,4.716,0,0,1-1.815-9.072l99.245-25.88a4.717,4.717,0,1,1,3.627,8.708L364.3,909.484A4.734,4.734,0,0,1,362.485,909.847Z" transform="translate(-357.763 -874.532)" fill="#4dd0e1"/>
            </g>
            <g id="Grupo_83722" data-name="Grupo 83722" transform="translate(39.315 120.463)">
              <path id="Trazado_112865" data-name="Trazado 112865" d="M399.991,957.2a4.718,4.718,0,0,1-4.369-6.488l59.288-73.236a4.716,4.716,0,0,1,8.742,3.543h0l-59.288,73.236A4.716,4.716,0,0,1,399.991,957.2Z" transform="translate(-395.277 -874.532)" fill="#4dd0e1"/>
            </g>
            <g id="Grupo_83723" data-name="Grupo 83723" transform="translate(99.384 120.673)">
              <path id="Trazado_112866" data-name="Trazado 112866" d="M461.651,973.837a4.716,4.716,0,0,1-9.058-1.877l1.318-92.545a4.716,4.716,0,1,1,9.432.068l-1.318,92.545A4.669,4.669,0,0,1,461.651,973.837Z" transform="translate(-452.593 -874.732)" fill="#4dd0e1"/>
            </g>
            <g id="Grupo_83724" data-name="Grupo 83724" transform="translate(100.514)">
              <path id="Trazado_112867" data-name="Trazado 112867" d="M453.986,856.072a4.708,4.708,0,0,1-.314-1.7l.047-90.075a4.716,4.716,0,0,1,9.432.013l-.047,90.074a4.716,4.716,0,0,1-9.118,1.687Z" transform="translate(-453.672 -759.588)" fill="#4dd0e1"/>
            </g>
          </g>
          <g id="Grupo_83726" data-name="Grupo 83726">
            <path id="Trazado_112868" data-name="Trazado 112868" d="M455.994,757.453a5.187,5.187,0,0,1,5.432,4.93c0,.081.005.161.005.243h0a5.153,5.153,0,0,1-4.884,5.165,103.776,103.776,0,0,0-64.383,26.248l-7.978-6.749A114.109,114.109,0,0,1,455.994,757.453Z" transform="translate(-346.874 -757.447)" fill="#4dd0e1"/>
            <path id="Trazado_112869" data-name="Trazado 112869" d="M456.775,967.391a5.176,5.176,0,1,1-.552,10.338,114.2,114.2,0,0,1-76.78-34.665l7.894-6.734A103.871,103.871,0,0,0,456.775,967.391Z" transform="translate(-347.102 -748.857)" fill="#4dd0e1"/>
            <path id="Trazado_112870" data-name="Trazado 112870" d="M348.834,859.4H359.21q-.27,3.76-.275,7.59a103.874,103.874,0,0,0,29.884,73.033l-7.893,6.734a114.177,114.177,0,0,1-32.343-79.767C348.581,864.444,348.672,861.911,348.834,859.4Z" transform="translate(-348.584 -752.551)" fill="#4dd0e1"/>
            <path id="Trazado_112871" data-name="Trazado 112871" d="M385.885,785.922l7.978,6.749A103.962,103.962,0,0,0,359.2,862.929H348.821A114.258,114.258,0,0,1,385.885,785.922Z" transform="translate(-348.573 -756.08)" fill="#4dd0e1"/>
          </g>
          <g id="Grupo_83735" data-name="Grupo 83735" transform="translate(0.986 9.177)">
            <g id="Grupo_83728" data-name="Grupo 83728" transform="translate(0 131.424)">
              <g id="Grupo_83727" data-name="Grupo 83727">
                <circle id="Elipse_4186" data-name="Elipse 4186" cx="11.564" cy="11.564" r="11.564" stroke="#fff" stroke-miterlimit="10" stroke-width="0.783" fill="url(#linear-gradient)"/>
                <circle id="Elipse_4187" data-name="Elipse 4187" cx="8.312" cy="8.312" r="8.312" transform="translate(3.252 3.253)" fill="#4dd0e1"/>
              </g>
            </g>
            <g id="Grupo_83730" data-name="Grupo 83730" transform="translate(38.487 182.476)">
              <g id="Grupo_83729" data-name="Grupo 83729">
                <circle id="Elipse_4188" data-name="Elipse 4188" cx="11.564" cy="11.564" r="11.564" stroke="#fff" stroke-miterlimit="10" stroke-width="0.783" fill="url(#linear-gradient-2)"/>
                <circle id="Elipse_4189" data-name="Elipse 4189" cx="8.309" cy="8.309" r="8.309" transform="translate(3.252 3.259)" fill="#4dd0e1"/>
              </g>
            </g>
            <g id="Grupo_83732" data-name="Grupo 83732" transform="translate(4.433 45.608)">
              <g id="Grupo_83731" data-name="Grupo 83731">
                <circle id="Elipse_4190" data-name="Elipse 4190" cx="11.564" cy="11.564" r="11.564" stroke="#fff" stroke-miterlimit="10" stroke-width="0.783" fill="url(#linear-gradient-3)"/>
                <circle id="Elipse_4191" data-name="Elipse 4191" cx="8.312" cy="8.312" r="8.312" transform="translate(3.253 3.253)" fill="#4dd0e1"/>
              </g>
            </g>
            <g id="Grupo_83734" data-name="Grupo 83734" transform="translate(46.426)">
              <g id="Grupo_83733" data-name="Grupo 83733">
                <circle id="Elipse_4192" data-name="Elipse 4192" cx="11.564" cy="11.564" r="11.564" stroke="#fff" stroke-miterlimit="10" stroke-width="0.783" fill="url(#linear-gradient-4)"/>
                <circle id="Elipse_4193" data-name="Elipse 4193" cx="8.312" cy="8.312" r="8.312" transform="translate(3.252 3.253)" fill="#4dd0e1"/>
              </g>
            </g>
          </g>
        </g>
        <g id="Grupo_83745" data-name="Grupo 83745" transform="translate(64.369 432.503)">
          <path id="Rectángulo_15562-4" data-name="Rectángulo 15562" d="M369.653,1017.065v1.925c0,20.716-15.484,37.51-34.585,37.51H226.415c-19.1,0-34.585-16.794-34.585-37.51v-1.925c0-20.716,15.484-37.51,34.585-37.51H335.068C354.168,979.555,369.653,996.348,369.653,1017.065Z" transform="translate(-191.83 -979.555)" fill="#cad3df" opacity="0.37" style="isolation: isolate"/>
          <g id="Grupo_83744" data-name="Grupo 83744" transform="translate(4.519 4.682)">
            <g id="Grupo_83740" data-name="Grupo 83740">
              <rect id="Rectángulo_14849" data-name="Rectángulo 14849" width="169.391" height="67.58" rx="31.435" fill="#cad3df"/>
              <rect id="Rectángulo_14850" data-name="Rectángulo 14850" width="160.614" height="58.804" rx="27.248" transform="translate(4.389 4.388)" fill="#f6f6f6" stroke="#fff" stroke-miterlimit="10" stroke-width="0.407"/>
            </g>
            <g id="Grupo_83741" data-name="Grupo 83741" transform="translate(69.26 20.641)">
              <g id="pais-2" style="isolation: isolate">
                <text id="pais" transform="translate(0 17)" fill="#12263f" font-size="16" font-family="Roboto-Bold, Roboto" font-weight="700" style="isolation: isolate"><tspan x="0" y="0">pais</tspan></text>
              </g>
            </g>
          </g>
        </g>
        <line id="Línea_189" data-name="Línea 189" x2="0.307" y2="110.239" transform="translate(343.136 431.096)" fill="none" stroke="#b7c2c5" stroke-linecap="round" stroke-linejoin="round" stroke-width="2.812" stroke-dasharray="0 6.561"/>
        <line id="Línea_190" data-name="Línea 190" x2="0.307" y2="185.499" transform="translate(343.136 19.224)" fill="none" stroke="#b7c2c5" stroke-linecap="round" stroke-linejoin="round" stroke-width="2.812" stroke-dasharray="0 6.561"/>
        <g id="Grupo_83755" data-name="Grupo 83755" transform="translate(254.378 517.552)">
          <path id="Rectángulo_15562-5" data-name="Rectángulo 15562" d="M550.955,1098.217v1.925c0,20.716-15.483,37.51-34.584,37.51H407.717c-19.1,0-34.584-16.793-34.584-37.51v-1.925c0-20.716,15.483-37.51,34.584-37.51H516.371C535.471,1060.707,550.955,1077.5,550.955,1098.217Z" transform="translate(-373.133 -1060.707)" fill="#cad3df" opacity="0.37" style="isolation: isolate"/>
          <g id="Grupo_83754" data-name="Grupo 83754" transform="translate(4.518 4.681)">
            <g id="Grupo_83750" data-name="Grupo 83750">
              <rect id="Rectángulo_14851" data-name="Rectángulo 14851" width="169.391" height="67.58" rx="31.435" fill="#cad3df"/>
              <rect id="Rectángulo_14852" data-name="Rectángulo 14852" width="160.614" height="58.804" rx="27.248" transform="translate(4.389 4.388)" fill="#f6f6f6" stroke="#fff" stroke-miterlimit="10" stroke-width="0.407"/>
            </g>
            <g id="Grupo_83751" data-name="Grupo 83751" transform="translate(33.301 20.641)">
              <g id="identificación-2" style="isolation: isolate">
                <text id="identificación" transform="translate(0 17)" fill="#12263f" font-size="16" font-family="Roboto-Bold, Roboto" font-weight="700" style="isolation: isolate"><tspan x="0" y="0">identificación</tspan></text>
              </g>
            </g>
          </g>
        </g>
        <g id="Grupo_83757" data-name="Grupo 83757" transform="translate(331.962 413.131)">
          <g id="Grupo_83756" data-name="Grupo 83756" transform="translate(0)">
            <circle id="Elipse_4204" data-name="Elipse 4204" cx="11.564" cy="11.564" r="11.564" stroke="#fff" stroke-miterlimit="10" stroke-width="0.783" fill="url(#linear-gradient-5)"/>
            <circle id="Elipse_4205" data-name="Elipse 4205" cx="8.312" cy="8.312" r="8.312" transform="translate(3.252 3.252)" fill="#4dd0e1"/>
          </g>
        </g>
        <g id="Grupo_83766" data-name="Grupo 83766" transform="translate(254.378)">
          <path id="Rectángulo_15562-6" data-name="Rectángulo 15562" d="M550.955,604.379V606.3c0,20.716-15.483,37.51-34.584,37.51H407.717c-19.1,0-34.584-16.794-34.584-37.51v-1.925c0-20.716,15.483-37.51,34.584-37.51H516.371C535.471,566.869,550.955,583.662,550.955,604.379Z" transform="translate(-373.133 -566.869)" fill="#cad3df" opacity="0.37" style="isolation: isolate"/>
          <g id="Grupo_83765" data-name="Grupo 83765" transform="translate(4.518 4.682)">
            <g id="Grupo_83761" data-name="Grupo 83761">
              <rect id="Rectángulo_14853" data-name="Rectángulo 14853" width="169.391" height="67.58" rx="31.435" fill="#cad3df"/>
              <rect id="Rectángulo_14854" data-name="Rectángulo 14854" width="160.614" height="58.804" rx="27.248" transform="translate(4.389 4.388)" fill="#f6f6f6" stroke="#fff" stroke-miterlimit="10" stroke-width="0.407"/>
            </g>
            <g id="Grupo_83762" data-name="Grupo 83762" transform="translate(51.616 20.641)">
              <g id="nombres-2" style="isolation: isolate">
                <text id="nombres" transform="translate(0 17)" fill="#12263f" font-size="16" font-family="Roboto-Bold, Roboto" font-weight="700" style="isolation: isolate"><tspan x="0" y="0">nombres</tspan></text>
              </g>
            </g>
          </g>
        </g>
        <g id="Grupo_83768" data-name="Grupo 83768" transform="translate(331.352 193.172)">
          <g id="Grupo_83767" data-name="Grupo 83767" transform="translate(0)">
            <circle id="Elipse_4211" data-name="Elipse 4211" cx="11.564" cy="11.564" r="11.564" stroke="#fff" stroke-miterlimit="10" stroke-width="0.783" fill="url(#linear-gradient-6)"/>
            <circle id="Elipse_4212" data-name="Elipse 4212" cx="8.312" cy="8.312" r="8.312" transform="translate(3.252 3.252)" fill="#4dd0e1"/>
          </g>
        </g>
        <g id="Grupo_86399" data-name="Grupo 86399" transform="translate(263.384 269.791)">
          <g id="Grupo_86398" data-name="Grupo 86398" transform="translate(0)">
            <rect id="Rectángulo_15587" data-name="Rectángulo 15587" width="160.609" height="93.041" fill="none" stroke="#b7c2c5" stroke-linecap="round" stroke-linejoin="round" stroke-width="2.812" stroke-dasharray="0 6.561"/>
            <rect id="Rectángulo_15588" data-name="Rectángulo 15588" width="143.939" height="78.851" transform="translate(8.208 7.293)" fill="#cad3df"/>
            <rect id="Rectángulo_15589" data-name="Rectángulo 15589" width="127.013" height="61.926" transform="translate(16.67 15.755)" fill="#f6f6f6" stroke="#fff" stroke-miterlimit="10" stroke-width="0.469"/>
          </g>
          <g id="Grupo_86372" data-name="Grupo 86372" transform="translate(32.831 30.638)">
            <g id="PERSONA" style="isolation: isolate">
              <text id="PERSONA-2" data-name="PERSONA" transform="translate(0 21)" fill="#12263f" font-size="20" font-family="Roboto-Bold, Roboto" font-weight="700" style="isolation: isolate"><tspan x="0" y="0">PERSONA</tspan></text>
            </g>
          </g>
        </g>
      </g>
      <g id="Grupo_83769-2" data-name="Grupo 83769" transform="translate(566.743)">
        <g id="Grupo_83690-2" data-name="Grupo 83690" transform="translate(129.415 227.707)">
          <path id="Trazado_112841-2" data-name="Trazado 112841" d="M907.467,821.872l1.048-37.729H794.67" transform="translate(-794.67 -784.143)" fill="none" stroke="#b7c2c5" stroke-linecap="round" stroke-linejoin="round" stroke-width="2.812" stroke-dasharray="0 6.561"/>
        </g>
        <g id="Grupo_83691-2" data-name="Grupo 83691" transform="translate(129.414 353.469)">
          <line id="Línea_188-2" data-name="Línea 188" x1="113.842" fill="none" stroke="#b7c2c5" stroke-linecap="round" stroke-linejoin="round" stroke-width="2.812" stroke-dasharray="0 6.561"/>
        </g>
        <g id="Grupo_83700-2" data-name="Grupo 83700" transform="translate(0 189.234)">
          <path id="Rectángulo_15562-7" data-name="Rectángulo 15562" d="M849.008,784.943v1.925c0,20.716-15.484,37.51-34.585,37.51H705.77c-19.1,0-34.585-16.793-34.585-37.51v-1.925c0-20.716,15.484-37.51,34.585-37.51H814.423C833.523,747.433,849.008,764.226,849.008,784.943Z" transform="translate(-671.185 -747.433)" fill="#cad3df" opacity="0.37" style="isolation: isolate"/>
          <g id="Grupo_83699-2" data-name="Grupo 83699" transform="translate(4.519 4.682)">
            <g id="Grupo_83695-2" data-name="Grupo 83695">
              <rect id="Rectángulo_14843-2" data-name="Rectángulo 14843" width="169.391" height="67.58" rx="31.435" fill="#cad3df"/>
              <rect id="Rectángulo_14844-2" data-name="Rectángulo 14844" width="160.614" height="58.804" rx="27.248" transform="translate(4.389 4.388)" fill="#f6f6f6" stroke="#fff" stroke-miterlimit="10" stroke-width="0.407"/>
            </g>
            <g id="Grupo_83696-2" data-name="Grupo 83696" transform="translate(60.34 20.641)">
              <g id="correo-2-2" data-name="correo-2" style="isolation: isolate">
                <text id="correo-2-3" data-name="correo" transform="translate(0 17)" fill="#12263f" font-size="16" font-family="Roboto-Bold, Roboto" font-weight="700" style="isolation: isolate"><tspan x="0" y="0">correo</tspan></text>
              </g>
            </g>
          </g>
        </g>
        <g id="Grupo_83709-2" data-name="Grupo 83709" transform="translate(0 315.59)">
          <path id="Rectángulo_15562-8" data-name="Rectángulo 15562" d="M849.008,905.509v1.925c0,20.716-15.484,37.51-34.585,37.51H705.77c-19.1,0-34.585-16.794-34.585-37.51v-1.925c0-20.716,15.484-37.51,34.585-37.51H814.423C833.523,868,849.008,884.792,849.008,905.509Z" transform="translate(-671.185 -867.999)" fill="#cad3df" opacity="0.37" style="isolation: isolate"/>
          <g id="Grupo_83705-2" data-name="Grupo 83705" transform="translate(4.519 4.682)">
            <g id="Grupo_83701-2" data-name="Grupo 83701">
              <rect id="Rectángulo_14845-2" data-name="Rectángulo 14845" width="169.391" height="67.58" rx="31.435" fill="#cad3df"/>
              <rect id="Rectángulo_14846-2" data-name="Rectángulo 14846" width="160.614" height="58.804" rx="27.248" transform="translate(4.389 4.388)" fill="#f6f6f6" stroke="#fff" stroke-miterlimit="10" stroke-width="0.407"/>
            </g>
            <g id="Grupo_83702-2" data-name="Grupo 83702" transform="translate(66.583 20.641)">
              <g id="edad-2-2" data-name="edad-2" style="isolation: isolate">
                <text id="edad-2-3" data-name="edad" transform="translate(0 17)" fill="#12263f" font-size="16" font-family="Roboto-Bold, Roboto" font-weight="700" style="isolation: isolate"><tspan x="0" y="0">edad</tspan></text>
              </g>
            </g>
          </g>
        </g>
        <path id="Trazado_112853-2" data-name="Trazado 112853" d="M949.629,780.73,914.71,682.143H861.67" transform="translate(-662.038 -561.334)" fill="none" stroke="#b7c2c5" stroke-linecap="round" stroke-linejoin="round" stroke-width="2.812" stroke-dasharray="0 6.561"/>
        <path id="Trazado_112854-2" data-name="Trazado 112854" d="M939.149,959.213l-15.875,59.664h-61.6" transform="translate(-662.038 -548.029)" fill="none" stroke="#b7c2c5" stroke-linecap="round" stroke-linejoin="round" stroke-width="2.812" stroke-dasharray="0 6.561"/>
        <g id="Grupo_83718-2" data-name="Grupo 83718" transform="translate(64.37 82.464)">
          <path id="Rectángulo_15562-9" data-name="Rectángulo 15562" d="M910.428,683.065v1.925c0,20.716-15.483,37.51-34.585,37.51H767.19c-19.1,0-34.584-16.793-34.584-37.51v-1.925c0-20.716,15.483-37.51,34.584-37.51H875.843C894.944,645.555,910.428,662.348,910.428,683.065Z" transform="translate(-732.606 -645.555)" fill="#cad3df" opacity="0.37" style="isolation: isolate"/>
          <g id="Grupo_83717-2" data-name="Grupo 83717" transform="translate(4.518 4.682)">
            <g id="Grupo_83713-2" data-name="Grupo 83713">
              <rect id="Rectángulo_14847-2" data-name="Rectángulo 14847" width="169.391" height="67.58" rx="31.435" fill="#cad3df"/>
              <rect id="Rectángulo_14848-2" data-name="Rectángulo 14848" width="160.614" height="58.804" rx="27.248" transform="translate(4.389 4.388)" fill="#f6f6f6" stroke="#fff" stroke-miterlimit="10" stroke-width="0.407"/>
            </g>
            <g id="Grupo_83714-2" data-name="Grupo 83714" transform="translate(50.662 20.641)">
              <g id="apellidos-2-2" data-name="apellidos-2" style="isolation: isolate">
                <text id="apellidos-2-3" data-name="apellidos" transform="translate(0 17)" fill="#12263f" font-size="16" font-family="Roboto-Bold, Roboto" font-weight="700" style="isolation: isolate"><tspan x="0" y="0">apellidos</tspan></text>
              </g>
            </g>
          </g>
        </g>
        <g id="Grupo_83736-2" data-name="Grupo 83736" transform="translate(228.65 199.73)">
          <g id="Grupo_83725-2" data-name="Grupo 83725" transform="translate(9.62 2.244)">
            <g id="Grupo_83719-2" data-name="Grupo 83719" transform="translate(47.381 17.012)">
              <path id="Trazado_112862-2" data-name="Trazado 112862" d="M1002.279,861.755a4.717,4.717,0,0,1-4.911-2.352l-53-76.534a4.716,4.716,0,1,1,8.2-4.665l.038.067,53,76.535a4.715,4.715,0,0,1-3.324,6.948Z" transform="translate(-943.748 -775.821)" fill="#4dd0e1"/>
            </g>
            <g id="Grupo_83720-2" data-name="Grupo 83720" transform="translate(2.315 57.653)">
              <path id="Trazado_112863-2" data-name="Trazado 112863" d="M1001.441,862.385a4.708,4.708,0,0,1-1.7-.314l-95.974-38.35a4.718,4.718,0,1,1,3.4-8.8l95.976,38.349a4.716,4.716,0,0,1-1.7,9.118Z" transform="translate(-900.747 -814.599)" fill="#4dd0e1"/>
            </g>
            <g id="Grupo_83721-2" data-name="Grupo 83721" transform="translate(0 120.463)">
              <path id="Trazado_112864-2" data-name="Trazado 112864" d="M903.261,909.847a4.716,4.716,0,0,1-1.815-9.072l99.244-25.88a4.717,4.717,0,1,1,3.627,8.708l-99.244,25.88A4.742,4.742,0,0,1,903.261,909.847Z" transform="translate(-898.538 -874.532)" fill="#4dd0e1"/>
            </g>
            <g id="Grupo_83722-2" data-name="Grupo 83722" transform="translate(39.315 120.463)">
              <path id="Trazado_112865-2" data-name="Trazado 112865" d="M940.767,957.2a4.716,4.716,0,0,1-4.369-6.488l59.286-73.236a4.716,4.716,0,0,1,8.741,3.543h0l-59.286,73.236A4.718,4.718,0,0,1,940.767,957.2Z" transform="translate(-936.052 -874.532)" fill="#4dd0e1"/>
            </g>
            <g id="Grupo_83723-2" data-name="Grupo 83723" transform="translate(99.385 120.673)">
              <path id="Trazado_112866-2" data-name="Trazado 112866" d="M1002.427,973.837a4.716,4.716,0,0,1-9.058-1.877l1.317-92.545a4.716,4.716,0,1,1,9.432.068l-1.317,92.545A4.709,4.709,0,0,1,1002.427,973.837Z" transform="translate(-993.369 -874.732)" fill="#4dd0e1"/>
            </g>
            <g id="Grupo_83724-2" data-name="Grupo 83724" transform="translate(100.515)">
              <path id="Trazado_112867-2" data-name="Trazado 112867" d="M994.762,856.072a4.685,4.685,0,0,1-.314-1.7L994.5,764.3a4.716,4.716,0,0,1,9.432.013l-.047,90.074a4.716,4.716,0,0,1-9.118,1.687Z" transform="translate(-994.448 -759.588)" fill="#4dd0e1"/>
            </g>
          </g>
          <g id="Grupo_83726-2" data-name="Grupo 83726">
            <path id="Trazado_112868-2" data-name="Trazado 112868" d="M996.77,757.453a5.186,5.186,0,0,1,5.431,4.93c0,.081.006.161.006.243h0a5.154,5.154,0,0,1-4.884,5.165,103.776,103.776,0,0,0-64.383,26.248l-7.978-6.749A114.1,114.1,0,0,1,996.77,757.453Z" transform="translate(-887.649 -757.447)" fill="#4dd0e1"/>
            <path id="Trazado_112869-2" data-name="Trazado 112869" d="M997.551,967.391A5.176,5.176,0,1,1,997,977.729a114.2,114.2,0,0,1-76.78-34.665l7.894-6.734A103.875,103.875,0,0,0,997.551,967.391Z" transform="translate(-887.877 -748.857)" fill="#4dd0e1"/>
            <path id="Trazado_112870-2" data-name="Trazado 112870" d="M889.611,859.4h10.375q-.27,3.76-.275,7.59A103.865,103.865,0,0,0,929.6,940.024l-7.894,6.734a114.181,114.181,0,0,1-32.343-79.767C889.357,864.444,889.448,861.911,889.611,859.4Z" transform="translate(-889.359 -752.551)" fill="#4dd0e1"/>
            <path id="Trazado_112871-2" data-name="Trazado 112871" d="M926.661,785.922l7.978,6.749a103.953,103.953,0,0,0-34.666,70.258H889.6A114.253,114.253,0,0,1,926.661,785.922Z" transform="translate(-889.348 -756.08)" fill="#4dd0e1"/>
          </g>
          <g id="Grupo_83735-2" data-name="Grupo 83735" transform="translate(0.986 9.177)">
            <g id="Grupo_83728-2" data-name="Grupo 83728" transform="translate(0 131.424)">
              <g id="Grupo_83727-2" data-name="Grupo 83727">
                <circle id="Elipse_4186-2" data-name="Elipse 4186" cx="11.564" cy="11.564" r="11.564" stroke="#fff" stroke-miterlimit="10" stroke-width="0.783" fill="url(#linear-gradient-7)"/>
                <circle id="Elipse_4187-2" data-name="Elipse 4187" cx="8.312" cy="8.312" r="8.312" transform="translate(3.252 3.253)" fill="#4dd0e1"/>
              </g>
            </g>
            <g id="Grupo_83730-2" data-name="Grupo 83730" transform="translate(38.487 182.476)">
              <g id="Grupo_83729-2" data-name="Grupo 83729">
                <circle id="Elipse_4188-2" data-name="Elipse 4188" cx="11.564" cy="11.564" r="11.564" stroke="#fff" stroke-miterlimit="10" stroke-width="0.783" fill="url(#linear-gradient-8)"/>
                <circle id="Elipse_4189-2" data-name="Elipse 4189" cx="8.309" cy="8.309" r="8.309" transform="translate(3.252 3.259)" fill="#4dd0e1"/>
              </g>
            </g>
            <g id="Grupo_83732-2" data-name="Grupo 83732" transform="translate(4.433 45.608)">
              <g id="Grupo_83731-2" data-name="Grupo 83731">
                <circle id="Elipse_4190-2" data-name="Elipse 4190" cx="11.564" cy="11.564" r="11.564" stroke="#fff" stroke-miterlimit="10" stroke-width="0.783" fill="url(#linear-gradient-9)"/>
                <circle id="Elipse_4191-2" data-name="Elipse 4191" cx="8.312" cy="8.312" r="8.312" transform="translate(3.253 3.253)" fill="#4dd0e1"/>
              </g>
            </g>
            <g id="Grupo_83734-2" data-name="Grupo 83734" transform="translate(46.426)">
              <g id="Grupo_83733-2" data-name="Grupo 83733">
                <circle id="Elipse_4192-2" data-name="Elipse 4192" cx="11.564" cy="11.564" r="11.564" stroke="#fff" stroke-miterlimit="10" stroke-width="0.783" fill="url(#linear-gradient-10)"/>
                <circle id="Elipse_4193-2" data-name="Elipse 4193" cx="8.312" cy="8.312" r="8.312" transform="translate(3.252 3.253)" fill="#4dd0e1"/>
              </g>
            </g>
          </g>
        </g>
        <g id="Grupo_83745-2" data-name="Grupo 83745" transform="translate(64.37 432.503)">
          <path id="Rectángulo_15562-10" data-name="Rectángulo 15562" d="M910.428,1017.065v1.925c0,20.716-15.483,37.51-34.585,37.51H767.19c-19.1,0-34.584-16.794-34.584-37.51v-1.925c0-20.716,15.483-37.51,34.584-37.51H875.843C894.944,979.555,910.428,996.348,910.428,1017.065Z" transform="translate(-732.606 -979.555)" fill="#cad3df" opacity="0.37" style="isolation: isolate"/>
          <g id="Grupo_83744-2" data-name="Grupo 83744" transform="translate(4.518 4.682)">
            <g id="Grupo_83740-2" data-name="Grupo 83740">
              <rect id="Rectángulo_14849-2" data-name="Rectángulo 14849" width="169.391" height="67.58" rx="31.435" fill="#cad3df"/>
              <rect id="Rectángulo_14850-2" data-name="Rectángulo 14850" width="160.614" height="58.804" rx="27.248" transform="translate(4.389 4.388)" fill="#f6f6f6" stroke="#fff" stroke-miterlimit="10" stroke-width="0.407"/>
            </g>
            <g id="Grupo_83741-2" data-name="Grupo 83741" transform="translate(69.26 20.641)">
              <g id="pais-2-2" data-name="pais-2" style="isolation: isolate">
                <text id="pais-2-3" data-name="pais" transform="translate(0 17)" fill="#12263f" font-size="16" font-family="Roboto-Bold, Roboto" font-weight="700" style="isolation: isolate"><tspan x="0" y="0">pais</tspan></text>
              </g>
            </g>
          </g>
        </g>
        <line id="Línea_189-2" data-name="Línea 189" x2="0.307" y2="110.239" transform="translate(343.136 431.096)" fill="none" stroke="#b7c2c5" stroke-linecap="round" stroke-linejoin="round" stroke-width="2.812" stroke-dasharray="0 6.561"/>
        <line id="Línea_190-2" data-name="Línea 190" x2="0.307" y2="185.499" transform="translate(343.136 19.224)" fill="none" stroke="#b7c2c5" stroke-linecap="round" stroke-linejoin="round" stroke-width="2.812" stroke-dasharray="0 6.561"/>
        <g id="Grupo_83755-2" data-name="Grupo 83755" transform="translate(254.378 517.552)">
          <path id="Rectángulo_15562-11" data-name="Rectángulo 15562" d="M1091.73,1098.217v1.925c0,20.716-15.484,37.51-34.584,37.51H948.493c-19.1,0-34.585-16.793-34.585-37.51v-1.925c0-20.716,15.483-37.51,34.585-37.51h108.653C1076.246,1060.707,1091.73,1077.5,1091.73,1098.217Z" transform="translate(-913.908 -1060.707)" fill="#cad3df" opacity="0.37" style="isolation: isolate"/>
          <g id="Grupo_83754-2" data-name="Grupo 83754" transform="translate(4.518 4.681)">
            <g id="Grupo_83750-2" data-name="Grupo 83750">
              <rect id="Rectángulo_14851-2" data-name="Rectángulo 14851" width="169.391" height="67.58" rx="31.435" fill="#cad3df"/>
              <rect id="Rectángulo_14852-2" data-name="Rectángulo 14852" width="160.614" height="58.804" rx="27.248" transform="translate(4.389 4.388)" fill="#f6f6f6" stroke="#fff" stroke-miterlimit="10" stroke-width="0.407"/>
            </g>
            <g id="Grupo_83751-2" data-name="Grupo 83751" transform="translate(33.301 20.641)">
              <g id="identificación-2-2" data-name="identificación-2" style="isolation: isolate">
                <text id="identificación-2-3" data-name="identificación" transform="translate(0 17)" fill="#12263f" font-size="16" font-family="Roboto-Bold, Roboto" font-weight="700" style="isolation: isolate"><tspan x="0" y="0">identificación</tspan></text>
              </g>
            </g>
          </g>
        </g>
        <g id="Grupo_83757-2" data-name="Grupo 83757" transform="translate(331.962 413.131)">
          <g id="Grupo_83756-2" data-name="Grupo 83756">
            <circle id="Elipse_4204-2" data-name="Elipse 4204" cx="11.564" cy="11.564" r="11.564" stroke="#fff" stroke-miterlimit="10" stroke-width="0.783" fill="url(#linear-gradient-11)"/>
            <circle id="Elipse_4205-2" data-name="Elipse 4205" cx="8.312" cy="8.312" r="8.312" transform="translate(3.252 3.252)" fill="#4dd0e1"/>
          </g>
        </g>
        <g id="Grupo_83766-2" data-name="Grupo 83766" transform="translate(254.378)">
          <path id="Rectángulo_15562-12" data-name="Rectángulo 15562" d="M1091.73,604.379V606.3c0,20.716-15.484,37.51-34.584,37.51H948.493c-19.1,0-34.585-16.794-34.585-37.51v-1.925c0-20.716,15.483-37.51,34.585-37.51h108.653C1076.246,566.869,1091.73,583.662,1091.73,604.379Z" transform="translate(-913.908 -566.869)" fill="#cad3df" opacity="0.37" style="isolation: isolate"/>
          <g id="Grupo_83765-2" data-name="Grupo 83765" transform="translate(4.518 4.682)">
            <g id="Grupo_83761-2" data-name="Grupo 83761">
              <rect id="Rectángulo_14853-2" data-name="Rectángulo 14853" width="169.391" height="67.58" rx="31.435" fill="#cad3df"/>
              <rect id="Rectángulo_14854-2" data-name="Rectángulo 14854" width="160.614" height="58.804" rx="27.248" transform="translate(4.389 4.388)" fill="#f6f6f6" stroke="#fff" stroke-miterlimit="10" stroke-width="0.407"/>
            </g>
            <g id="Grupo_83762-2" data-name="Grupo 83762" transform="translate(51.616 20.641)">
              <g id="nombres-2-2" data-name="nombres-2" style="isolation: isolate">
                <text id="nombres-2-3" data-name="nombres" transform="translate(0 17)" fill="#12263f" font-size="16" font-family="Roboto-Bold, Roboto" font-weight="700" style="isolation: isolate"><tspan x="0" y="0">nombres</tspan></text>
              </g>
            </g>
          </g>
        </g>
        <g id="Grupo_83768-2" data-name="Grupo 83768" transform="translate(331.352 193.172)">
          <g id="Grupo_83767-2" data-name="Grupo 83767">
            <circle id="Elipse_4211-2" data-name="Elipse 4211" cx="11.564" cy="11.564" r="11.564" stroke="#fff" stroke-miterlimit="10" stroke-width="0.783" fill="url(#linear-gradient-12)"/>
            <circle id="Elipse_4212-2" data-name="Elipse 4212" cx="8.312" cy="8.312" r="8.312" transform="translate(3.252 3.252)" fill="#4dd0e1"/>
          </g>
        </g>
        <g id="Grupo_86401" data-name="Grupo 86401" transform="translate(263.385 269.791)">
          <g id="Grupo_86400" data-name="Grupo 86400">
            <rect id="Rectángulo_15590" data-name="Rectángulo 15590" width="160.609" height="93.041" fill="none" stroke="#b7c2c5" stroke-linecap="round" stroke-linejoin="round" stroke-width="2.812" stroke-dasharray="0 6.561"/>
            <rect id="Rectángulo_15591" data-name="Rectángulo 15591" width="143.939" height="78.851" transform="translate(8.207 7.293)" fill="#cad3df"/>
            <rect id="Rectángulo_15592" data-name="Rectángulo 15592" width="127.013" height="61.926" transform="translate(16.67 15.755)" fill="#f6f6f6" stroke="#fff" stroke-miterlimit="10" stroke-width="0.469"/>
          </g>
          <g id="Grupo_86372-2" data-name="Grupo 86372" transform="translate(32.831 30.638)">
            <g id="PERSONA-3" data-name="PERSONA" style="isolation: isolate">
              <text id="PERSONA-4" data-name="PERSONA" transform="translate(0 21)" fill="#12263f" font-size="20" font-family="Roboto-Bold, Roboto" font-weight="700" style="isolation: isolate"><tspan x="0" y="0">PERSONA</tspan></text>
            </g>
          </g>
        </g>
      </g>
    </g>
  </g>
  <path id="Trazado_116159" data-name="Trazado 116159" d="M-4213.056-7574.3h97.945" transform="translate(4626 8205)" fill="none" stroke="#13273e" stroke-width="1"/>
</svg>
