<svg xmlns="http://www.w3.org/2000/svg" width="686.099" height="291.563" viewBox="0 0 686.099 291.563">
  <g id="Grupo_56365" data-name="Grupo 56365" transform="translate(6523.165 2960)">
    <path id="Trazado_103141" data-name="Trazado 103141" d="M1945.536,76.675H2147.82v73.331h210.248" transform="translate(-8327.124 -3005.689)" fill="none" stroke="#afafaf" stroke-width="6"/>
    <path id="Trazado_103142" data-name="Trazado 103142" d="M2124.993,275.209h27.216V162.314h207.738" transform="translate(-8326.709 -3003.061)" fill="none" stroke="#afafaf" stroke-width="6"/>
    <g id="Grupo_56370" data-name="Grupo 56370" transform="translate(-6522 -2958)">
      <rect id="Rectángulo_14485" data-name="Rectángulo 14485" width="213.167" height="160.37" transform="translate(0.835)" fill="none" stroke="#afafaf" stroke-width="4"/>
      <rect id="Rectángulo_14486" data-name="Rectángulo 14486" width="213.167" height="151.131" transform="translate(0.835 9.239)" fill="#fff"/>
      <rect id="Rectángulo_14487" data-name="Rectángulo 14487" width="213.167" height="25.242" transform="translate(0.835)" fill="#4dd0e1"/>
      <rect id="Rectángulo_14488" data-name="Rectángulo 14488" width="27.124" height="112.689" transform="translate(0 25.242)" fill="#4dd0e1" stroke="#afafaf" stroke-width="1"/>
      <line id="Línea_153" data-name="Línea 153" x2="213.167" transform="translate(0.835 48.177)" fill="none" stroke="#afafaf" stroke-linecap="round" stroke-width="1"/>
      <line id="Línea_153-2" data-name="Línea 153" x2="213.167" transform="translate(0.835 70.616)" fill="none" stroke="#afafaf" stroke-linecap="round" stroke-width="1"/>
      <line id="Línea_153-3" data-name="Línea 153" x2="213.167" transform="translate(0.835 93.054)" fill="none" stroke="#afafaf" stroke-linecap="round" stroke-width="1"/>
      <line id="Línea_153-4" data-name="Línea 153" x2="213.167" transform="translate(0.835 115.493)" fill="none" stroke="#afafaf" stroke-linecap="round" stroke-width="1"/>
      <line id="Línea_153-5" data-name="Línea 153" x2="213.167" transform="translate(0.835 137.932)" fill="none" stroke="#afafaf" stroke-linecap="round" stroke-width="1"/>
      <line id="Línea_153-6" data-name="Línea 153" x2="213.167" transform="translate(0.835 25.242)" fill="none" stroke="#afafaf" stroke-linecap="round" stroke-width="1"/>
      <text id="ID_Cliente" transform="translate(34.259 29.663)" fill="#12263f" font-size="13" font-family="Roboto-Regular, Roboto" letter-spacing="0.05em"><tspan x="0" y="12">ID_Cliente</tspan></text>
      <text id="sNombreCliente" transform="translate(34.259 52.76)" fill="#12263f" font-size="13" font-family="Roboto-Regular, Roboto" letter-spacing="0.05em"><tspan x="0" y="12">sNombreCliente</tspan></text>
      <text id="sApellidosCliente" transform="translate(34.259 74.884)" fill="#12263f" font-size="13" font-family="Roboto-Regular, Roboto" letter-spacing="0.05em"><tspan x="0" y="12">sApellidosCliente</tspan></text>
      <text id="sDireccionCliente" transform="translate(34.259 97.981)" fill="#12263f" font-size="13" font-family="Roboto-Regular, Roboto" letter-spacing="0.05em"><tspan x="0" y="12">sDireccionCliente</tspan></text>
      <text id="sCiudadCliente" transform="translate(34.813 119.517)" fill="#12263f" font-size="13" font-family="Roboto-Regular, Roboto" letter-spacing="0.05em"><tspan x="0" y="12">sCiudadCliente</tspan></text>
      <path id="Trazado_103143" data-name="Trazado 103143" d="M1988.457,69.723a3.98,3.98,0,1,0-5.164,3.8v9.638c0,.763,0,.763,1.386,2.344,1.383-1.581,1.383-1.581,1.383-2.344v.025l-.691-1.007-.49-.85.49-.88h.693v-1.1h-.691V77.615h.691v-.807h-.691l-.36-.885.36-.846h.691v-1.7A3.981,3.981,0,0,0,1988.457,69.723Zm-3.979-.546h0a1.127,1.127,0,1,1,1.128-1.127A1.131,1.131,0,0,1,1984.476,69.177Z" transform="translate(-1970.915 -38.916)" fill="#9d9c9c"/>
    </g>
    <g id="Grupo_56372" data-name="Grupo 56372" transform="translate(-6053.067 -2920.066)">
      <g id="Grupo_56368" data-name="Grupo 56368" transform="translate(0)">
        <rect id="Rectángulo_14489" data-name="Rectángulo 14489" width="213.167" height="137.767" transform="translate(0.835)" fill="none" stroke="#afafaf" stroke-width="4"/>
        <rect id="Rectángulo_14490" data-name="Rectángulo 14490" width="213.167" height="129.829" transform="translate(0.835 7.937)" fill="#fff"/>
        <rect id="Rectángulo_14491" data-name="Rectángulo 14491" width="213.167" height="25.242" transform="translate(0.835)" fill="#4dd0e1"/>
        <rect id="Rectángulo_14492" data-name="Rectángulo 14492" width="27.124" height="90.251" transform="translate(0 25.242)" fill="#4dd0e1" stroke="#afafaf" stroke-width="1"/>
        <line id="Línea_153-7" data-name="Línea 153" x2="213.167" transform="translate(0.835 48.177)" fill="none" stroke="#afafaf" stroke-linecap="round" stroke-width="1"/>
        <line id="Línea_153-8" data-name="Línea 153" x2="213.167" transform="translate(0.835 70.616)" fill="none" stroke="#afafaf" stroke-linecap="round" stroke-width="1"/>
        <line id="Línea_153-9" data-name="Línea 153" x2="213.167" transform="translate(0.835 93.054)" fill="none" stroke="#afafaf" stroke-linecap="round" stroke-width="1"/>
        <line id="Línea_153-10" data-name="Línea 153" x2="213.167" transform="translate(0.835 115.493)" fill="none" stroke="#afafaf" stroke-linecap="round" stroke-width="1"/>
        <line id="Línea_153-11" data-name="Línea 153" x2="213.167" transform="translate(0.835 25.242)" fill="none" stroke="#afafaf" stroke-linecap="round" stroke-width="1"/>
        <text id="ID_Cliente-2" data-name="ID_Cliente" transform="translate(32.743 27.007)" fill="#12263f" font-size="13" font-family="Roboto-Regular, Roboto" letter-spacing="0.05em"><tspan x="0" y="12">ID_Cliente</tspan></text>
        <text id="ID_Vehiculo" transform="translate(32.743 50.103)" fill="#12263f" font-size="13" font-family="Roboto-Regular, Roboto" letter-spacing="0.05em"><tspan x="0" y="12">ID_Vehiculo</tspan></text>
        <text id="sMatricula" transform="translate(32.743 72.229)" fill="#12263f" font-size="13" font-family="Roboto-Regular, Roboto" letter-spacing="0.05em"><tspan x="0" y="12">sMatricula</tspan></text>
        <text id="iKilometros" transform="translate(32.743 95.325)" fill="#12263f" font-size="13" font-family="Roboto-Regular, Roboto" letter-spacing="0.05em"><tspan x="0" y="12">iKilometros</tspan></text>
        <path id="Trazado_103144" data-name="Trazado 103144" d="M2205.408,143.733a3.98,3.98,0,1,0-5.164,3.8v9.638c0,.765,0,.765,1.386,2.345,1.384-1.581,1.384-1.581,1.384-2.345v.027l-.691-1.007-.49-.852.49-.879h.692v-1.1l-.691,0v-1.729h.691v-.808h-.692l-.361-.883.361-.847h.692v-1.7A3.979,3.979,0,0,0,2205.408,143.733Zm-3.979-.548h0a1.127,1.127,0,1,1,1.128-1.127A1.127,1.127,0,0,1,2201.427,143.185Z" transform="translate(-2187.866 -112.925)" fill="#9d9c9c"/>
        <path id="Trazado_103145" data-name="Trazado 103145" d="M2205.408,158.269a3.98,3.98,0,1,0-5.164,3.8v9.638c0,.765,0,.765,1.386,2.345,1.384-1.581,1.384-1.581,1.384-2.345v.025l-.691-1-.49-.852.49-.879h.692v-1.106h-.691v-1.729h.691v-.808h-.692l-.361-.883.361-.847h.692v-1.7A3.982,3.982,0,0,0,2205.408,158.269Zm-3.979-.546h0a1.127,1.127,0,1,1,1.128-1.127A1.127,1.127,0,0,1,2201.427,157.723Z" transform="translate(-2187.866 -104.775)" fill="#9d9c9c"/>
      </g>
    </g>
    <g id="Grupo_56371" data-name="Grupo 56371" transform="translate(-6415.718 -2785.267)">
      <rect id="Rectángulo_14493" data-name="Rectángulo 14493" width="213.167" height="114.829" transform="translate(0.835 0)" fill="none" stroke="#afafaf" stroke-width="4"/>
      <rect id="Rectángulo_14494" data-name="Rectángulo 14494" width="213.167" height="108.214" transform="translate(0.835 6.616)" fill="#fff"/>
      <rect id="Rectángulo_14495" data-name="Rectángulo 14495" width="213.167" height="25.242" transform="translate(0.835 0)" fill="#4dd0e1"/>
      <rect id="Rectángulo_14496" data-name="Rectángulo 14496" width="27.124" height="67.812" transform="translate(0 25.242)" fill="#4dd0e1" stroke="#afafaf" stroke-width="1"/>
      <line id="Línea_153-12" data-name="Línea 153" x2="213.167" transform="translate(0.835 48.177)" fill="none" stroke="#afafaf" stroke-linecap="round" stroke-width="1"/>
      <line id="Línea_153-13" data-name="Línea 153" x2="213.167" transform="translate(0.835 70.616)" fill="none" stroke="#afafaf" stroke-linecap="round" stroke-width="1"/>
      <line id="Línea_153-14" data-name="Línea 153" x2="213.167" transform="translate(0.835 93.054)" fill="none" stroke="#afafaf" stroke-linecap="round" stroke-width="1"/>
      <line id="Línea_153-15" data-name="Línea 153" x2="213.167" transform="translate(0.835 25.242)" fill="none" stroke="#afafaf" stroke-linecap="round" stroke-width="1"/>
      <g id="Grupo_56365-2" data-name="Grupo 56365" transform="translate(32.252 27.049)">
        <text id="ID_Vehiculo-2" data-name="ID_Vehiculo" transform="translate(0 1)" fill="#12263f" font-size="13" font-family="Roboto-Regular, Roboto" letter-spacing="0.05em"><tspan x="0" y="12">ID_Vehiculo</tspan></text>
        <text id="sMatricula-2" data-name="sMatricula" transform="translate(0 23.126)" fill="#12263f" font-size="13" font-family="Roboto-Regular, Roboto" letter-spacing="0.05em"><tspan x="0" y="12">sMatricula</tspan></text>
        <text id="sModelo" transform="translate(0 46.222)" fill="#12263f" font-size="13" font-family="Roboto-Regular, Roboto" letter-spacing="0.05em"><tspan x="0" y="12">sModelo</tspan></text>
      </g>
      <path id="Trazado_103146" data-name="Trazado 103146" d="M2001.959,265.954a3.979,3.979,0,1,0-5.162,3.8v9.639c0,.763,0,.763,1.384,2.344,1.384-1.581,1.384-1.581,1.384-2.344v.025l-.691-1.007-.49-.85.49-.88h.691v-1.1h-.691v-1.731h.691v-.807h-.691l-.361-.885.361-.846h.691V269.6A3.976,3.976,0,0,0,2001.959,265.954Zm-3.978-.546h0a1.127,1.127,0,1,1,1.127-1.127A1.129,1.129,0,0,1,1997.979,265.408Z" transform="translate(-1984.418 -235.146)" fill="#9d9c9c"/>
    </g>
  </g>
  <path id="Trazado_116054" data-name="Trazado 116054" d="M5.019-12.8l2.856,8.9,2.848-8.9h4.061V0H11.689V-2.988l.3-6.117L8.895,0H6.855l-3.1-9.114.3,6.126V0H.967V-12.8ZM16.743,0V-12.8h4.122a6.064,6.064,0,0,1,3.05.769,5.406,5.406,0,0,1,2.114,2.171A6.554,6.554,0,0,1,26.8-6.715v.589a6.592,6.592,0,0,1-.743,3.151A5.429,5.429,0,0,1,23.963-.8a5.93,5.93,0,0,1-3.01.8Zm3.085-10.415v8.042H20.9a2.4,2.4,0,0,0,2.039-.945,4.63,4.63,0,0,0,.712-2.808V-6.68a4.592,4.592,0,0,0-.712-2.795,2.442,2.442,0,0,0-2.074-.94ZM35.35,2.206H27.413V0H35.35ZM46.679-4.333a4.673,4.673,0,0,1-.721,2.36,4.35,4.35,0,0,1-1.85,1.586,6.3,6.3,0,0,1-2.72.563,5.025,5.025,0,0,1-3.973-1.644,6.786,6.786,0,0,1-1.45-4.641v-.633a7.746,7.746,0,0,1,.655-3.292,4.961,4.961,0,0,1,1.885-2.18,5.26,5.26,0,0,1,2.848-.769A5.516,5.516,0,0,1,45.1-11.755a4.844,4.844,0,0,1,1.608,3.379H43.629a2.292,2.292,0,0,0-.589-1.679,2.422,2.422,0,0,0-1.687-.51,1.843,1.843,0,0,0-1.687.861A5.536,5.536,0,0,0,39.1-6.952v.905a6.126,6.126,0,0,0,.514,2.927,1.882,1.882,0,0,0,1.771.879,2.369,2.369,0,0,0,1.626-.5,2.126,2.126,0,0,0,.6-1.591ZM51.126,0H48.155V-13.5h2.971Zm4.948,0H53.1V-9.51h2.971ZM52.928-11.962A1.322,1.322,0,0,1,53.385-13a1.724,1.724,0,0,1,1.187-.4,1.724,1.724,0,0,1,1.187.4,1.322,1.322,0,0,1,.457,1.037,1.322,1.322,0,0,1-.457,1.037,1.724,1.724,0,0,1-1.187.4,1.724,1.724,0,0,1-1.187-.4A1.322,1.322,0,0,1,52.928-11.962ZM62.5.176a4.889,4.889,0,0,1-3.542-1.305,4.507,4.507,0,0,1-1.354-3.4v-.246a5.84,5.84,0,0,1,.541-2.575,3.955,3.955,0,0,1,1.578-1.727,4.763,4.763,0,0,1,2.461-.611,4.117,4.117,0,0,1,3.164,1.244,4.887,4.887,0,0,1,1.16,3.467v1.151H60.618a2.135,2.135,0,0,0,.694,1.257,2.066,2.066,0,0,0,1.389.457,2.662,2.662,0,0,0,2.2-.984l1.354,1.6A3.784,3.784,0,0,1,64.683-.277,5.3,5.3,0,0,1,62.5.176ZM62.165-7.4q-1.3,0-1.547,1.723h2.988v-.229a1.467,1.467,0,0,0-.36-1.1A1.434,1.434,0,0,0,62.165-7.4ZM70.418-9.51l.1,1.116A3.225,3.225,0,0,1,73.23-9.686,2.713,2.713,0,0,1,75.45-8.8a4.226,4.226,0,0,1,.76,2.672V0H73.239V-6a1.6,1.6,0,0,0-.29-1.059A1.342,1.342,0,0,0,71.895-7.4a1.413,1.413,0,0,0-1.292.686V0H67.641V-9.51ZM81.3-11.874V-9.51h1.564v2.057H81.3V-3.1a1.111,1.111,0,0,0,.193.747,1.037,1.037,0,0,0,.765.211A4.345,4.345,0,0,0,83-2.2V-.079a5.466,5.466,0,0,1-1.67.255,3.1,3.1,0,0,1-2.259-.721,2.954,2.954,0,0,1-.729-2.188v-4.72H77.124V-9.51h1.213v-2.364ZM88.629.176a4.889,4.889,0,0,1-3.542-1.305,4.507,4.507,0,0,1-1.354-3.4v-.246a5.84,5.84,0,0,1,.541-2.575,3.955,3.955,0,0,1,1.578-1.727,4.763,4.763,0,0,1,2.461-.611,4.117,4.117,0,0,1,3.164,1.244,4.887,4.887,0,0,1,1.16,3.467v1.151H86.748a2.135,2.135,0,0,0,.694,1.257,2.066,2.066,0,0,0,1.389.457,2.662,2.662,0,0,0,2.2-.984l1.354,1.6A3.784,3.784,0,0,1,90.813-.277,5.3,5.3,0,0,1,88.629.176ZM88.295-7.4q-1.3,0-1.547,1.723h2.988v-.229a1.467,1.467,0,0,0-.36-1.1A1.434,1.434,0,0,0,88.295-7.4Z" transform="translate(57.165 21)" fill="#12263f"/>
  <path id="Trazado_116053" data-name="Trazado 116053" d="M5.019-12.8l2.856,8.9,2.848-8.9h4.061V0H11.689V-2.988l.3-6.117L8.895,0H6.855l-3.1-9.114.3,6.126V0H.967V-12.8ZM16.743,0V-12.8h4.122a6.064,6.064,0,0,1,3.05.769,5.406,5.406,0,0,1,2.114,2.171A6.554,6.554,0,0,1,26.8-6.715v.589a6.592,6.592,0,0,1-.743,3.151A5.429,5.429,0,0,1,23.963-.8a5.93,5.93,0,0,1-3.01.8Zm3.085-10.415v8.042H20.9a2.4,2.4,0,0,0,2.039-.945,4.63,4.63,0,0,0,.712-2.808V-6.68a4.592,4.592,0,0,0-.712-2.795,2.442,2.442,0,0,0-2.074-.94ZM35.35,2.206H27.413V0H35.35ZM41.291-3.48,43.84-12.8h3.445L42.979,0H39.6L35.332-12.8h3.419Zm11,3.656a4.889,4.889,0,0,1-3.542-1.305,4.507,4.507,0,0,1-1.354-3.4v-.246a5.84,5.84,0,0,1,.541-2.575,3.955,3.955,0,0,1,1.578-1.727,4.763,4.763,0,0,1,2.461-.611,4.117,4.117,0,0,1,3.164,1.244A4.887,4.887,0,0,1,56.3-4.975v1.151H50.414a2.135,2.135,0,0,0,.694,1.257,2.066,2.066,0,0,0,1.389.457,2.662,2.662,0,0,0,2.2-.984l1.354,1.6A3.784,3.784,0,0,1,54.479-.277,5.3,5.3,0,0,1,52.295.176ZM51.961-7.4q-1.3,0-1.547,1.723H53.4v-.229a1.467,1.467,0,0,0-.36-1.1A1.434,1.434,0,0,0,51.961-7.4ZM60.39-8.49a2.964,2.964,0,0,1,2.426-1.2,2.956,2.956,0,0,1,2.373.932A4.186,4.186,0,0,1,66.006-6V0H63.035V-5.933a1.674,1.674,0,0,0-.308-1.112A1.322,1.322,0,0,0,61.682-7.4a1.424,1.424,0,0,0-1.292.58V0H57.428V-13.5H60.39ZM70.778,0H67.808V-9.51h2.971ZM67.632-11.962A1.322,1.322,0,0,1,68.089-13a1.724,1.724,0,0,1,1.187-.4,1.724,1.724,0,0,1,1.187.4,1.322,1.322,0,0,1,.457,1.037,1.322,1.322,0,0,1-.457,1.037,1.724,1.724,0,0,1-1.187.4,1.724,1.724,0,0,1-1.187-.4A1.322,1.322,0,0,1,67.632-11.962Zm8.991,9.853a1.317,1.317,0,0,0,.967-.338,1.241,1.241,0,0,0,.334-.945H80.7A3.288,3.288,0,0,1,79.581-.826a4.168,4.168,0,0,1-2.887,1,4.22,4.22,0,0,1-3.27-1.3,5.125,5.125,0,0,1-1.2-3.6v-.123A5.792,5.792,0,0,1,72.76-7.4a3.872,3.872,0,0,1,1.534-1.7,4.573,4.573,0,0,1,2.373-.593,4.116,4.116,0,0,1,2.944,1.028A3.647,3.647,0,0,1,80.7-5.871H77.924A1.626,1.626,0,0,0,77.563-7a1.244,1.244,0,0,0-.967-.4q-1.151,0-1.345,1.468a10.357,10.357,0,0,0-.062,1.283,4.068,4.068,0,0,0,.343,1.986A1.187,1.187,0,0,0,76.623-2.109Zm11,1.081a3.054,3.054,0,0,1-2.54,1.2,3,3,0,0,1-2.369-.91,3.826,3.826,0,0,1-.8-2.615V-9.51h2.962v6.179a1.065,1.065,0,0,0,1.187,1.222,1.548,1.548,0,0,0,1.45-.729V-9.51h2.979V0H87.706ZM95.229,0H92.259V-13.5h2.971Zm1.45-4.843a5.613,5.613,0,0,1,.554-2.536,3.96,3.96,0,0,1,1.591-1.709,4.791,4.791,0,0,1,2.435-.6,4.373,4.373,0,0,1,3.366,1.323,5.076,5.076,0,0,1,1.23,3.6v.105a4.925,4.925,0,0,1-1.235,3.529A4.384,4.384,0,0,1,101.276.176a4.434,4.434,0,0,1-3.261-1.217,4.761,4.761,0,0,1-1.327-3.3Zm2.962.185a3.538,3.538,0,0,0,.413,1.934,1.376,1.376,0,0,0,1.222.615q1.582,0,1.617-2.435v-.3q0-2.558-1.635-2.558-1.485,0-1.608,2.206Z" transform="translate(162.165 194)" fill="#12263f"/>
  <path id="Trazado_116055" data-name="Trazado 116055" d="M5.019-12.8l2.856,8.9,2.848-8.9h4.061V0H11.689V-2.988l.3-6.117L8.895,0H6.855l-3.1-9.114.3,6.126V0H.967V-12.8ZM16.743,0V-12.8h4.122a6.064,6.064,0,0,1,3.05.769,5.406,5.406,0,0,1,2.114,2.171A6.554,6.554,0,0,1,26.8-6.715v.589a6.592,6.592,0,0,1-.743,3.151A5.429,5.429,0,0,1,23.963-.8a5.93,5.93,0,0,1-3.01.8Zm3.085-10.415v8.042H20.9a2.4,2.4,0,0,0,2.039-.945,4.63,4.63,0,0,0,.712-2.808V-6.68a4.592,4.592,0,0,0-.712-2.795,2.442,2.442,0,0,0-2.074-.94ZM35.35,2.206H27.413V0H35.35ZM46.679-4.333a4.673,4.673,0,0,1-.721,2.36,4.35,4.35,0,0,1-1.85,1.586,6.3,6.3,0,0,1-2.72.563,5.025,5.025,0,0,1-3.973-1.644,6.786,6.786,0,0,1-1.45-4.641v-.633a7.746,7.746,0,0,1,.655-3.292,4.961,4.961,0,0,1,1.885-2.18,5.26,5.26,0,0,1,2.848-.769A5.516,5.516,0,0,1,45.1-11.755a4.844,4.844,0,0,1,1.608,3.379H43.629a2.292,2.292,0,0,0-.589-1.679,2.422,2.422,0,0,0-1.687-.51,1.843,1.843,0,0,0-1.687.861A5.536,5.536,0,0,0,39.1-6.952v.905a6.126,6.126,0,0,0,.514,2.927,1.882,1.882,0,0,0,1.771.879,2.369,2.369,0,0,0,1.626-.5,2.126,2.126,0,0,0,.6-1.591ZM51.126,0H48.155V-13.5h2.971Zm4.948,0H53.1V-9.51h2.971ZM52.928-11.962A1.322,1.322,0,0,1,53.385-13a1.724,1.724,0,0,1,1.187-.4,1.724,1.724,0,0,1,1.187.4,1.322,1.322,0,0,1,.457,1.037,1.322,1.322,0,0,1-.457,1.037,1.724,1.724,0,0,1-1.187.4,1.724,1.724,0,0,1-1.187-.4A1.322,1.322,0,0,1,52.928-11.962ZM62.5.176a4.889,4.889,0,0,1-3.542-1.305,4.507,4.507,0,0,1-1.354-3.4v-.246a5.84,5.84,0,0,1,.541-2.575,3.955,3.955,0,0,1,1.578-1.727,4.763,4.763,0,0,1,2.461-.611,4.117,4.117,0,0,1,3.164,1.244,4.887,4.887,0,0,1,1.16,3.467v1.151H60.618a2.135,2.135,0,0,0,.694,1.257,2.066,2.066,0,0,0,1.389.457,2.662,2.662,0,0,0,2.2-.984l1.354,1.6A3.784,3.784,0,0,1,64.683-.277,5.3,5.3,0,0,1,62.5.176ZM62.165-7.4q-1.3,0-1.547,1.723h2.988v-.229a1.467,1.467,0,0,0-.36-1.1A1.434,1.434,0,0,0,62.165-7.4ZM70.418-9.51l.1,1.116A3.225,3.225,0,0,1,73.23-9.686,2.713,2.713,0,0,1,75.45-8.8a4.226,4.226,0,0,1,.76,2.672V0H73.239V-6a1.6,1.6,0,0,0-.29-1.059A1.342,1.342,0,0,0,71.895-7.4a1.413,1.413,0,0,0-1.292.686V0H67.641V-9.51ZM81.3-11.874V-9.51h1.564v2.057H81.3V-3.1a1.111,1.111,0,0,0,.193.747,1.037,1.037,0,0,0,.765.211A4.345,4.345,0,0,0,83-2.2V-.079a5.466,5.466,0,0,1-1.67.255,3.1,3.1,0,0,1-2.259-.721,2.954,2.954,0,0,1-.729-2.188v-4.72H77.124V-9.51h1.213v-2.364ZM88.629.176a4.889,4.889,0,0,1-3.542-1.305,4.507,4.507,0,0,1-1.354-3.4v-.246a5.84,5.84,0,0,1,.541-2.575,3.955,3.955,0,0,1,1.578-1.727,4.763,4.763,0,0,1,2.461-.611,4.117,4.117,0,0,1,3.164,1.244,4.887,4.887,0,0,1,1.16,3.467v1.151H86.748a2.135,2.135,0,0,0,.694,1.257,2.066,2.066,0,0,0,1.389.457,2.662,2.662,0,0,0,2.2-.984l1.354,1.6A3.784,3.784,0,0,1,90.813-.277,5.3,5.3,0,0,1,88.629.176ZM88.295-7.4q-1.3,0-1.547,1.723h2.988v-.229a1.467,1.467,0,0,0-.36-1.1A1.434,1.434,0,0,0,88.295-7.4ZM98.93-3.48l2.549-9.316h3.445L100.617,0H97.242L92.971-12.8H96.39Zm11,3.656a4.889,4.889,0,0,1-3.542-1.305,4.507,4.507,0,0,1-1.354-3.4v-.246a5.84,5.84,0,0,1,.541-2.575,3.955,3.955,0,0,1,1.578-1.727,4.763,4.763,0,0,1,2.461-.611,4.117,4.117,0,0,1,3.164,1.244,4.887,4.887,0,0,1,1.16,3.467v1.151h-5.889a2.135,2.135,0,0,0,.694,1.257,2.066,2.066,0,0,0,1.389.457,2.662,2.662,0,0,0,2.2-.984l1.354,1.6a3.784,3.784,0,0,1-1.569,1.217A5.3,5.3,0,0,1,109.934.176ZM109.6-7.4q-1.3,0-1.547,1.723h2.988v-.229a1.467,1.467,0,0,0-.36-1.1A1.434,1.434,0,0,0,109.6-7.4Zm8.429-1.09a2.964,2.964,0,0,1,2.426-1.2,2.956,2.956,0,0,1,2.373.932A4.186,4.186,0,0,1,123.645-6V0h-2.971V-5.933a1.674,1.674,0,0,0-.308-1.112A1.322,1.322,0,0,0,119.32-7.4a1.424,1.424,0,0,0-1.292.58V0h-2.962V-13.5h2.962ZM128.417,0h-2.971V-9.51h2.971Zm-3.146-11.962A1.322,1.322,0,0,1,125.728-13a1.724,1.724,0,0,1,1.187-.4,1.724,1.724,0,0,1,1.187.4,1.322,1.322,0,0,1,.457,1.037,1.322,1.322,0,0,1-.457,1.037,1.724,1.724,0,0,1-1.187.4,1.724,1.724,0,0,1-1.187-.4A1.322,1.322,0,0,1,125.271-11.962Zm8.991,9.853a1.317,1.317,0,0,0,.967-.338,1.241,1.241,0,0,0,.334-.945h2.777a3.288,3.288,0,0,1-1.121,2.566,4.168,4.168,0,0,1-2.887,1,4.22,4.22,0,0,1-3.27-1.3,5.125,5.125,0,0,1-1.2-3.6v-.123A5.792,5.792,0,0,1,130.4-7.4a3.872,3.872,0,0,1,1.534-1.7,4.573,4.573,0,0,1,2.373-.593,4.116,4.116,0,0,1,2.944,1.028,3.647,3.647,0,0,1,1.09,2.786h-2.777A1.626,1.626,0,0,0,135.2-7a1.244,1.244,0,0,0-.967-.4q-1.151,0-1.345,1.468a10.357,10.357,0,0,0-.062,1.283,4.068,4.068,0,0,0,.343,1.986A1.187,1.187,0,0,0,134.262-2.109Zm11,1.081a3.054,3.054,0,0,1-2.54,1.2,3,3,0,0,1-2.369-.91,3.826,3.826,0,0,1-.8-2.615V-9.51h2.962v6.179a1.065,1.065,0,0,0,1.187,1.222,1.548,1.548,0,0,0,1.45-.729V-9.51h2.979V0h-2.777ZM152.868,0H149.9V-13.5h2.971Zm1.45-4.843a5.613,5.613,0,0,1,.554-2.536,3.96,3.96,0,0,1,1.591-1.709,4.791,4.791,0,0,1,2.435-.6,4.373,4.373,0,0,1,3.366,1.323,5.076,5.076,0,0,1,1.23,3.6v.105a4.925,4.925,0,0,1-1.235,3.529A4.384,4.384,0,0,1,158.915.176a4.434,4.434,0,0,1-3.261-1.217,4.761,4.761,0,0,1-1.327-3.3Zm2.962.185a3.538,3.538,0,0,0,.413,1.934,1.376,1.376,0,0,0,1.222.615q1.582,0,1.617-2.435v-.3q0-2.558-1.635-2.558-1.485,0-1.608,2.206Z" transform="translate(495.165 59)" fill="#12263f"/>
</svg>
