<svg xmlns="http://www.w3.org/2000/svg" xmlns:xlink="http://www.w3.org/1999/xlink" width="675.099" height="623.506" viewBox="0 0 675.099 623.506">
  <defs>
    <filter id="Elipse_4221" x="303.132" y="269.649" width="140.044" height="140.044" filterUnits="userSpaceOnUse">
      <feOffset dx="2.812" dy="2.812" input="SourceAlpha"/>
      <feGaussianBlur stdDeviation="2.343" result="blur"/>
      <feFlood flood-opacity="0.122"/>
      <feComposite operator="in" in2="blur"/>
      <feComposite in="SourceGraphic"/>
    </filter>
    <linearGradient id="linear-gradient" x1="-183.174" y1="0.5" x2="-182.174" y2="0.5" gradientUnits="objectBoundingBox">
      <stop offset="0" stop-color="#fff"/>
      <stop offset="1" stop-color="#d5d5d5"/>
    </linearGradient>
    <linearGradient id="linear-gradient-2" x1="-186.503" y1="0.5" x2="-185.503" y2="0.5" xlink:href="#linear-gradient"/>
    <linearGradient id="linear-gradient-3" x1="-183.558" y1="0.5" x2="-182.558" y2="0.5" xlink:href="#linear-gradient"/>
    <linearGradient id="linear-gradient-4" x1="-187.189" y1="0.5" x2="-186.189" y2="0.5" xlink:href="#linear-gradient"/>
    <linearGradient id="linear-gradient-5" x1="-192.023" y1="0.5" x2="-191.023" y2="0.5" xlink:href="#linear-gradient"/>
    <linearGradient id="linear-gradient-6" x1="-191.97" y1="0.5" x2="-190.97" y2="0.5" xlink:href="#linear-gradient"/>
    <linearGradient id="linear-gradient-7" x1="-223.325" y1="0.5" x2="-222.325" y2="0.5" xlink:href="#linear-gradient"/>
  </defs>
  <g id="Grupo_83868" data-name="Grupo 83868" transform="translate(-451 -6306)">
    <g id="Grupo_83867" data-name="Grupo 83867" transform="translate(-1002.227 5734.93)">
      <g id="Grupo_83852" data-name="Grupo 83852">
        <g id="Grupo_83771" data-name="Grupo 83771">
          <path id="Trazado_112881" data-name="Trazado 112881" d="M1727.2,861.43l1-36H1619.571" fill="none" stroke="#b7c2c5" stroke-linecap="round" stroke-linejoin="round" stroke-width="2.812" stroke-dasharray="0 6.561"/>
        </g>
        <g id="Grupo_83772" data-name="Grupo 83772">
          <line id="Línea_191" data-name="Línea 191" x1="108.626" transform="translate(1619.571 945.43)" fill="none" stroke="#b7c2c5" stroke-linecap="round" stroke-linejoin="round" stroke-width="2.812" stroke-dasharray="0 6.561"/>
        </g>
        <g id="Grupo_83781" data-name="Grupo 83781">
          <path id="Trazado_112882" data-name="Trazado 112882" d="M1454.441,843.978a36.187,36.187,0,0,1,34.533-26.08h98.007a29.769,29.769,0,0,1,28.42-21.356c.656,0,1.323.022,1.982.065a29.594,29.594,0,0,1,8.94,57.031l-2.924,5.849a36.15,36.15,0,0,1-35.666,31.83h-98.759a36.059,36.059,0,0,1-35.124-28.5C1452.16,848.147,1454.441,843.978,1454.441,843.978Z" fill="#cad3df" opacity="0.37"/>
          <g id="Grupo_83775" data-name="Grupo 83775">
            <g id="Grupo_83774" data-name="Grupo 83774">
              <circle id="Elipse_4213" data-name="Elipse 4213" cx="4.187" cy="4.187" r="4.187" transform="translate(1649.933 810.445)" fill="#4dd0e1"/>
              <g id="Grupo_83773" data-name="Grupo 83773">
                <path id="Trazado_112883" data-name="Trazado 112883" d="M1577.922,802.441a4.187,4.187,0,1,0,4.187-4.187A4.188,4.188,0,0,0,1577.922,802.441Z" fill="#4dd0e1"/>
                <path id="Trazado_112884" data-name="Trazado 112884" d="M1569.715,810a2.257,2.257,0,1,0,2.257-2.257A2.258,2.258,0,0,0,1569.715,810Z" fill="#4dd0e1"/>
              </g>
              <circle id="Elipse_4214" data-name="Elipse 4214" cx="2.234" cy="2.234" r="2.234" transform="translate(1625.913 861.082)" fill="#4dd0e1"/>
              <circle id="Elipse_4215" data-name="Elipse 4215" cx="4.187" cy="4.187" r="4.187" transform="translate(1637.388 857.734)" fill="#4dd0e1"/>
            </g>
          </g>
          <g id="Grupo_83780" data-name="Grupo 83780">
            <g id="Grupo_83776" data-name="Grupo 83776">
              <rect id="Rectángulo_14856" data-name="Rectángulo 14856" width="64.484" height="161.63" rx="31.435" transform="translate(1619.168 822.365) rotate(90)" fill="#cad3df"/>
              <rect id="Rectángulo_14857" data-name="Rectángulo 14857" width="153.255" height="56.11" rx="27.248" transform="translate(1614.981 882.662) rotate(-180)" fill="#f6f6f6" stroke="#fff" stroke-miterlimit="10" stroke-width="0.407"/>
            </g>
            <g id="Grupo_83777" data-name="Grupo 83777">
              <text id="correo" transform="translate(1538.672 859.06)" fill="#12263f" font-size="16" font-family="Roboto-Black, Roboto" font-weight="800"><tspan x="-23.484" y="0">correo</tspan></text>
            </g>
            <g id="Grupo_83779" data-name="Grupo 83779">
              <g id="Grupo_83778" data-name="Grupo 83778">
                <path id="Trazado_112885" data-name="Trazado 112885" d="M1640.471,824.477a25.133,25.133,0,0,1-17.345,25.565l-6.056,12.111a1.867,1.867,0,0,1-3.34,0l-6.056-12.111a25.126,25.126,0,1,1,32.8-25.565Z" fill="#4dd0e1"/>
                <circle id="Elipse_4216" data-name="Elipse 4216" cx="16.749" cy="16.749" r="16.749" transform="matrix(0.987, -0.159, 0.159, 0.987, 1596.197, 812.266)" fill="#f6f6f6" stroke="#fff" stroke-miterlimit="10" stroke-width="0.699"/>
              </g>
              <text id="_4" data-name="4" transform="translate(1615.4 833.821)" fill="#12263f" font-size="20.374" font-family="Roboto-Black, Roboto" font-weight="800"><tspan x="-5.899" y="0">4</tspan></text>
            </g>
          </g>
        </g>
        <g id="Grupo_83790" data-name="Grupo 83790">
          <path id="Trazado_112886" data-name="Trazado 112886" d="M1454.441,968.978a36.187,36.187,0,0,1,34.533-26.08h98.007a29.769,29.769,0,0,1,28.42-21.356c.656,0,1.323.022,1.982.065a29.594,29.594,0,0,1,8.94,57.031l-2.924,5.849a36.15,36.15,0,0,1-35.666,31.83h-98.759a36.059,36.059,0,0,1-35.124-28.5C1452.16,973.147,1454.441,968.978,1454.441,968.978Z" fill="#cad3df" opacity="0.37"/>
          <g id="Grupo_83786" data-name="Grupo 83786">
            <g id="Grupo_83782" data-name="Grupo 83782">
              <rect id="Rectángulo_14858" data-name="Rectángulo 14858" width="64.484" height="161.63" rx="31.435" transform="translate(1619.168 947.365) rotate(90)" fill="#cad3df"/>
              <rect id="Rectángulo_14859" data-name="Rectángulo 14859" width="153.255" height="56.11" rx="27.248" transform="translate(1614.981 1007.662) rotate(-180)" fill="#f6f6f6" stroke="#fff" stroke-miterlimit="10" stroke-width="0.407"/>
            </g>
            <g id="Grupo_83783" data-name="Grupo 83783">
              <text id="edad" transform="translate(1538.672 984.06)" fill="#12263f" font-size="16" font-family="Roboto-Black, Roboto" font-weight="800"><tspan x="-17.602" y="0">edad</tspan></text>
            </g>
            <g id="Grupo_83785" data-name="Grupo 83785">
              <g id="Grupo_83784" data-name="Grupo 83784">
                <path id="Trazado_112887" data-name="Trazado 112887" d="M1640.471,949.477a25.133,25.133,0,0,1-17.345,25.565l-6.056,12.111a1.867,1.867,0,0,1-3.34,0l-6.056-12.111a25.126,25.126,0,1,1,32.8-25.565Z" fill="#4dd0e1"/>
                <circle id="Elipse_4217" data-name="Elipse 4217" cx="16.749" cy="16.749" r="16.749" transform="translate(1596.197 937.266) rotate(-9.166)" fill="#f6f6f6" stroke="#fff" stroke-miterlimit="10" stroke-width="0.699"/>
              </g>
              <text id="_5" data-name="5" transform="translate(1615.4 958.821)" fill="#12263f" font-size="20.374" font-family="Roboto-Black, Roboto" font-weight="800"><tspan x="-5.899" y="0">5</tspan></text>
            </g>
          </g>
          <g id="Grupo_83789" data-name="Grupo 83789">
            <path id="Trazado_112888" data-name="Trazado 112888" d="M1659.517,949.941a4.187,4.187,0,1,0-5.5,2.2A4.186,4.186,0,0,0,1659.517,949.941Z" fill="#4dd0e1"/>
            <g id="Grupo_83787" data-name="Grupo 83787">
              <path id="Trazado_112889" data-name="Trazado 112889" d="M1636.379,1002.256a4.188,4.188,0,1,0-4.193,4.181A4.188,4.188,0,0,0,1636.379,1002.256Z" fill="#4dd0e1"/>
              <path id="Trazado_112890" data-name="Trazado 112890" d="M1644.6,994.71a2.256,2.256,0,1,0-2.26,2.253A2.255,2.255,0,0,0,1644.6,994.71Z" fill="#4dd0e1"/>
            </g>
            <g id="Grupo_83788" data-name="Grupo 83788">
              <path id="Trazado_112891" data-name="Trazado 112891" d="M1590.9,924.336a2.234,2.234,0,1,0-2.933,1.174A2.235,2.235,0,0,0,1590.9,924.336Z" fill="#4dd0e1"/>
              <path id="Trazado_112892" data-name="Trazado 112892" d="M1576.443,929.059a4.188,4.188,0,1,0-5.5,2.2A4.188,4.188,0,0,0,1576.443,929.059Z" fill="#4dd0e1"/>
            </g>
          </g>
        </g>
        <path id="Trazado_112893" data-name="Trazado 112893" d="M1770.5,817.5l-33.319-94.07h-50.61" fill="none" stroke="#b7c2c5" stroke-linecap="round" stroke-linejoin="round" stroke-width="2.812" stroke-dasharray="0 6.561"/>
        <path id="Trazado_112894" data-name="Trazado 112894" d="M1760.5,1000.5l-15.148,56.93h-58.781" fill="none" stroke="#b7c2c5" stroke-linecap="round" stroke-linejoin="round" stroke-width="2.812" stroke-dasharray="0 6.561"/>
        <g id="Grupo_83799" data-name="Grupo 83799">
          <path id="Trazado_112895" data-name="Trazado 112895" d="M1519.441,740.978a36.187,36.187,0,0,1,34.533-26.08h98.007a29.769,29.769,0,0,1,28.42-21.356c.656,0,1.323.022,1.982.065a29.594,29.594,0,0,1,8.94,57.031l-2.924,5.849a36.15,36.15,0,0,1-35.666,31.83h-98.759a36.059,36.059,0,0,1-35.124-28.5C1517.16,745.147,1519.441,740.978,1519.441,740.978Z" fill="#cad3df" opacity="0.37"/>
          <g id="Grupo_83793" data-name="Grupo 83793">
            <path id="Trazado_112896" data-name="Trazado 112896" d="M1723.045,710.808a4.187,4.187,0,1,0-5.5,2.2A4.187,4.187,0,0,0,1723.045,710.808Z" fill="#4dd0e1"/>
            <g id="Grupo_83791" data-name="Grupo 83791">
              <path id="Trazado_112897" data-name="Trazado 112897" d="M1700.439,762.229a4.188,4.188,0,1,0-4.193,4.181A4.187,4.187,0,0,0,1700.439,762.229Z" fill="#4dd0e1"/>
              <path id="Trazado_112898" data-name="Trazado 112898" d="M1708.656,754.683a2.257,2.257,0,1,0-2.26,2.253A2.257,2.257,0,0,0,1708.656,754.683Z" fill="#4dd0e1"/>
            </g>
            <g id="Grupo_83792" data-name="Grupo 83792">
              <path id="Trazado_112899" data-name="Trazado 112899" d="M1649.275,701.754a2.234,2.234,0,1,0-2.933,1.175A2.233,2.233,0,0,0,1649.275,701.754Z" fill="#4dd0e1"/>
              <path id="Trazado_112900" data-name="Trazado 112900" d="M1634.822,706.477a4.187,4.187,0,1,0-5.5,2.2A4.187,4.187,0,0,0,1634.822,706.477Z" fill="#4dd0e1"/>
            </g>
          </g>
          <g id="Grupo_83798" data-name="Grupo 83798">
            <g id="Grupo_83794" data-name="Grupo 83794">
              <rect id="Rectángulo_14860" data-name="Rectángulo 14860" width="64.484" height="161.63" rx="31.435" transform="translate(1684.168 719.365) rotate(90)" fill="#cad3df"/>
              <rect id="Rectángulo_14861" data-name="Rectángulo 14861" width="153.255" height="56.11" rx="27.248" transform="translate(1679.981 779.662) rotate(-180)" fill="#f6f6f6" stroke="#fff" stroke-miterlimit="10" stroke-width="0.407"/>
            </g>
            <g id="Grupo_83795" data-name="Grupo 83795">
              <text id="apellidos" transform="translate(1603.672 756.06)" fill="#12263f" font-size="16" font-family="Roboto-Black, Roboto" font-weight="800"><tspan x="-32.793" y="0">apellidos</tspan></text>
            </g>
            <g id="Grupo_83797" data-name="Grupo 83797">
              <g id="Grupo_83796" data-name="Grupo 83796">
                <path id="Trazado_112901" data-name="Trazado 112901" d="M1705.471,721.477a25.133,25.133,0,0,1-17.345,25.565l-6.056,12.111a1.867,1.867,0,0,1-3.34,0l-6.056-12.111a25.126,25.126,0,1,1,32.8-25.565Z" fill="#4dd0e1"/>
                <circle id="Elipse_4218" data-name="Elipse 4218" cx="16.749" cy="16.749" r="16.749" transform="matrix(0.987, -0.159, 0.159, 0.987, 1661.197, 709.266)" fill="#f6f6f6" stroke="#fff" stroke-miterlimit="10" stroke-width="0.699"/>
              </g>
              <text id="_3" data-name="3" transform="translate(1680.4 730.821)" fill="#12263f" font-size="20.374" font-family="Roboto-Black, Roboto" font-weight="800"><tspan x="-5.899" y="0">3</tspan></text>
            </g>
          </g>
        </g>
        <g id="Grupo_83819" data-name="Grupo 83819">
          <circle id="Elipse_4219" data-name="Elipse 4219" cx="90.69" cy="90.69" r="90.69" transform="translate(1732.879 817.24)" fill="none" stroke="#b7c2c5" stroke-linecap="round" stroke-linejoin="round" stroke-width="2.812" stroke-dasharray="0 6.561"/>
          <g id="Grupo_83807" data-name="Grupo 83807">
            <g id="Grupo_83800" data-name="Grupo 83800">
              <path id="Trazado_112902" data-name="Trazado 112902" d="M1787.735,850.817a4.5,4.5,0,0,1-4.685-2.244l-13.811-24.739a4.5,4.5,0,1,1,7.858-4.387l13.811,24.74a4.5,4.5,0,0,1-3.173,6.63Z" fill="#4dd0e1"/>
            </g>
            <g id="Grupo_83801" data-name="Grupo 83801">
              <path id="Trazado_112903" data-name="Trazado 112903" d="M1858.816,850.817a4.5,4.5,0,0,0,4.685-2.244l13.812-24.739a4.5,4.5,0,1,0-7.858-4.387l-13.812,24.74a4.5,4.5,0,0,0,3.173,6.63Z" fill="#4dd0e1"/>
            </g>
            <g id="Grupo_83802" data-name="Grupo 83802">
              <path id="Trazado_112904" data-name="Trazado 112904" d="M1762.528,877.4a4.494,4.494,0,0,1-1.621-.3L1728.53,864.59a4.5,4.5,0,1,1,3.243-8.4l32.378,12.509a4.5,4.5,0,0,1-1.623,8.7Z" fill="#4dd0e1"/>
            </g>
            <g id="Grupo_83803" data-name="Grupo 83803">
              <path id="Trazado_112905" data-name="Trazado 112905" d="M1727.946,949.516a4.5,4.5,0,0,1-1.732-8.656l26.49-11.037a4.5,4.5,0,0,1,3.461,8.309l-26.49,11.037A4.5,4.5,0,0,1,1727.946,949.516Z" fill="#4dd0e1"/>
            </g>
            <g id="Grupo_83804" data-name="Grupo 83804">
              <path id="Trazado_112906" data-name="Trazado 112906" d="M1765.452,994.7a4.5,4.5,0,0,1-4.169-6.191l15.038-23.227a4.5,4.5,0,0,1,8.341,3.381l-15.038,23.227A4.5,4.5,0,0,1,1765.452,994.7Z" fill="#4dd0e1"/>
            </g>
            <g id="Grupo_83805" data-name="Grupo 83805">
              <path id="Trazado_112907" data-name="Trazado 112907" d="M1826.913,1010.583a4.5,4.5,0,0,1-8.643-1.791l.2-28.7a4.5,4.5,0,0,1,9,.065l-.2,28.7A4.472,4.472,0,0,1,1826.913,1010.583Z" fill="#4dd0e1"/>
            </g>
            <g id="Grupo_83806" data-name="Grupo 83806">
              <path id="Trazado_112908" data-name="Trazado 112908" d="M1819.649,841.7a4.473,4.473,0,0,1-.3-1.621l.045-34.71a4.5,4.5,0,1,1,9,.012l-.045,34.709a4.5,4.5,0,0,1-8.7,1.61Z" fill="#4dd0e1"/>
            </g>
          </g>
          <circle id="Elipse_4220" data-name="Elipse 4220" cx="81.379" cy="81.379" r="81.379" transform="translate(1742.189 826.55)" fill="#cad3df"/>
          <g transform="matrix(1, 0, 0, 1, 1453.23, 571.07)" filter="url(#Elipse_4221)">
            <circle id="Elipse_4221-2" data-name="Elipse 4221" cx="62.759" cy="62.759" r="62.759" transform="translate(307.58 274.1)" fill="#f6f6f6" stroke="#fff" stroke-miterlimit="10" stroke-width="0.469"/>
          </g>
          <g id="Grupo_83809" data-name="Grupo 83809">
            <path id="Trazado_112909" data-name="Trazado 112909" d="M1818.381,798.74a4.949,4.949,0,0,1,5.188,4.936h0a4.917,4.917,0,0,1-4.66,4.928,99.026,99.026,0,0,0-61.433,25.045l-7.612-6.44A108.884,108.884,0,0,1,1818.381,798.74Z" fill="#4dd0e1"/>
            <path id="Trazado_112910" data-name="Trazado 112910" d="M1818.909,1007.255a4.939,4.939,0,0,1-.528,9.864,108.969,108.969,0,0,1-73.262-33.077l7.532-6.425A99.113,99.113,0,0,0,1818.909,1007.255Z" fill="#4dd0e1"/>
            <path id="Trazado_112911" data-name="Trazado 112911" d="M1714.5,900.688h9.9q-.258,3.588-.262,7.242a99.108,99.108,0,0,0,28.515,69.687l-7.532,6.425a108.948,108.948,0,0,1-30.861-76.112C1714.258,905.5,1714.345,903.083,1714.5,900.688Z" fill="#4dd0e1"/>
            <path id="Trazado_112912" data-name="Trazado 112912" d="M1749.864,827.209l7.612,6.44a99.191,99.191,0,0,0-33.078,67.039h-9.9A109.021,109.021,0,0,1,1749.864,827.209Z" fill="#4dd0e1"/>
            <g id="Grupo_83808" data-name="Grupo 83808">
              <path id="Trazado_112913" data-name="Trazado 112913" d="M1828.171,798.74a4.949,4.949,0,0,0-5.189,4.936h0a4.917,4.917,0,0,0,4.66,4.928,98.832,98.832,0,0,1,46.071,13.8c5.482,3.259,11.791-4.439,5.55-8.2A108.689,108.689,0,0,0,1828.171,798.74Z" fill="#4dd0e1"/>
            </g>
          </g>
          <g id="Grupo_83818" data-name="Grupo 83818">
            <g id="Grupo_83811" data-name="Grupo 83811">
              <g id="Grupo_83810" data-name="Grupo 83810">
                <circle id="Elipse_4222" data-name="Elipse 4222" cx="11.034" cy="11.034" r="11.034" transform="translate(1715.201 932.893)" stroke="#fff" stroke-miterlimit="10" stroke-width="0.783" fill="url(#linear-gradient)"/>
                <circle id="Elipse_4223" data-name="Elipse 4223" cx="7.931" cy="7.931" r="7.931" transform="translate(1718.304 935.997)" fill="#4dd0e1"/>
              </g>
              <text id="_5-2" data-name="5" transform="translate(1726.235 945.996)" fill="#12263f" font-size="7.071" font-family="Roboto-Bold, Roboto" font-weight="700"><tspan x="-2.028" y="0">5</tspan></text>
            </g>
            <g id="Grupo_83813" data-name="Grupo 83813">
              <g id="Grupo_83812" data-name="Grupo 83812">
                <circle id="Elipse_4224" data-name="Elipse 4224" cx="11.034" cy="11.034" r="11.034" transform="translate(1751.925 981.606)" stroke="#fff" stroke-miterlimit="10" stroke-width="0.783" fill="url(#linear-gradient-2)"/>
                <circle id="Elipse_4225" data-name="Elipse 4225" cx="7.931" cy="7.931" r="7.931" transform="matrix(0.323, -0.946, 0.946, 0.323, 1752.892, 997.585)" fill="#4dd0e1"/>
              </g>
              <text id="_6" data-name="6" transform="translate(1762.959 994.709)" fill="#12263f" font-size="7.071" font-family="Roboto-Bold, Roboto" font-weight="700"><tspan x="-2.028" y="0">6</tspan></text>
            </g>
            <g id="Grupo_83815" data-name="Grupo 83815">
              <g id="Grupo_83814" data-name="Grupo 83814">
                <circle id="Elipse_4226" data-name="Elipse 4226" cx="11.034" cy="11.034" r="11.034" transform="translate(1719.431 851.009)" stroke="#fff" stroke-miterlimit="10" stroke-width="0.783" fill="url(#linear-gradient-3)"/>
                <circle id="Elipse_4227" data-name="Elipse 4227" cx="7.931" cy="7.931" r="7.931" transform="matrix(0.986, -0.168, 0.168, 0.986, 1721.315, 855.558)" fill="#4dd0e1"/>
              </g>
              <text id="_4-2" data-name="4" transform="translate(1730.465 864.112)" fill="#12263f" font-size="7.071" font-family="Roboto-Bold, Roboto" font-weight="700"><tspan x="-2.028" y="0">4</tspan></text>
            </g>
            <g id="Grupo_83817" data-name="Grupo 83817">
              <g id="Grupo_83816" data-name="Grupo 83816">
                <circle id="Elipse_4228" data-name="Elipse 4228" cx="11.034" cy="11.034" r="11.034" transform="translate(1759.5 807.491)" stroke="#fff" stroke-miterlimit="10" stroke-width="0.783" fill="url(#linear-gradient-4)"/>
                <circle id="Elipse_4229" data-name="Elipse 4229" cx="7.931" cy="7.931" r="7.931" transform="translate(1762.603 810.595)" fill="#4dd0e1"/>
              </g>
              <text id="_3-2" data-name="3" transform="translate(1770.534 820.594)" fill="#12263f" font-size="7.071" font-family="Roboto-Bold, Roboto" font-weight="700"><tspan x="-2.028" y="0">3</tspan></text>
            </g>
          </g>
        </g>
        <g id="Grupo_83828" data-name="Grupo 83828">
          <path id="Trazado_112914" data-name="Trazado 112914" d="M1519.441,1074.978a36.187,36.187,0,0,1,34.533-26.08h98.007a29.769,29.769,0,0,1,28.42-21.356c.656,0,1.323.022,1.982.065a29.594,29.594,0,0,1,8.94,57.031l-2.924,5.849a36.15,36.15,0,0,1-35.666,31.83h-98.759a36.059,36.059,0,0,1-35.124-28.5C1517.16,1079.147,1519.441,1074.978,1519.441,1074.978Z" fill="#cad3df" opacity="0.37"/>
          <g id="Grupo_83822" data-name="Grupo 83822">
            <g id="Grupo_83821" data-name="Grupo 83821">
              <g id="Grupo_83820" data-name="Grupo 83820">
                <circle id="Elipse_4230" data-name="Elipse 4230" cx="4.187" cy="4.187" r="4.187" transform="translate(1680.155 1011.811)" fill="#4dd0e1"/>
                <circle id="Elipse_4231" data-name="Elipse 4231" cx="4.187" cy="4.187" r="4.187" transform="translate(1644.676 1029.703)" fill="#4dd0e1"/>
                <path id="Trazado_112915" data-name="Trazado 112915" d="M1636.47,1041.449a2.257,2.257,0,1,0,2.257-2.257A2.256,2.256,0,0,0,1636.47,1041.449Z" fill="#4dd0e1"/>
                <circle id="Elipse_4232" data-name="Elipse 4232" cx="2.234" cy="2.234" r="2.234" transform="translate(1694.325 1092.41)" fill="#4dd0e1"/>
                <circle id="Elipse_4233" data-name="Elipse 4233" cx="4.187" cy="4.187" r="4.187" transform="translate(1708.481 1091.271)" fill="#4dd0e1"/>
              </g>
            </g>
          </g>
          <g id="Grupo_83827" data-name="Grupo 83827">
            <g id="Grupo_83823" data-name="Grupo 83823">
              <rect id="Rectángulo_14862" data-name="Rectángulo 14862" width="64.484" height="161.63" rx="31.435" transform="translate(1684.168 1053.365) rotate(90)" fill="#cad3df"/>
              <rect id="Rectángulo_14863" data-name="Rectángulo 14863" width="153.255" height="56.11" rx="27.248" transform="translate(1679.981 1113.662) rotate(-180)" fill="#f6f6f6" stroke="#fff" stroke-miterlimit="10" stroke-width="0.407"/>
            </g>
            <g id="Grupo_83824" data-name="Grupo 83824">
              <text id="pais" transform="translate(1603.672 1090.06)" fill="#12263f" font-size="16" font-family="Roboto-Black, Roboto" font-weight="800"><tspan x="-15.047" y="0">pais</tspan></text>
            </g>
            <g id="Grupo_83826" data-name="Grupo 83826">
              <g id="Grupo_83825" data-name="Grupo 83825">
                <path id="Trazado_112916" data-name="Trazado 112916" d="M1705.471,1055.477a25.133,25.133,0,0,1-17.345,25.565l-6.056,12.111a1.867,1.867,0,0,1-3.34,0l-6.056-12.111a25.126,25.126,0,1,1,32.8-25.565Z" fill="#4dd0e1"/>
                <circle id="Elipse_4234" data-name="Elipse 4234" cx="16.749" cy="16.749" r="16.749" transform="translate(1661.197 1043.266) rotate(-9.166)" fill="#f6f6f6" stroke="#fff" stroke-miterlimit="10" stroke-width="0.699"/>
              </g>
              <text id="_6-2" data-name="6" transform="translate(1680.4 1064.821)" fill="#12263f" font-size="20.374" font-family="Roboto-Black, Roboto" font-weight="800"><tspan x="-5.899" y="0">6</tspan></text>
            </g>
          </g>
        </g>
        <g id="Grupo_83829" data-name="Grupo 83829">
          <text id="PERSONA" transform="translate(1823.072 913.774)" fill="#12263f" font-size="20" font-family="Roboto-Black, Roboto" font-weight="800"><tspan x="-45.713" y="0">PERSONA</tspan></text>
        </g>
        <line id="Línea_192" data-name="Línea 192" x2="0.293" y2="105.188" transform="translate(1823.5 1019.5)" fill="none" stroke="#b7c2c5" stroke-linecap="round" stroke-linejoin="round" stroke-width="2.812" stroke-dasharray="0 6.561"/>
        <line id="Línea_193" data-name="Línea 193" x2="0.293" y2="177" transform="translate(1823.5 626.5)" fill="none" stroke="#b7c2c5" stroke-linecap="round" stroke-linejoin="round" stroke-width="2.812" stroke-dasharray="0 6.561"/>
        <g id="Grupo_83838" data-name="Grupo 83838">
          <path id="Trazado_112917" data-name="Trazado 112917" d="M1662.664,1147.236a36.188,36.188,0,0,1,34.533-26.08H1795.2a29.77,29.77,0,0,1,28.42-21.355c.657,0,1.324.022,1.983.065a29.594,29.594,0,0,1,8.94,57.031l-2.925,5.849a36.15,36.15,0,0,1-35.665,31.83H1697.2a36.06,36.06,0,0,1-35.125-28.5C1660.382,1151.406,1662.664,1147.236,1662.664,1147.236Z" fill="#cad3df" opacity="0.37"/>
          <g id="Grupo_83832" data-name="Grupo 83832">
            <g id="Grupo_83831" data-name="Grupo 83831">
              <g id="Grupo_83830" data-name="Grupo 83830">
                <circle id="Elipse_4235" data-name="Elipse 4235" cx="4.187" cy="4.187" r="4.187" transform="translate(1823.378 1084.07)" fill="#4dd0e1"/>
                <circle id="Elipse_4236" data-name="Elipse 4236" cx="4.187" cy="4.187" r="4.187" transform="translate(1787.899 1101.962)" fill="#4dd0e1"/>
                <path id="Trazado_112918" data-name="Trazado 112918" d="M1779.693,1113.707a2.257,2.257,0,1,0,2.256-2.256A2.256,2.256,0,0,0,1779.693,1113.707Z" fill="#4dd0e1"/>
                <circle id="Elipse_4237" data-name="Elipse 4237" cx="2.234" cy="2.234" r="2.234" transform="translate(1837.548 1164.669)" fill="#4dd0e1"/>
                <circle id="Elipse_4238" data-name="Elipse 4238" cx="4.187" cy="4.187" r="4.187" transform="translate(1851.703 1163.53)" fill="#4dd0e1"/>
              </g>
            </g>
          </g>
          <g id="Grupo_83837" data-name="Grupo 83837">
            <g id="Grupo_83833" data-name="Grupo 83833">
              <rect id="Rectángulo_14864" data-name="Rectángulo 14864" width="64.484" height="161.63" rx="31.435" transform="translate(1827.391 1125.624) rotate(90)" fill="#cad3df"/>
              <rect id="Rectángulo_14865" data-name="Rectángulo 14865" width="153.255" height="56.11" rx="27.248" transform="translate(1823.204 1185.921) rotate(-180)" fill="#f6f6f6" stroke="#fff" stroke-miterlimit="10" stroke-width="0.407"/>
            </g>
            <g id="Grupo_83834" data-name="Grupo 83834">
              <text id="identificación" transform="translate(1746.895 1162.319)" fill="#12263f" font-size="16" font-family="Roboto-Black, Roboto" font-weight="800"><tspan x="-49.359" y="0">identificación</tspan></text>
            </g>
            <g id="Grupo_83836" data-name="Grupo 83836">
              <g id="Grupo_83835" data-name="Grupo 83835">
                <path id="Trazado_112919" data-name="Trazado 112919" d="M1848.693,1127.736a25.129,25.129,0,0,1-17.344,25.564l-6.056,12.112a1.867,1.867,0,0,1-3.341,0L1815.9,1153.3a25.125,25.125,0,1,1,32.8-25.564Z" fill="#4dd0e1"/>
                <circle id="Elipse_4239" data-name="Elipse 4239" cx="16.749" cy="16.749" r="16.749" transform="translate(1804.419 1115.525) rotate(-9.166)" fill="#f6f6f6" stroke="#fff" stroke-miterlimit="10" stroke-width="0.699"/>
              </g>
              <text id="_7" data-name="7" transform="translate(1823.622 1137.08)" fill="#12263f" font-size="20.374" font-family="Roboto-Black, Roboto" font-weight="800"><tspan x="-5.899" y="0">7</tspan></text>
            </g>
          </g>
        </g>
        <g id="Grupo_83840" data-name="Grupo 83840">
          <g id="Grupo_83839" data-name="Grupo 83839">
            <circle id="Elipse_4240" data-name="Elipse 4240" cx="11.034" cy="11.034" r="11.034" transform="translate(1812.838 1002.358)" stroke="#fff" stroke-miterlimit="10" stroke-width="0.783" fill="url(#linear-gradient-5)"/>
            <circle id="Elipse_4241" data-name="Elipse 4241" cx="7.931" cy="7.931" r="7.931" transform="translate(1813.805 1018.337) rotate(-71.158)" fill="#4dd0e1"/>
          </g>
          <text id="_7-2" data-name="7" transform="translate(1823.871 1015.46)" fill="#12263f" font-size="7.071" font-family="Roboto-Bold, Roboto" font-weight="700"><tspan x="-2.028" y="0">7</tspan></text>
        </g>
        <g id="Grupo_83849" data-name="Grupo 83849">
          <path id="Trazado_112920" data-name="Trazado 112920" d="M1648.664,634.236a36.188,36.188,0,0,1,34.533-26.08H1781.2a29.77,29.77,0,0,1,28.42-21.355c.657,0,1.324.022,1.983.065a29.594,29.594,0,0,1,8.94,57.031l-2.925,5.849a36.15,36.15,0,0,1-35.665,31.83H1683.2a36.06,36.06,0,0,1-35.125-28.5C1646.382,638.406,1648.664,634.236,1648.664,634.236Z" fill="#cad3df" opacity="0.37"/>
          <g id="Grupo_83843" data-name="Grupo 83843">
            <g id="Grupo_83842" data-name="Grupo 83842">
              <g id="Grupo_83841" data-name="Grupo 83841">
                <circle id="Elipse_4242" data-name="Elipse 4242" cx="4.187" cy="4.187" r="4.187" transform="translate(1809.378 571.07)" fill="#4dd0e1"/>
                <circle id="Elipse_4243" data-name="Elipse 4243" cx="4.187" cy="4.187" r="4.187" transform="translate(1773.899 588.962)" fill="#4dd0e1"/>
                <path id="Trazado_112921" data-name="Trazado 112921" d="M1765.693,600.707a2.257,2.257,0,1,0,2.256-2.256A2.256,2.256,0,0,0,1765.693,600.707Z" fill="#4dd0e1"/>
                <circle id="Elipse_4244" data-name="Elipse 4244" cx="2.234" cy="2.234" r="2.234" transform="translate(1823.548 651.669)" fill="#4dd0e1"/>
                <circle id="Elipse_4245" data-name="Elipse 4245" cx="4.187" cy="4.187" r="4.187" transform="translate(1837.703 650.53)" fill="#4dd0e1"/>
              </g>
            </g>
          </g>
          <g id="Grupo_83848" data-name="Grupo 83848">
            <g id="Grupo_83844" data-name="Grupo 83844">
              <rect id="Rectángulo_14866" data-name="Rectángulo 14866" width="64.484" height="161.63" rx="31.435" transform="translate(1813.391 612.624) rotate(90)" fill="#cad3df"/>
              <rect id="Rectángulo_14867" data-name="Rectángulo 14867" width="153.255" height="56.11" rx="27.248" transform="translate(1809.204 672.921) rotate(-180)" fill="#f6f6f6" stroke="#fff" stroke-miterlimit="10" stroke-width="0.407"/>
            </g>
            <g id="Grupo_83845" data-name="Grupo 83845">
              <text id="nombres" transform="translate(1732.895 649.319)" fill="#12263f" font-size="16" font-family="Roboto-Black, Roboto" font-weight="800"><tspan x="-31.809" y="0">nombres</tspan></text>
            </g>
            <g id="Grupo_83847" data-name="Grupo 83847">
              <g id="Grupo_83846" data-name="Grupo 83846">
                <path id="Trazado_112922" data-name="Trazado 112922" d="M1834.693,614.736a25.129,25.129,0,0,1-17.344,25.564l-6.056,12.112a1.867,1.867,0,0,1-3.341,0L1801.9,640.3a25.125,25.125,0,1,1,32.8-25.564Z" fill="#4dd0e1"/>
                <circle id="Elipse_4246" data-name="Elipse 4246" cx="16.749" cy="16.749" r="16.749" transform="translate(1790.419 602.525) rotate(-9.166)" fill="#f6f6f6" stroke="#fff" stroke-miterlimit="10" stroke-width="0.699"/>
              </g>
              <text id="_2" data-name="2" transform="translate(1809.622 624.08)" fill="#12263f" font-size="20.374" font-family="Roboto-Black, Roboto" font-weight="800"><tspan x="-5.899" y="0">2</tspan></text>
            </g>
          </g>
        </g>
        <g id="Grupo_83851" data-name="Grupo 83851">
          <g id="Grupo_83850" data-name="Grupo 83850">
            <circle id="Elipse_4247" data-name="Elipse 4247" cx="11.034" cy="11.034" r="11.034" transform="translate(1812.256 792.477)" stroke="#fff" stroke-miterlimit="10" stroke-width="0.783" fill="url(#linear-gradient-6)"/>
            <circle id="Elipse_4248" data-name="Elipse 4248" cx="7.931" cy="7.931" r="7.931" transform="translate(1815.359 795.58)" fill="#4dd0e1"/>
          </g>
          <text id="_2-2" data-name="2" transform="translate(1823.29 805.58)" fill="#12263f" font-size="7.071" font-family="Roboto-Bold, Roboto" font-weight="700"><tspan x="-2.028" y="0">2</tspan></text>
        </g>
      </g>
      <g id="Grupo_83866" data-name="Grupo 83866">
        <path id="Trazado_112923" data-name="Trazado 112923" d="M1876.051,817.5l33.319-94.07h50.61" fill="none" stroke="#b7c2c5" stroke-linecap="round" stroke-linejoin="round" stroke-width="2.812" stroke-dasharray="0 6.561"/>
        <g id="Grupo_83861" data-name="Grupo 83861">
          <path id="Trazado_112924" data-name="Trazado 112924" d="M2127.11,740.978a36.187,36.187,0,0,0-34.533-26.08h-98.006a29.77,29.77,0,0,0-28.42-21.356c-.657,0-1.324.022-1.983.065a29.594,29.594,0,0,0-8.94,57.031l2.925,5.849a36.15,36.15,0,0,0,35.665,31.83h98.759a36.06,36.06,0,0,0,35.125-28.5C2129.392,745.147,2127.11,740.978,2127.11,740.978Z" fill="#cad3df" opacity="0.37"/>
          <g id="Grupo_83855" data-name="Grupo 83855">
            <path id="Trazado_112925" data-name="Trazado 112925" d="M1923.506,710.808a4.187,4.187,0,1,1,5.5,2.2A4.187,4.187,0,0,1,1923.506,710.808Z" fill="#4dd0e1"/>
            <g id="Grupo_83853" data-name="Grupo 83853">
              <path id="Trazado_112926" data-name="Trazado 112926" d="M1946.112,762.229a4.188,4.188,0,1,1,4.194,4.181A4.187,4.187,0,0,1,1946.112,762.229Z" fill="#4dd0e1"/>
              <path id="Trazado_112927" data-name="Trazado 112927" d="M1937.9,754.683a2.256,2.256,0,1,1,2.26,2.253A2.257,2.257,0,0,1,1937.9,754.683Z" fill="#4dd0e1"/>
            </g>
            <g id="Grupo_83854" data-name="Grupo 83854">
              <path id="Trazado_112928" data-name="Trazado 112928" d="M1997.277,701.754a2.234,2.234,0,1,1,2.932,1.175A2.232,2.232,0,0,1,1997.277,701.754Z" fill="#4dd0e1"/>
              <path id="Trazado_112929" data-name="Trazado 112929" d="M2011.729,706.477a4.187,4.187,0,1,1,5.5,2.2A4.188,4.188,0,0,1,2011.729,706.477Z" fill="#4dd0e1"/>
            </g>
          </g>
          <g id="Grupo_83860" data-name="Grupo 83860">
            <g id="Grupo_83856" data-name="Grupo 83856">
              <rect id="Rectángulo_14868" data-name="Rectángulo 14868" width="64.484" height="161.63" rx="31.435" transform="translate(2124.012 719.365) rotate(90)" fill="#cad3df"/>
              <rect id="Rectángulo_14869" data-name="Rectángulo 14869" width="153.255" height="56.11" rx="27.248" transform="translate(1966.57 723.552)" fill="#f6f6f6" stroke="#fff" stroke-miterlimit="10" stroke-width="0.407"/>
            </g>
            <g id="Grupo_83857" data-name="Grupo 83857">
              <text id="id__personas" data-name="id_ personas" transform="translate(2042.879 756.06)" fill="#12263f" font-size="16" font-family="Roboto-Black, Roboto" font-weight="800"><tspan x="-45.559" y="0">id_ personas</tspan></text>
            </g>
            <g id="Grupo_83859" data-name="Grupo 83859">
              <g id="Grupo_83858" data-name="Grupo 83858">
                <path id="Trazado_112930" data-name="Trazado 112930" d="M1941.081,721.477a25.131,25.131,0,0,0,17.344,25.565l6.056,12.111a1.867,1.867,0,0,0,3.341,0l6.056-12.111a25.126,25.126,0,1,0-32.8-25.565Z" fill="#4dd0e1"/>
                <circle id="Elipse_4249" data-name="Elipse 4249" cx="16.749" cy="16.749" r="16.749" transform="translate(1946.948 737.001) rotate(-80.834)" fill="#f6f6f6" stroke="#fff" stroke-miterlimit="10" stroke-width="0.699"/>
              </g>
              <text id="_1" data-name="1" transform="translate(1966.151 730.821)" fill="#12263f" font-size="20.374" font-family="Roboto-Black, Roboto" font-weight="800"><tspan x="-5.899" y="0">1</tspan></text>
            </g>
          </g>
        </g>
        <g id="Grupo_83865" data-name="Grupo 83865">
          <g id="Grupo_83864" data-name="Grupo 83864">
            <g id="Grupo_83863" data-name="Grupo 83863">
              <g id="Grupo_83862" data-name="Grupo 83862">
                <circle id="Elipse_4250" data-name="Elipse 4250" cx="11.034" cy="11.034" r="11.034" transform="translate(1864.982 807.491)" stroke="#fff" stroke-miterlimit="10" stroke-width="0.783" fill="url(#linear-gradient-7)"/>
                <circle id="Elipse_4251" data-name="Elipse 4251" cx="7.931" cy="7.931" r="7.931" transform="translate(1868.086 810.595)" fill="#4dd0e1"/>
              </g>
              <text id="_1-2" data-name="1" transform="translate(1876.019 820.594)" fill="#12263f" font-size="7.071" font-family="Roboto-Bold, Roboto" font-weight="700"><tspan x="-2.028" y="0">1</tspan></text>
            </g>
          </g>
        </g>
      </g>
    </g>
  </g>
  <path id="Trazado_112931" data-name="Trazado 112931" d="M-4213.056-7574.3h91.51" transform="translate(4758 7764.753)" fill="none" stroke="#13273e" stroke-width="1"/>
</svg>
