<svg xmlns="http://www.w3.org/2000/svg" xmlns:xlink="http://www.w3.org/1999/xlink" width="1240" height="726" viewBox="0 0 1240 726">
  <defs>
    <linearGradient id="linear-gradient" x1="-104.326" y1="-56.292" x2="-104.279" y2="-56.292" gradientUnits="objectBoundingBox">
      <stop offset="0" stop-color="#fff"/>
      <stop offset="1" stop-color="#d5d5d5"/>
    </linearGradient>
    <linearGradient id="linear-gradient-2" x1="-102.916" y1="-59.619" x2="-102.868" y2="-59.619" xlink:href="#linear-gradient"/>
    <linearGradient id="linear-gradient-3" x1="-102.608" y1="-52.748" x2="-102.561" y2="-52.748" xlink:href="#linear-gradient"/>
    <linearGradient id="linear-gradient-4" x1="-78.429" y1="-55.374" x2="-78.383" y2="-55.374" xlink:href="#linear-gradient"/>
    <linearGradient id="linear-gradient-5" x1="-80.244" y1="-57.581" x2="-80.198" y2="-57.581" xlink:href="#linear-gradient"/>
    <linearGradient id="linear-gradient-6" x1="-78.638" y1="-51.663" x2="-78.592" y2="-51.663" xlink:href="#linear-gradient"/>
    <linearGradient id="linear-gradient-7" x1="-80.618" y1="-49.691" x2="-80.573" y2="-49.691" xlink:href="#linear-gradient"/>
    <linearGradient id="linear-gradient-8" x1="-89.24" y1="-49.684" x2="-89.194" y2="-49.684" xlink:href="#linear-gradient"/>
    <linearGradient id="linear-gradient-9" x1="-83.254" y1="-58.521" x2="-83.209" y2="-58.521" xlink:href="#linear-gradient"/>
    <linearGradient id="linear-gradient-10" x1="-83.225" y1="-49.011" x2="-83.18" y2="-49.011" xlink:href="#linear-gradient"/>
  </defs>
  <g id="Grupo_86136" data-name="Grupo 86136" transform="translate(-180 -8575)">
    <rect id="Rectángulo_14870" data-name="Rectángulo 14870" width="1240" height="726" transform="translate(180 8575)" fill="#f6f6f6"/>
    <g id="Grupo_86404" data-name="Grupo 86404" transform="translate(-1210.65 7399.577)">
      <g id="Grupo_86409" data-name="Grupo 86409" transform="translate(1430.65 1229.423)">
        <g id="Grupo_86275" data-name="Grupo 86275" transform="translate(415.826 116.873)">
          <line id="Línea_10499" data-name="Línea 10499" x2="108.996" transform="translate(223.442 211.28)" fill="none" stroke="#cad3df" stroke-linecap="round" stroke-linejoin="round" stroke-width="9"/>
          <line id="Línea_10500" data-name="Línea 10500" x1="108.996" transform="translate(0 211.28)" fill="none" stroke="#cad3df" stroke-linecap="round" stroke-linejoin="round" stroke-width="9"/>
          <path id="Trazado_116053" data-name="Trazado 116053" d="M2245.009,1462.13l34.373-92.639h55.163" transform="translate(-1773.215 -1333.696)" fill="none" stroke="#b7c2c5" stroke-linecap="round" stroke-linejoin="round" stroke-width="2.812" stroke-dasharray="0 6.561"/>
          <g id="Grupo_86287" data-name="Grupo 86287" transform="translate(526.347)">
            <path id="Rectángulo_15562" data-name="Rectángulo 15562" d="M2480,1375.02v1.971c0,21.191-16.1,38.37-35.969,38.37h-113c-19.865,0-35.969-17.179-35.969-38.37v-1.971c0-21.191,16.1-38.37,35.969-38.37h113C2463.894,1336.65,2480,1353.829,2480,1375.02Z" transform="translate(-2295.059 -1336.65)" fill="#cad3df" opacity="0.37" style="isolation: isolate"/>
            <g id="Grupo_86286" data-name="Grupo 86286" transform="translate(4.067 4.197)">
              <g id="Grupo_86282" data-name="Grupo 86282">
                <rect id="Rectángulo_15562-2" data-name="Rectángulo 15562" width="176.17" height="70.285" rx="31.435" fill="#cad3df"/>
                <rect id="Rectángulo_15563" data-name="Rectángulo 15563" width="167.042" height="61.158" rx="27.248" transform="translate(4.565 4.565)" fill="#f6f6f6" stroke="#fff" stroke-miterlimit="10" stroke-width="0.407"/>
              </g>
              <g id="Grupo_86283" data-name="Grupo 86283" transform="translate(27.016 21.468)">
                <g id="numero_cuenta" data-name="numero cuenta" style="isolation: isolate">
                  <text id="numero_cuenta-2" data-name="numero_cuenta" transform="translate(0 17)" fill="#12263f" font-size="16" font-family="Roboto-Bold, Roboto" font-weight="700" style="isolation: isolate"><tspan x="0" y="0">numero_cuenta</tspan></text>
                </g>
              </g>
            </g>
          </g>
          <path id="Trazado_116061" data-name="Trazado 116061" d="M2245.009,1585.5l34.373,92.639h55.163" transform="translate(-1773.215 -1314.263)" fill="none" stroke="#b7c2c5" stroke-linecap="round" stroke-linejoin="round" stroke-width="2.812" stroke-dasharray="0 6.561"/>
          <line id="Línea_10501" data-name="Línea 10501" y1="0.524" x2="101.454" transform="translate(504.652 210.755)" fill="none" stroke="#b7c2c5" stroke-linecap="round" stroke-linejoin="round" stroke-width="2.812" stroke-dasharray="0 6.561"/>
          <g id="Grupo_86297" data-name="Grupo 86297" transform="translate(526.03 324.52)">
            <g id="Grupo_86296" data-name="Grupo 86296">
              <path id="Rectángulo_15562-3" data-name="Rectángulo 15562" d="M2479.706,1672.755v1.97c0,21.191-16.1,38.37-35.967,38.37h-113c-19.866,0-35.969-17.179-35.969-38.37v-1.97c0-21.191,16.1-38.37,35.969-38.37h113C2463.6,1634.385,2479.706,1651.564,2479.706,1672.755Z" transform="translate(-2294.768 -1634.385)" fill="#cad3df" opacity="0.37" style="isolation: isolate"/>
              <g id="Grupo_86295" data-name="Grupo 86295" transform="translate(4.066 3.551)">
                <g id="Grupo_86291" data-name="Grupo 86291">
                  <rect id="Rectángulo_15564" data-name="Rectángulo 15564" width="176.17" height="70.285" rx="31.435" fill="#cad3df"/>
                  <rect id="Rectángulo_15565" data-name="Rectángulo 15565" width="167.042" height="61.158" rx="27.248" transform="translate(4.565 4.565)" fill="#f6f6f6" stroke="#fff" stroke-miterlimit="10" stroke-width="0.407"/>
                </g>
                <g id="Grupo_86292" data-name="Grupo 86292" transform="translate(27.952 21.468)">
                  <g id="fecha_creación" data-name="fecha creación" style="isolation: isolate">
                    <text id="fecha_creación-2" data-name="fecha_creación" transform="translate(0 17)" fill="#12263f" font-size="16" font-family="Roboto-Bold, Roboto" font-weight="700" style="isolation: isolate"><tspan x="0" y="0">fecha_creación</tspan></text>
                  </g>
                </g>
              </g>
            </g>
          </g>
          <g id="Grupo_86309" data-name="Grupo 86309" transform="translate(304.625 96.232)">
            <g id="Grupo_86307" data-name="Grupo 86307" transform="translate(95.003)">
              <g id="Grupo_86298" data-name="Grupo 86298" transform="translate(26.407 32.204)">
                <line id="Línea_10502" data-name="Línea 10502" x1="45.062" y2="46.917" fill="none" stroke="#feca2e" stroke-linecap="round" stroke-linejoin="round" stroke-width="9"/>
                <line id="Línea_10503" data-name="Línea 10503" x2="76.141" transform="translate(5.96 82.562)" fill="none" stroke="#feca2e" stroke-linecap="round" stroke-linejoin="round" stroke-width="9"/>
                <line id="Línea_10504" data-name="Línea 10504" x2="41.656" y2="43.971" transform="translate(8.036 113.438)" fill="none" stroke="#feca2e" stroke-linecap="round" stroke-linejoin="round" stroke-width="9"/>
              </g>
              <g id="Grupo_86299" data-name="Grupo 86299">
                <path id="Trazado_116069" data-name="Trazado 116069" d="M2184.253,1424.945a5.188,5.188,0,0,0-5.433,4.931c0,.082-.007.162-.007.244h0a5.157,5.157,0,0,0,4.886,5.167,103.848,103.848,0,0,1,64.417,26.268l7.982-6.758A114.186,114.186,0,0,0,2184.253,1424.945Z" transform="translate(-2178.798 -1424.939)" fill="#feca2e"/>
                <path id="Trazado_116070" data-name="Trazado 116070" d="M2183.7,1628.113a5.179,5.179,0,0,0,.554,10.343,114.254,114.254,0,0,0,76.823-34.685l-7.9-6.737A103.927,103.927,0,0,1,2183.7,1628.113Z" transform="translate(-2178.799 -1409.458)" fill="#feca2e"/>
                <path id="Trazado_116071" data-name="Trazado 116071" d="M2287.043,1523.024h-10.376q.27,3.762.275,7.594a103.916,103.916,0,0,1-29.9,73.075l7.9,6.737a114.235,114.235,0,0,0,32.36-79.812C2287.3,1528.065,2287.208,1525.535,2287.043,1523.024Z" transform="translate(-2172.66 -1416.116)" fill="#feca2e"/>
                <path id="Trazado_116072" data-name="Trazado 116072" d="M2250.38,1452.333l-7.982,6.758a104.013,104.013,0,0,1,34.686,70.3h10.376A114.324,114.324,0,0,0,2250.38,1452.333Z" transform="translate(-2173.077 -1422.475)" fill="#feca2e"/>
              </g>
              <g id="Grupo_86306" data-name="Grupo 86306" transform="translate(60.023 20.855)">
                <g id="Grupo_86301" data-name="Grupo 86301" transform="translate(39.746 82.015)">
                  <g id="Grupo_86300" data-name="Grupo 86300">
                    <circle id="Elipse_4988" data-name="Elipse 4988" cx="11.571" cy="11.571" r="11.571" stroke="#fff" stroke-miterlimit="10" stroke-width="0.783" fill="url(#linear-gradient)"/>
                    <circle id="Elipse_4989" data-name="Elipse 4989" cx="8.316" cy="8.316" r="8.316" transform="translate(3.254 3.255)" fill="#feca2e"/>
                  </g>
                </g>
                <g id="Grupo_86303" data-name="Grupo 86303" transform="translate(7.112 159.014)">
                  <g id="Grupo_86302" data-name="Grupo 86302">
                    <circle id="Elipse_4990" data-name="Elipse 4990" cx="11.571" cy="11.571" r="11.571" stroke="#fff" stroke-miterlimit="10" stroke-width="0.783" fill="url(#linear-gradient-2)"/>
                    <circle id="Elipse_4991" data-name="Elipse 4991" cx="8.316" cy="8.316" r="8.316" transform="translate(3.254 3.254)" fill="#feca2e"/>
                  </g>
                </g>
                <g id="Grupo_86305" data-name="Grupo 86305">
                  <g id="Grupo_86304" data-name="Grupo 86304">
                    <circle id="Elipse_4992" data-name="Elipse 4992" cx="11.571" cy="11.571" r="11.571" stroke="#fff" stroke-miterlimit="10" stroke-width="0.783" fill="url(#linear-gradient-3)"/>
                    <path id="Trazado_116073" data-name="Trazado 116073" d="M2253.487,1455.377a8.316,8.316,0,1,1-8.318-8.316A8.316,8.316,0,0,1,2253.487,1455.377Z" transform="translate(-2233.599 -1443.805)" fill="#feca2e"/>
                  </g>
                </g>
              </g>
            </g>
            <g id="Grupo_86405" data-name="Grupo 86405" transform="translate(0 67.482)">
              <g id="Grupo_86404-2" data-name="Grupo 86404">
                <rect id="Rectángulo_15596" data-name="Rectángulo 15596" width="167.036" height="96.765" fill="none" stroke="#b7c2c5" stroke-linecap="round" stroke-linejoin="round" stroke-width="2.812" stroke-dasharray="0 6.561"/>
                <rect id="Rectángulo_15597" data-name="Rectángulo 15597" width="149.699" height="82.007" transform="translate(8.536 7.584)" fill="#cad3df"/>
                <rect id="Rectángulo_15598" data-name="Rectángulo 15598" width="132.096" height="64.404" transform="translate(17.337 16.386)" fill="#f6f6f6" stroke="#fff" stroke-miterlimit="10" stroke-width="0.469"/>
              </g>
              <g id="Grupo_86308" data-name="Grupo 86308" transform="translate(46.922 34.371)">
                <g id="CUENTA" style="isolation: isolate">
                  <text id="CUENTA-2" data-name="CUENTA" transform="translate(0 20)" fill="#12263f" font-size="19" font-family="Roboto-Bold, Roboto" font-weight="700" style="isolation: isolate"><tspan x="0" y="0">CUENTA</tspan></text>
                </g>
              </g>
            </g>
          </g>
          <g id="Grupo_86321" data-name="Grupo 86321" transform="translate(558.323 171.925)">
            <g id="Grupo_86320" data-name="Grupo 86320">
              <g id="Grupo_86319" data-name="Grupo 86319">
                <g id="Grupo_86318" data-name="Grupo 86318">
                  <path id="Rectángulo_15562-4" data-name="Rectángulo 15562" d="M2509.334,1532.755v1.97c0,21.191-16.1,38.37-35.969,38.37h-113c-19.865,0-35.968-17.179-35.968-38.37v-1.97c0-21.191,16.1-38.37,35.968-38.37h113C2493.231,1494.385,2509.334,1511.564,2509.334,1532.755Z" transform="translate(-2324.396 -1494.385)" fill="#cad3df" opacity="0.37" style="isolation: isolate"/>
                  <g id="Grupo_86317" data-name="Grupo 86317" transform="translate(4.067 3.554)">
                    <g id="Grupo_86313" data-name="Grupo 86313">
                      <rect id="Rectángulo_15566" data-name="Rectángulo 15566" width="176.17" height="70.285" rx="31.435" fill="#cad3df"/>
                      <rect id="Rectángulo_15567" data-name="Rectángulo 15567" width="167.042" height="61.158" rx="27.248" transform="translate(4.565 4.564)" fill="#f6f6f6" stroke="#fff" stroke-miterlimit="10" stroke-width="0.407"/>
                    </g>
                    <g id="Grupo_86314" data-name="Grupo 86314" transform="translate(66.446 21.467)">
                      <g id="saldo" style="isolation: isolate">
                        <text id="saldo-2" data-name="saldo" transform="translate(0 17)" fill="#12263f" font-size="16" font-family="Roboto-Bold, Roboto" font-weight="700" style="isolation: isolate"><tspan x="0" y="0">saldo</tspan></text>
                      </g>
                    </g>
                  </g>
                </g>
              </g>
            </g>
          </g>
          <g id="Grupo_86406" data-name="Grupo 86406" transform="translate(60.985 108.039)">
            <rect id="Rectángulo_15599" data-name="Rectángulo 15599" width="147.159" height="147.159" transform="translate(104.057 0) rotate(45)" fill="none" stroke="#b7c2c5" stroke-linecap="round" stroke-linejoin="round" stroke-width="2.812" stroke-dasharray="0 6.561"/>
            <rect id="Rectángulo_15600" data-name="Rectángulo 15600" width="124.715" height="124.715" transform="translate(104.057 16.312) rotate(45)" fill="#cad3df"/>
            <rect id="Rectángulo_15601" data-name="Rectángulo 15601" width="97.945" height="97.945" transform="translate(104.057 35.242) rotate(45)" fill="#f6f6f6" stroke="#fff" stroke-miterlimit="10" stroke-width="0.469"/>
            <g id="Grupo_86277" data-name="Grupo 86277" transform="translate(59.927 87.981)">
              <g id="TITULAR" style="isolation: isolate">
                <text id="TITULAR-2" data-name="TITULAR" transform="translate(0 22)" fill="#12263f" font-size="21" font-family="Roboto-Bold, Roboto" font-weight="700" style="isolation: isolate"><tspan x="0" y="0">TITULAR</tspan></text>
              </g>
            </g>
          </g>
        </g>
        <g id="Grupo_83769" data-name="Grupo 83769">
          <g id="Grupo_83690" data-name="Grupo 83690" transform="translate(134.594 236.819)">
            <path id="Trazado_112841" data-name="Trazado 112841" d="M1671.447,1485.935l1.09-39.239h-118.4" transform="translate(-1554.135 -1446.696)" fill="none" stroke="#b7c2c5" stroke-linecap="round" stroke-linejoin="round" stroke-width="2.812" stroke-dasharray="0 6.561"/>
          </g>
          <g id="Grupo_83691" data-name="Grupo 83691" transform="translate(134.594 367.615)">
            <line id="Línea_188" data-name="Línea 188" x1="118.398" fill="none" stroke="#b7c2c5" stroke-linecap="round" stroke-linejoin="round" stroke-width="2.812" stroke-dasharray="0 6.561"/>
          </g>
          <g id="Grupo_83700" data-name="Grupo 83700" transform="translate(0 196.808)">
            <path id="Rectángulo_15562-5" data-name="Rectángulo 15562" d="M1615.589,1449v2c0,21.544-16.1,39.011-35.969,39.011h-113c-19.865,0-35.969-17.467-35.969-39.011v-2c0-21.544,16.1-39.01,35.969-39.01h113C1599.485,1409.987,1615.589,1427.453,1615.589,1449Z" transform="translate(-1430.65 -1409.987)" fill="#cad3df" opacity="0.37" style="isolation: isolate"/>
            <g id="Grupo_83699" data-name="Grupo 83699" transform="translate(4.7 4.868)">
              <g id="Grupo_83695" data-name="Grupo 83695">
                <rect id="Rectángulo_14843" data-name="Rectángulo 14843" width="176.17" height="70.285" rx="31.435" fill="#cad3df"/>
                <rect id="Rectángulo_14844" data-name="Rectángulo 14844" width="167.042" height="61.158" rx="27.248" transform="translate(4.565 4.564)" fill="#f6f6f6" stroke="#fff" stroke-miterlimit="10" stroke-width="0.407"/>
              </g>
              <g id="Grupo_83696" data-name="Grupo 83696" transform="translate(62.755 21.467)">
                <g id="correo-2" style="isolation: isolate">
                  <text id="correo" transform="translate(0 17)" fill="#12263f" font-size="16" font-family="Roboto-Bold, Roboto" font-weight="700" style="isolation: isolate"><tspan x="0" y="0">correo</tspan></text>
                </g>
              </g>
            </g>
          </g>
          <g id="Grupo_83709" data-name="Grupo 83709" transform="translate(0 328.22)">
            <path id="Rectángulo_15562-6" data-name="Rectángulo 15562" d="M1615.589,1569.563v2c0,21.544-16.1,39.011-35.969,39.011h-113c-19.865,0-35.969-17.467-35.969-39.011v-2c0-21.544,16.1-39.01,35.969-39.01h113C1599.485,1530.553,1615.589,1548.019,1615.589,1569.563Z" transform="translate(-1430.65 -1530.553)" fill="#cad3df" opacity="0.37" style="isolation: isolate"/>
            <g id="Grupo_83705" data-name="Grupo 83705" transform="translate(4.7 4.868)">
              <g id="Grupo_83701" data-name="Grupo 83701">
                <rect id="Rectángulo_14845" data-name="Rectángulo 14845" width="176.17" height="70.285" rx="31.435" fill="#cad3df"/>
                <rect id="Rectángulo_14846" data-name="Rectángulo 14846" width="167.042" height="61.158" rx="27.248" transform="translate(4.565 4.564)" fill="#f6f6f6" stroke="#fff" stroke-miterlimit="10" stroke-width="0.407"/>
              </g>
              <g id="Grupo_83702" data-name="Grupo 83702" transform="translate(69.248 21.467)">
                <g id="edad-2" style="isolation: isolate">
                  <text id="edad" transform="translate(0 17)" fill="#12263f" font-size="16" font-family="Roboto-Bold, Roboto" font-weight="700" style="isolation: isolate"><tspan x="0" y="0">edad</tspan></text>
                </g>
              </g>
            </g>
          </g>
          <path id="Trazado_112853" data-name="Trazado 112853" d="M1712.615,1447.229,1676.3,1344.7h-55.163" transform="translate(-1413.514 -1219.053)" fill="none" stroke="#b7c2c5" stroke-linecap="round" stroke-linejoin="round" stroke-width="2.812" stroke-dasharray="0 6.561"/>
          <path id="Trazado_112854" data-name="Trazado 112854" d="M1701.715,1621.766l-16.511,62.052h-64.069" transform="translate(-1413.514 -1194.127)" fill="none" stroke="#b7c2c5" stroke-linecap="round" stroke-linejoin="round" stroke-width="2.812" stroke-dasharray="0 6.561"/>
          <g id="Grupo_83718" data-name="Grupo 83718" transform="translate(66.947 85.765)">
            <path id="Rectángulo_15562-7" data-name="Rectángulo 15562" d="M1677.009,1347.119v2c0,21.544-16.1,39.011-35.968,39.011h-113c-19.865,0-35.968-17.467-35.968-39.011v-2c0-21.544,16.1-39.01,35.968-39.01h113C1660.906,1308.109,1677.009,1325.575,1677.009,1347.119Z" transform="translate(-1492.071 -1308.109)" fill="#cad3df" opacity="0.37" style="isolation: isolate"/>
            <g id="Grupo_83717" data-name="Grupo 83717" transform="translate(4.699 4.868)">
              <g id="Grupo_83713" data-name="Grupo 83713">
                <rect id="Rectángulo_14847" data-name="Rectángulo 14847" width="176.17" height="70.285" rx="31.435" fill="#cad3df"/>
                <rect id="Rectángulo_14848" data-name="Rectángulo 14848" width="167.042" height="61.158" rx="27.248" transform="translate(4.565 4.564)" fill="#f6f6f6" stroke="#fff" stroke-miterlimit="10" stroke-width="0.407"/>
              </g>
              <g id="Grupo_83714" data-name="Grupo 83714" transform="translate(52.69 21.467)">
                <g id="apellidos-2" style="isolation: isolate">
                  <text id="apellidos" transform="translate(0 17)" fill="#12263f" font-size="16" font-family="Roboto-Bold, Roboto" font-weight="700" style="isolation: isolate"><tspan x="0" y="0">apellidos</tspan></text>
                </g>
              </g>
            </g>
          </g>
          <g id="Grupo_83736" data-name="Grupo 83736" transform="translate(237.801 85.765)">
            <g id="Grupo_83725" data-name="Grupo 83725" transform="translate(10.005 124.29)">
              <g id="Grupo_83719" data-name="Grupo 83719" transform="translate(49.277 17.693)">
                <path id="Trazado_112862" data-name="Trazado 112862" d="M1764.086,1527.748a4.9,4.9,0,0,1-5.107-2.446l-55.124-79.6a4.9,4.9,0,1,1,8.526-4.851l.039.07,55.124,79.6a4.9,4.9,0,0,1-3.458,7.226Z" transform="translate(-1703.214 -1438.374)" fill="#4dd0e1"/>
              </g>
              <g id="Grupo_83720" data-name="Grupo 83720" transform="translate(2.408 59.96)">
                <path id="Trazado_112863" data-name="Trazado 112863" d="M1764.936,1526.852a4.9,4.9,0,0,1-1.767-.327l-99.815-39.886a4.907,4.907,0,1,1,3.535-9.156l99.817,39.885a4.9,4.9,0,0,1-1.769,9.483Z" transform="translate(-1660.212 -1477.152)" fill="#4dd0e1"/>
              </g>
              <g id="Grupo_83721" data-name="Grupo 83721" transform="translate(0 125.284)">
                <path id="Trazado_112864" data-name="Trazado 112864" d="M1662.916,1573.814a4.9,4.9,0,0,1-1.888-9.435l103.216-26.915a4.905,4.905,0,1,1,3.772,9.056L1664.8,1573.435A4.886,4.886,0,0,1,1662.916,1573.814Z" transform="translate(-1658.003 -1537.085)" fill="#4dd0e1"/>
              </g>
              <g id="Grupo_83722" data-name="Grupo 83722" transform="translate(40.889 125.285)">
                <path id="Trazado_112865" data-name="Trazado 112865" d="M1700.421,1623.062a4.9,4.9,0,0,1-4.544-6.748l61.659-76.165a4.9,4.9,0,1,1,9.091,3.685h0L1704.968,1620A4.9,4.9,0,0,1,1700.421,1623.062Z" transform="translate(-1695.517 -1537.085)" fill="#4dd0e1"/>
              </g>
              <g id="Grupo_83723" data-name="Grupo 83723" transform="translate(103.362 125.504)">
                <path id="Trazado_112866" data-name="Trazado 112866" d="M1762.255,1640.356a4.9,4.9,0,0,1-9.421-1.952l1.37-96.249a4.9,4.9,0,0,1,9.81.071l-1.37,96.249A4.876,4.876,0,0,1,1762.255,1640.356Z" transform="translate(-1752.834 -1537.286)" fill="#4dd0e1"/>
              </g>
              <g id="Grupo_83724" data-name="Grupo 83724" transform="translate(104.538)">
                <path id="Trazado_112867" data-name="Trazado 112867" d="M1754.24,1522.486a4.873,4.873,0,0,1-.327-1.767l.049-93.68a4.9,4.9,0,0,1,9.81.013l-.049,93.679a4.9,4.9,0,0,1-9.483,1.755Z" transform="translate(-1753.913 -1422.141)" fill="#4dd0e1"/>
              </g>
            </g>
            <g id="Grupo_83726" data-name="Grupo 83726" transform="translate(0 121.957)">
              <path id="Trazado_112868" data-name="Trazado 112868" d="M1759.109,1420.006a5.394,5.394,0,0,1,5.648,5.127c0,.084.007.169.007.253h0a5.36,5.36,0,0,1-5.079,5.371,107.928,107.928,0,0,0-66.96,27.3l-8.3-7.019A118.673,118.673,0,0,1,1759.109,1420.006Z" transform="translate(-1645.621 -1420)" fill="#4dd0e1"/>
              <path id="Trazado_112869" data-name="Trazado 112869" d="M1760.111,1631.187a5.383,5.383,0,0,1-.576,10.751,118.769,118.769,0,0,1-79.853-36.053l8.209-7A108.032,108.032,0,0,0,1760.111,1631.187Z" transform="translate(-1646.048 -1403.908)" fill="#4dd0e1"/>
              <path id="Trazado_112870" data-name="Trazado 112870" d="M1649.086,1521.954h10.791q-.281,3.911-.286,7.894a108.023,108.023,0,0,0,31.08,75.956l-8.21,7a118.749,118.749,0,0,1-33.637-82.959C1648.822,1527.2,1648.917,1524.564,1649.086,1521.954Z" transform="translate(-1648.824 -1410.828)" fill="#4dd0e1"/>
              <path id="Trazado_112871" data-name="Trazado 112871" d="M1687.61,1448.475l8.3,7.019a108.114,108.114,0,0,0-36.054,73.07h-10.791A118.83,118.83,0,0,1,1687.61,1448.475Z" transform="translate(-1648.802 -1417.439)" fill="#4dd0e1"/>
            </g>
            <g id="Grupo_83735" data-name="Grupo 83735" transform="translate(1.026 131.502)">
              <g id="Grupo_83728" data-name="Grupo 83728" transform="translate(0 136.683)">
                <g id="Grupo_83727" data-name="Grupo 83727">
                  <circle id="Elipse_4186" data-name="Elipse 4186" cx="12.027" cy="12.027" r="12.027" stroke="#fff" stroke-miterlimit="10" stroke-width="0.783" fill="url(#linear-gradient-4)"/>
                  <circle id="Elipse_4187" data-name="Elipse 4187" cx="8.644" cy="8.644" r="8.644" transform="translate(3.382 3.383)" fill="#4dd0e1"/>
                </g>
              </g>
              <g id="Grupo_83730" data-name="Grupo 83730" transform="translate(40.028 189.779)">
                <g id="Grupo_83729" data-name="Grupo 83729">
                  <circle id="Elipse_4188" data-name="Elipse 4188" cx="12.027" cy="12.027" r="12.027" stroke="#fff" stroke-miterlimit="10" stroke-width="0.783" fill="url(#linear-gradient-5)"/>
                  <circle id="Elipse_4189" data-name="Elipse 4189" cx="8.641" cy="8.641" r="8.641" transform="translate(3.383 3.39)" fill="#4dd0e1"/>
                </g>
              </g>
              <g id="Grupo_83732" data-name="Grupo 83732" transform="translate(4.611 47.433)">
                <g id="Grupo_83731" data-name="Grupo 83731">
                  <circle id="Elipse_4190" data-name="Elipse 4190" cx="12.027" cy="12.027" r="12.027" stroke="#fff" stroke-miterlimit="10" stroke-width="0.783" fill="url(#linear-gradient-6)"/>
                  <circle id="Elipse_4191" data-name="Elipse 4191" cx="8.644" cy="8.644" r="8.644" transform="translate(3.383 3.383)" fill="#4dd0e1"/>
                </g>
              </g>
              <g id="Grupo_83734" data-name="Grupo 83734" transform="translate(48.284)">
                <g id="Grupo_83733" data-name="Grupo 83733">
                  <circle id="Elipse_4192" data-name="Elipse 4192" cx="12.027" cy="12.027" r="12.027" stroke="#fff" stroke-miterlimit="10" stroke-width="0.783" fill="url(#linear-gradient-7)"/>
                  <circle id="Elipse_4193" data-name="Elipse 4193" cx="8.644" cy="8.644" r="8.644" transform="translate(3.382 3.383)" fill="#4dd0e1"/>
                </g>
              </g>
            </g>
            <g id="Grupo_83867" data-name="Grupo 83867" transform="translate(118.688)">
              <g id="Grupo_83808" data-name="Grupo 83808" transform="translate(0 121.787)">
                <path id="Trazado_112913" data-name="Trazado 112913" d="M1763.372,1419.851a5.393,5.393,0,0,0-5.649,5.126c0,.085-.007.169-.007.254h0a5.36,5.36,0,0,0,5.079,5.371,107.708,107.708,0,0,1,50.216,15.042c5.975,3.552,12.852-4.839,6.049-8.938A118.462,118.462,0,0,0,1763.372,1419.851Z" transform="translate(-1757.716 -1419.844)" fill="#4dd0e1"/>
              </g>
              <g id="Grupo_83801" data-name="Grupo 83801" transform="translate(12.177 141.813)">
                <path id="Trazado_112903" data-name="Trazado 112903" d="M1772.97,1514.839a4.9,4.9,0,0,0,5.106-2.446l37.853-66.844a4.905,4.905,0,0,0-8.527-4.851l-.038.07-37.853,66.845a4.9,4.9,0,0,0,3.459,7.226Z" transform="translate(-1768.888 -1438.218)" fill="#4dd0e1"/>
              </g>
              <g id="Grupo_83866" data-name="Grupo 83866" transform="translate(45.778)">
                <path id="Trazado_112923" data-name="Trazado 112923" d="M1810.785,1447.073,1847.1,1344.54h55.163" transform="translate(-1798.72 -1304.832)" fill="none" stroke="#b7c2c5" stroke-linecap="round" stroke-linejoin="round" stroke-width="2.812" stroke-dasharray="0 6.561"/>
                <g id="Grupo_83861" data-name="Grupo 83861" transform="translate(72.118)">
                  <path id="Rectángulo_15562-8" data-name="Rectángulo 15562" d="M2050.82,1347.119v2c0,21.544-16.1,39.011-35.969,39.011h-113c-19.865,0-35.969-17.467-35.969-39.011v-2c0-21.544,16.1-39.01,35.969-39.01h113C2034.716,1308.109,2050.82,1325.575,2050.82,1347.119Z" transform="translate(-1865.881 -1308.109)" fill="#cad3df" opacity="0.37" style="isolation: isolate"/>
                  <g id="Grupo_83860" data-name="Grupo 83860" transform="translate(4.067 4.868)">
                    <g id="Grupo_83856" data-name="Grupo 83856">
                      <rect id="Rectángulo_14868" data-name="Rectángulo 14868" width="176.17" height="70.285" rx="31.435" fill="#cad3df"/>
                      <rect id="Rectángulo_14869" data-name="Rectángulo 14869" width="167.042" height="61.158" rx="27.248" transform="translate(4.565 4.564)" fill="#f6f6f6" stroke="#fff" stroke-miterlimit="10" stroke-width="0.407"/>
                    </g>
                    <g id="Grupo_83857" data-name="Grupo 83857" transform="translate(38.081 21.467)">
                      <g id="id_personas" data-name="id  personas" style="isolation: isolate">
                        <text id="id__personas" data-name="id_ personas" transform="translate(0 17)" fill="#12263f" font-size="16" font-family="Roboto-Bold, Roboto" font-weight="700" style="isolation: isolate"><tspan x="0" y="0">id_ personas</tspan></text>
                      </g>
                    </g>
                  </g>
                </g>
                <g id="Grupo_83865" data-name="Grupo 83865" transform="translate(0 131.331)">
                  <g id="Grupo_83864" data-name="Grupo 83864">
                    <g id="Grupo_83863" data-name="Grupo 83863">
                      <g id="Grupo_83862" data-name="Grupo 83862">
                        <circle id="Elipse_4250" data-name="Elipse 4250" cx="12.027" cy="12.027" r="12.027" stroke="#fff" stroke-miterlimit="10" stroke-width="0.783" fill="url(#linear-gradient-8)"/>
                        <circle id="Elipse_4251" data-name="Elipse 4251" cx="8.644" cy="8.644" r="8.644" transform="translate(3.383 3.383)" fill="#4dd0e1"/>
                      </g>
                    </g>
                  </g>
                </g>
              </g>
            </g>
          </g>
          <g id="Grupo_83745" data-name="Grupo 83745" transform="translate(66.947 449.812)">
            <path id="Rectángulo_15562-9" data-name="Rectángulo 15562" d="M1677.009,1681.119v2c0,21.544-16.1,39.011-35.968,39.011h-113c-19.865,0-35.968-17.467-35.968-39.011v-2c0-21.544,16.1-39.01,35.968-39.01h113C1660.906,1642.109,1677.009,1659.575,1677.009,1681.119Z" transform="translate(-1492.071 -1642.109)" fill="#cad3df" opacity="0.37" style="isolation: isolate"/>
            <g id="Grupo_83744" data-name="Grupo 83744" transform="translate(4.699 4.868)">
              <g id="Grupo_83740" data-name="Grupo 83740">
                <rect id="Rectángulo_14849" data-name="Rectángulo 14849" width="176.17" height="70.285" rx="31.435" fill="#cad3df"/>
                <rect id="Rectángulo_14850" data-name="Rectángulo 14850" width="167.042" height="61.158" rx="27.248" transform="translate(4.565 4.564)" fill="#f6f6f6" stroke="#fff" stroke-miterlimit="10" stroke-width="0.407"/>
              </g>
              <g id="Grupo_83741" data-name="Grupo 83741" transform="translate(72.032 21.467)">
                <g id="pais-2" style="isolation: isolate">
                  <text id="pais" transform="translate(0 17)" fill="#12263f" font-size="16" font-family="Roboto-Bold, Roboto" font-weight="700" style="isolation: isolate"><tspan x="0" y="0">pais</tspan></text>
                </g>
              </g>
            </g>
          </g>
          <line id="Línea_189" data-name="Línea 189" x2="0.319" y2="114.651" transform="translate(356.868 448.348)" fill="none" stroke="#b7c2c5" stroke-linecap="round" stroke-linejoin="round" stroke-width="2.812" stroke-dasharray="0 6.561"/>
          <line id="Línea_190" data-name="Línea 190" x2="0.319" y2="192.923" transform="translate(356.868 19.993)" fill="none" stroke="#b7c2c5" stroke-linecap="round" stroke-linejoin="round" stroke-width="2.812" stroke-dasharray="0 6.561"/>
          <g id="Grupo_83755" data-name="Grupo 83755" transform="translate(264.559 538.263)">
            <path id="Rectángulo_15562-10" data-name="Rectángulo 15562" d="M1858.312,1762.271v2c0,21.544-16.1,39.01-35.969,39.01h-113c-19.865,0-35.969-17.465-35.969-39.01v-2c0-21.545,16.1-39.011,35.969-39.011h113C1842.208,1723.26,1858.312,1740.726,1858.312,1762.271Z" transform="translate(-1673.373 -1723.26)" fill="#cad3df" opacity="0.37" style="isolation: isolate"/>
            <g id="Grupo_83754" data-name="Grupo 83754" transform="translate(4.699 4.869)">
              <g id="Grupo_83750" data-name="Grupo 83750">
                <rect id="Rectángulo_14851" data-name="Rectángulo 14851" width="176.17" height="70.285" rx="31.435" fill="#cad3df"/>
                <rect id="Rectángulo_14852" data-name="Rectángulo 14852" width="167.042" height="61.158" rx="27.248" transform="translate(4.565 4.564)" fill="#f6f6f6" stroke="#fff" stroke-miterlimit="10" stroke-width="0.407"/>
              </g>
              <g id="Grupo_83751" data-name="Grupo 83751" transform="translate(34.634 21.467)">
                <g id="identificación-2" style="isolation: isolate">
                  <text id="identificación" transform="translate(0 17)" fill="#12263f" font-size="16" font-family="Roboto-Bold, Roboto" font-weight="700" style="isolation: isolate"><tspan x="0" y="0">identificación</tspan></text>
                </g>
              </g>
            </g>
          </g>
          <g id="Grupo_83757" data-name="Grupo 83757" transform="translate(345.247 429.664)">
            <g id="Grupo_83756" data-name="Grupo 83756">
              <circle id="Elipse_4204" data-name="Elipse 4204" cx="12.027" cy="12.027" r="12.027" stroke="#fff" stroke-miterlimit="10" stroke-width="0.783" fill="url(#linear-gradient-9)"/>
              <circle id="Elipse_4205" data-name="Elipse 4205" cx="8.644" cy="8.644" r="8.644" transform="translate(3.383 3.383)" fill="#4dd0e1"/>
            </g>
          </g>
          <g id="Grupo_83766" data-name="Grupo 83766" transform="translate(264.559)">
            <path id="Rectángulo_15562-11" data-name="Rectángulo 15562" d="M1858.312,1268.433v2c0,21.545-16.1,39.011-35.969,39.011h-113c-19.865,0-35.969-17.466-35.969-39.011v-2c0-21.544,16.1-39.01,35.969-39.01h113C1842.208,1229.423,1858.312,1246.889,1858.312,1268.433Z" transform="translate(-1673.373 -1229.423)" fill="#cad3df" opacity="0.37" style="isolation: isolate"/>
            <g id="Grupo_83765" data-name="Grupo 83765" transform="translate(4.699 4.868)">
              <g id="Grupo_83761" data-name="Grupo 83761">
                <rect id="Rectángulo_14853" data-name="Rectángulo 14853" width="176.17" height="70.285" rx="31.435" fill="#cad3df"/>
                <rect id="Rectángulo_14854" data-name="Rectángulo 14854" width="167.042" height="61.158" rx="27.248" transform="translate(4.565 4.564)" fill="#f6f6f6" stroke="#fff" stroke-miterlimit="10" stroke-width="0.407"/>
              </g>
              <g id="Grupo_83762" data-name="Grupo 83762" transform="translate(53.682 21.467)">
                <g id="nombres-2" style="isolation: isolate">
                  <text id="nombres" transform="translate(0 17)" fill="#12263f" font-size="16" font-family="Roboto-Bold, Roboto" font-weight="700" style="isolation: isolate"><tspan x="0" y="0">nombres</tspan></text>
                </g>
              </g>
            </g>
          </g>
          <g id="Grupo_83768" data-name="Grupo 83768" transform="translate(344.613 200.902)">
            <g id="Grupo_83767" data-name="Grupo 83767">
              <circle id="Elipse_4211" data-name="Elipse 4211" cx="12.027" cy="12.027" r="12.027" stroke="#fff" stroke-miterlimit="10" stroke-width="0.783" fill="url(#linear-gradient-10)"/>
              <circle id="Elipse_4212" data-name="Elipse 4212" cx="8.644" cy="8.644" r="8.644" transform="translate(3.382 3.382)" fill="#4dd0e1"/>
            </g>
          </g>
          <g id="Grupo_86408" data-name="Grupo 86408" transform="translate(273.925 280.587)">
            <g id="Grupo_86407" data-name="Grupo 86407">
              <rect id="Rectángulo_15602" data-name="Rectángulo 15602" width="167.036" height="96.765" fill="none" stroke="#b7c2c5" stroke-linecap="round" stroke-linejoin="round" stroke-width="2.812" stroke-dasharray="0 6.561"/>
              <rect id="Rectángulo_15603" data-name="Rectángulo 15603" width="149.699" height="82.007" transform="translate(8.536 7.584)" fill="#cad3df"/>
              <rect id="Rectángulo_15604" data-name="Rectángulo 15604" width="132.096" height="64.404" transform="translate(17.337 16.386)" fill="#f6f6f6" stroke="#fff" stroke-miterlimit="10" stroke-width="0.469"/>
            </g>
            <g id="Grupo_86372" data-name="Grupo 86372" transform="translate(34.145 31.864)">
              <g id="PERSONA" style="isolation: isolate">
                <text id="PERSONA-2" data-name="PERSONA" transform="translate(0 22)" fill="#12263f" font-size="21" font-family="Roboto-Bold, Roboto" font-weight="700" style="isolation: isolate"><tspan x="0" y="0">PERSONA</tspan></text>
              </g>
            </g>
          </g>
        </g>
      </g>
      <g id="_1-4" data-name=" 1-4" transform="translate(1883.742 1523.348)" style="isolation: isolate">
        <text id="_1" data-name="1" transform="translate(0 23)" fill="#12263f" font-size="22" font-family="Roboto-Bold, Roboto" font-weight="700" style="isolation: isolate"><tspan x="0" y="0">1</tspan></text>
      </g>
      <g id="N" transform="translate(2124.347 1523.348)" style="isolation: isolate">
        <text id="N-2" data-name="N" transform="translate(0 22)" fill="#12263f" font-size="21" font-family="Roboto-Bold, Roboto" font-weight="700" style="isolation: isolate"><tspan x="0" y="0">N</tspan></text>
      </g>
    </g>
    <path id="Trazado_116161" data-name="Trazado 116161" d="M-4213.056-7574.3h91.51" transform="translate(4950.301 16341)" fill="none" stroke="#13273e" stroke-width="1"/>
    <path id="Trazado_116162" data-name="Trazado 116162" d="M-4213.056-7574.3h111.146" transform="translate(5408 16373)" fill="none" stroke="#13273e" stroke-width="1"/>
  </g>
</svg>
